<svg xmlns="http://www.w3.org/2000/svg" xmlns:xlink="http://www.w3.org/1999/xlink" width="129" height="124" viewBox="0 0 129 124"><defs><style>.a{fill:#fff;opacity:0.5;}.b{fill:url(#c);}.c{fill:url(#o);}.d{filter:url(#m);}.e{filter:url(#j);}.f{filter:url(#g);}.g{filter:url(#d);}.h{filter:url(#a);}</style><filter id="a" x="7" y="8" width="114" height="112" filterUnits="userSpaceOnUse"><feOffset dy="5" input="SourceAlpha"/><feGaussianBlur stdDeviation="5" result="b"/><feFlood flood-color="#004cff" flood-opacity="0.149"/><feComposite operator="in" in2="b"/><feComposite in="SourceGraphic"/></filter><linearGradient id="c" x1="0.5" x2="0.5" y2="1" gradientUnits="objectBoundingBox"><stop offset="0" stop-color="#1ab3ff"/><stop offset="1" stop-color="#0095ff"/></linearGradient><filter id="d" x="4" y="0" width="68" height="68" filterUnits="userSpaceOnUse"><feOffset dx="1" dy="5" input="SourceAlpha"/><feGaussianBlur stdDeviation="10" result="e"/><feFlood flood-color="#004cff" flood-opacity="0.149"/><feComposite operator="in" in2="e"/><feComposite in="SourceGraphic"/></filter><filter id="g" x="57" y="56" width="68" height="68" filterUnits="userSpaceOnUse"><feOffset dx="1" dy="5" input="SourceAlpha"/><feGaussianBlur stdDeviation="10" result="h"/><feFlood flood-color="#004cff" flood-opacity="0.149"/><feComposite operator="in" in2="h"/><feComposite in="SourceGraphic"/></filter><filter id="j" x="0" y="8" width="64" height="64" filterUnits="userSpaceOnUse"><feOffset dx="1" dy="5" input="SourceAlpha"/><feGaussianBlur stdDeviation="10" result="k"/><feFlood flood-color="#004cff" flood-opacity="0.149"/><feComposite operator="in" in2="k"/><feComposite in="SourceGraphic"/></filter><filter id="m" x="65" y="52" width="64" height="64" filterUnits="userSpaceOnUse"><feOffset dx="1" dy="5" input="SourceAlpha"/><feGaussianBlur stdDeviation="10" result="n"/><feFlood flood-color="#004cff" flood-opacity="0.149"/><feComposite operator="in" in2="n"/><feComposite in="SourceGraphic"/></filter><linearGradient id="o" x1="0.5" x2="0.5" y2="1" gradientUnits="objectBoundingBox"><stop offset="0" stop-color="#00d4ff"/><stop offset="1" stop-color="#004cff"/></linearGradient></defs><g transform="translate(-1504 -3182)"><g class="h" transform="matrix(1, 0, 0, 1, 1504, 3182)"><rect class="a" width="84" height="82" rx="15" transform="translate(22 18)"/></g><g class="g" transform="matrix(1, 0, 0, 1, 1504, 3182)"><circle class="b" cx="4" cy="4" r="4" transform="translate(33 25)"/></g><g class="f" transform="matrix(1, 0, 0, 1, 1504, 3182)"><circle class="b" cx="4" cy="4" r="4" transform="translate(94 89) rotate(180)"/></g><g class="e" transform="matrix(1, 0, 0, 1, 1504, 3182)"><circle class="b" cx="2" cy="2" r="2" transform="translate(29 33)"/></g><g class="d" transform="matrix(1, 0, 0, 1, 1504, 3182)"><circle class="b" cx="2" cy="2" r="2" transform="translate(98 81) rotate(180)"/></g><g transform="translate(1511.576 3216)"><path class="c" d="M193.9,109.2h5.281a2.93,2.93,0,1,0-5.281,0Z" transform="translate(-142.771 -94.746)"/><path class="c" d="M101.819,7.324a5.866,5.866,0,0,1,5.721,7.129H115V11.23a.977.977,0,0,0-.977-.977h-1.971a10.579,10.579,0,0,0-.927-2.236l1.395-1.395a.977.977,0,0,0,0-1.381L109.76,2.48a.977.977,0,0,0-1.381,0l-1.395,1.395a10.579,10.579,0,0,0-2.236-.928V.977A.977.977,0,0,0,103.772,0H99.865a.977.977,0,0,0-.977.977V2.948a10.574,10.574,0,0,0-2.236.928L95.258,2.48a.977.977,0,0,0-1.381,0L91.115,5.242a.977.977,0,0,0,0,1.381L92.51,8.018a10.579,10.579,0,0,0-.927,2.236H89.612a.977.977,0,0,0-.977.977v3.223H96.1A5.861,5.861,0,0,1,101.819,7.324Z" transform="translate(-48.014)"/><path class="c" d="M78.176,191.639l-5.738-8.6A17.4,17.4,0,0,0,71.4,178H36.5a17.607,17.607,0,0,0,10.628,22.632v8.521a1.463,1.463,0,0,0,1.462,1.465H65.254a1.464,1.464,0,0,0,1.462-1.465v-7.52H71a1.464,1.464,0,0,0,1.462-1.465v-6.25H76.96A1.466,1.466,0,0,0,78.176,191.639Z" transform="translate(0 -160.617)"/></g></g></svg>