<svg xmlns="http://www.w3.org/2000/svg" xmlns:xlink="http://www.w3.org/1999/xlink" width="746.309" height="668.229" viewBox="0 0 746.309 668.229">
  <defs>
    <linearGradient id="linear-gradient" x1="0.5" x2="0.5" y2="1" gradientUnits="objectBoundingBox">
      <stop offset="0" stop-color="#00d4ff"/>
      <stop offset="1" stop-color="#004cff"/>
    </linearGradient>
  </defs>
  <g id="Background" transform="translate(20.775 -18.838)">
    <path id="Path_1786" data-name="Path 1786" d="M477.362,0S351.567,47.4,223.343,47.4-35.538,0-35.538,0A36.462,36.462,0,0,0-72,36.462S-19.738,168.941-19.738,300.2-72,561.515-72,561.515a36.462,36.462,0,0,0,36.462,36.462s130.656-49.831,258.881-49.831,254.019,49.831,254.019,49.831c20.137,0,36.462-36.462,36.462-36.462s87.509-137.34,87.509-268.6-87.509-256.45-87.509-256.45S497.5,0,477.362,0Z" transform="translate(124.202 24.673)" opacity="0.35" fill="url(#linear-gradient)"/>
    <path id="Path_1787" data-name="Path 1787" d="M477.362,0S351.567,47.4,223.343,47.4-35.538,0-35.538,0A36.462,36.462,0,0,0-72,36.462S-19.738,168.941-19.738,300.2-72,561.515-72,561.515a36.462,36.462,0,0,0,36.462,36.462s130.656-49.831,258.881-49.831,254.019,49.831,254.019,49.831c20.137,0,36.462-36.462,36.462-36.462s87.509-137.34,87.509-268.6-87.509-256.45-87.509-256.45S497.5,0,477.362,0Z" transform="translate(94.447 89.089)" fill="#fff" opacity="0.9"/>
    <path id="Path_1788" data-name="Path 1788" d="M0,239.483c77.86,24.855,147.709-57.876,142.434-130.1A109.464,109.464,0,0,0,33.048,0" transform="matrix(0.951, -0.309, 0.309, 0.951, 0.163, 164.702)" fill="#d8f6ff" stroke="#215c78" stroke-width="70" opacity="0.1"/>
    <path id="Polygon_6" data-name="Polygon 6" d="M93.1,6.234a5,5,0,0,1,8.319,0l87.916,131.776a5,5,0,0,1-4.159,7.775H9.346a5,5,0,0,1-4.159-7.775Z" transform="translate(109.398 85.369) rotate(-20)" fill="#004cff" opacity="0.1"/>
  </g>
</svg>
