<svg xmlns="http://www.w3.org/2000/svg" xmlns:xlink="http://www.w3.org/1999/xlink" width="67" height="65" viewBox="0 0 67 65"><defs><style>.a{fill:url(#a);}.b{filter:url(#e);}.c{filter:url(#b);}</style><linearGradient id="a" x1="0.5" x2="0.5" y2="1" gradientUnits="objectBoundingBox"><stop offset="0" stop-color="#00d4ff"/><stop offset="1" stop-color="#004cff"/></linearGradient><filter id="b" x="18.895" y="38.136" width="23.955" height="26.864" filterUnits="userSpaceOnUse"><feOffset dy="1" input="SourceAlpha"/><feGaussianBlur stdDeviation="2.5" result="c"/><feFlood flood-color="#004cff" flood-opacity="0.302"/><feComposite operator="in" in2="c"/><feComposite in="SourceGraphic"/></filter><filter id="e" x="0" y="0" width="67" height="58.394" filterUnits="userSpaceOnUse"><feOffset dy="1" input="SourceAlpha"/><feGaussianBlur stdDeviation="2.5" result="f"/><feFlood flood-color="#004cff" flood-opacity="0.302"/><feComposite operator="in" in2="f"/><feComposite in="SourceGraphic"/></filter></defs><g transform="translate(7.5 6.5)"><g class="c" transform="matrix(1, 0, 0, 1, -7.5, -6.5)"><path class="a" d="M8.75,17.612V27.825a1.651,1.651,0,0,0,2.981.978l5.974-8.13Z" transform="translate(17.65 27.02)"/></g><g class="b" transform="matrix(1, 0, 0, 1, -7.5, -6.5)"><path class="a" d="M51.317.3A1.624,1.624,0,0,0,49.623.185L.873,25.678A1.629,1.629,0,0,0,1.1,28.662L14.651,33.3,43.513,8.588,21.179,35.533l22.713,7.774a1.66,1.66,0,0,0,.524.087,1.624,1.624,0,0,0,1.608-1.386L51.983,1.868A1.631,1.631,0,0,0,51.317.3Z" transform="translate(7.5 6.5)"/></g></g></svg>