<svg xmlns="http://www.w3.org/2000/svg" xmlns:xlink="http://www.w3.org/1999/xlink" width="97.5" height="92.5" viewBox="0 0 97.5 92.5"><defs><style>.a{fill:url(#a);}.b{fill:url(#g);}.c{filter:url(#k);}.d{filter:url(#h);}.e{filter:url(#e);}.f{filter:url(#b);}</style><linearGradient id="a" x1="0.5" x2="0.5" y2="1" gradientUnits="objectBoundingBox"><stop offset="0" stopColor="#00d4ff"/><stop offset="1" stopColor="#004cff"/></linearGradient><filter id="b" x="49.395" y="65.636" width="23.955" height="26.864" filterUnits="userSpaceOnUse"><feOffset dy="1" input="SourceAlpha"/><feGaussianBlur stdDeviation="2.5" result="c"/><feFlood flood-color="#004cff" floodOpacity="0.302"/><feComposite operator="in" in2="c"/><feComposite in="SourceGraphic"/></filter><filter id="e" x="30.5" y="27.5" width="67" height="58.394" filterUnits="userSpaceOnUse"><feOffset dy="1" input="SourceAlpha"/><feGaussianBlur stdDeviation="2.5" result="f"/><feFlood flood-color="#004cff" floodOpacity="0.302"/><feComposite operator="in" in2="f"/><feComposite in="SourceGraphic"/></filter><linearGradient id="g" x1="0.5" x2="0.5" y2="1" gradientUnits="objectBoundingBox"><stop offset="0" stopColor="#1ab3ff"/><stop offset="1" stopColor="#0095ff"/></linearGradient><filter id="h" x="4" y="0" width="68" height="68" filterUnits="userSpaceOnUse"><feOffset dx="1" dy="5" input="SourceAlpha"/><feGaussianBlur stdDeviation="10" result="i"/><feFlood flood-color="#004cff" floodOpacity="0.149"/><feComposite operator="in" in2="i"/><feComposite in="SourceGraphic"/></filter><filter id="k" x="0" y="8" width="64" height="64" filterUnits="userSpaceOnUse"><feOffset dx="1" dy="5" input="SourceAlpha"/><feGaussianBlur stdDeviation="10" result="l"/><feFlood flood-color="#004cff" floodOpacity="0.149"/><feComposite operator="in" in2="l"/><feComposite in="SourceGraphic"/></filter></defs><g transform="translate(-464 -2136)"><g transform="translate(502 2170)"><g class="f" transform="matrix(1, 0, 0, 1, -38, -34)"><path class="a" d="M8.75,17.612V27.825a1.651,1.651,0,0,0,2.981.978l5.974-8.13Z" transform="translate(48.15 54.52)"/></g><g class="e" transform="matrix(1, 0, 0, 1, -38, -34)"><path class="a hero-plane" d="M51.317.3A1.624,1.624,0,0,0,49.623.185L.873,25.678A1.629,1.629,0,0,0,1.1,28.662L14.651,33.3,43.513,8.588,21.179,35.533l22.713,7.774a1.66,1.66,0,0,0,.524.087,1.624,1.624,0,0,0,1.608-1.386L51.983,1.868A1.631,1.631,0,0,0,51.317.3Z" transform="translate(38 34)"/></g></g><g class="d" transform="matrix(1, 0, 0, 1, 464, 2136)"><circle class="b" cx="4" cy="4" r="4" transform="translate(33 25)"/></g><g class="c" transform="matrix(1, 0, 0, 1, 464, 2136)"><circle class="b" cx="2" cy="2" r="2" transform="translate(29 33)"/></g></g></svg>