<svg xmlns="http://www.w3.org/2000/svg" xmlns:xlink="http://www.w3.org/1999/xlink" width="484" height="487" viewBox="0 0 484 487"><defs><style>.a,.d,.h{fill:#fff;}.b{fill:#ecf3fb;}.c{fill:url(#c);}.d{font-size:16px;}.d,.e,.f,.h{font-family:SegoeUI, Segoe UI;}.e,.f{fill:#004cff;}.e{font-size:18px;}.f{font-size:13px;letter-spacing:0.02em;}.g{fill:url(#f);}.h{font-size:14px;}.i{filter:url(#d);}.j{filter:url(#a);}</style><filter id="a" x="0" y="0" width="484" height="487" filterUnits="userSpaceOnUse"><feOffset dy="30" input="SourceAlpha"/><feGaussianBlur stdDeviation="45" result="b"/><feFlood flood-color="#004cff" flood-opacity="0.2"/><feComposite operator="in" in2="b"/><feComposite in="SourceGraphic"/></filter><linearGradient id="c" x1="0.5" x2="0.5" y2="1.648" gradientUnits="objectBoundingBox"><stop offset="0" stop-color="#1a9fff"/><stop offset="1" stop-color="#004cff"/></linearGradient><filter id="d" x="176.5" y="148.944" width="30" height="33" filterUnits="userSpaceOnUse"><feOffset dy="2" input="SourceAlpha"/><feGaussianBlur stdDeviation="2" result="e"/><feFlood flood-color="#455a64" flood-opacity="0.102"/><feComposite operator="in" in2="e"/><feComposite in="SourceGraphic"/></filter><linearGradient id="f" y2="1.587" xlink:href="#c"/></defs><g transform="translate(-667 -330)"><g class="j" transform="matrix(1, 0, 0, 1, 667, 330)"><rect class="a" width="214" height="217" rx="10" transform="translate(135 105)"/></g><g transform="translate(812.156 457.569)"><rect class="b" width="194" height="74" rx="10" transform="translate(-0.156 0.431)"/><g transform="translate(24.826 14.67)"><rect class="c hero-rankDeepBlue" width="45" height="45" rx="3" transform="translate(0.017 -0.24)"/><g class="i" transform="matrix(1, 0, 0, 1, -169.98, -142.24)"><text class="d hero-rankText" transform="translate(182.5 169.94)"><tspan x="0" y="0">98</tspan></text></g></g><g transform="translate(92.534 13.542)"><text class="e hero-rankText1" transform="translate(0.309 17.889)"><tspan x="0" y="0">Rank</tspan></text><text class="f hero-rankText2" transform="translate(0.309 40.889)"><tspan x="0" y="0">In top 5</tspan></text></g></g><g transform="translate(812.156 554.618)"><rect class="b" width="194" height="74" rx="10" transform="translate(-0.156 0.382)"/><g transform="translate(24.826 15.799)"><rect class="g hero-rankDeepBlue" width="45" height="46" rx="3" transform="translate(0.017 -0.417)"/><text class="h hero-rankText" transform="translate(12.719 25.951)"><tspan x="0" y="0">32</tspan></text></g><g transform="translate(92.534 14.67)"><text class="f hero-rankText2" transform="translate(0.309 41.712)"><tspan x="0" y="0">5 this month</tspan></text><text class="e hero-rankText1" transform="translate(0.309 17.712)"><tspan x="0" y="0">Projects</tspan></text></g></g></g></svg>