<svg xmlns="http://www.w3.org/2000/svg" xmlns:xlink="http://www.w3.org/1999/xlink" width="130.837" height="108" viewBox="0 0 130.837 108"><defs><style>.a,.b,.d,.f{fill:none;}.a{stroke:#0af;}.a,.b{stroke-linecap:round;stroke-linejoin:round;}.a,.d{stroke-width:3px;}.b{stroke:#00eaff;stroke-width:2.5px;}.c{fill:url(#e);}.d{stroke:#fff;}.e{stroke:none;}.g{filter:url(#h);}.h{filter:url(#f);}.i{filter:url(#c);}.j{filter:url(#a);}</style><filter id="a" x="0" y="21.606" width="61.151" height="35.484" filterUnits="userSpaceOnUse"><feOffset dy="1" input="SourceAlpha"/><feGaussianBlur stdDeviation="1" result="b"/><feFlood flood-color="#00d4ff" flood-opacity="0.349"/><feComposite operator="in" in2="b"/><feComposite in="SourceGraphic"/></filter><filter id="c" x="44.495" y="27.452" width="86.343" height="34.221" filterUnits="userSpaceOnUse"><feOffset dy="1" input="SourceAlpha"/><feGaussianBlur stdDeviation="2.5" result="d"/><feFlood flood-color="#00eaff" flood-opacity="0.502"/><feComposite operator="in" in2="d"/><feComposite in="SourceGraphic"/></filter><linearGradient id="e" x1="0.5" x2="0.5" y2="1" gradientUnits="objectBoundingBox"><stop offset="0" stop-color="aqua"/><stop offset="1" stop-color="#004cff"/></linearGradient><filter id="f" x="1.921" y="0" width="108" height="108" filterUnits="userSpaceOnUse"><feOffset dy="10" input="SourceAlpha"/><feGaussianBlur stdDeviation="15" result="g"/><feFlood flood-color="#00d4ff" flood-opacity="0.302"/><feComposite operator="in" in2="g"/><feComposite in="SourceGraphic"/></filter><filter id="h" x="37.921" y="29" width="36" height="36" filterUnits="userSpaceOnUse"><feOffset dy="3" input="SourceAlpha"/><feGaussianBlur stdDeviation="3" result="i"/><feFlood flood-opacity="0.161"/><feComposite operator="in" in2="i"/><feComposite in="SourceGraphic"/></filter></defs><g transform="translate(-574.079 -303)"><g class="j" transform="matrix(1, 0, 0, 1, 574.08, 303)"><path class="a" d="M-5405.133,1505.4s9.633,9.986,14.467,7.309S-5390.333,1501-5386,1502s8.81,12,8.81,12,6.2,13,8.457,7-7.6-23.857-1.743-24.857,11.343,18.38,16.343,21.057" transform="translate(5410.25 -1471)"/></g><g class="i" transform="matrix(1, 0, 0, 1, 574.08, 303)"><path class="b" d="M-5360.534,1516c2.915,4.571,14.775-10.625,24.534-8.666s7.666,15,14.5,16.5,28.832-15.168,28.832-15.168" transform="translate(5414.25 -1472)"/></g><g transform="translate(-10 -6)"><g class="h" transform="matrix(1, 0, 0, 1, 584.08, 309)"><circle class="c" cx="9" cy="9" r="9" transform="translate(46.92 35)"/></g><g class="g" transform="matrix(1, 0, 0, 1, 584.08, 309)"><g class="d" transform="translate(46.92 35)"><circle class="e" cx="9" cy="9" r="9"/><circle class="f" cx="9" cy="9" r="7.5"/></g></g></g></g></svg>