<svg xmlns="http://www.w3.org/2000/svg" xmlns:xlink="http://www.w3.org/1999/xlink" width="528.073" height="109" viewBox="0 0 528.073 109"><defs><style>.a{fill:#fff;}.b,.d{fill:#d8f6ff;}.b{opacity:0.4;}.c{fill:#004cff;opacity:0.5;}.e{fill:url(#a);}</style><linearGradient id="a" x1="0.5" x2="0.5" y2="1" gradientUnits="objectBoundingBox"><stop offset="0" stop-color="#fff"/><stop offset="1" stop-color="#fff"/></linearGradient></defs><g transform="translate(-1093.927 -1608)"><path class="a" d="M0,0S-2,9,15,8.333s479,0,495,0S528,0,528,0V94a15,15,0,0,1-15,15H15A15,15,0,0,1,0,94Z" transform="translate(1094 1608)"/><g transform="translate(1688.655 -328.669) rotate(45)"><rect class="b" width="23" height="65" rx="10" transform="translate(1200.471 1622.509) rotate(45)"/><circle class="c" cx="11" cy="11" r="11" transform="translate(1157 1628.174)"/><circle class="d" cx="11" cy="11" r="11" transform="translate(1185.121 1668.294) rotate(-45)"/><circle class="e" cx="4.5" cy="4.5" r="4.5" transform="translate(1163.2 1635.06)"/></g></g></svg>