<svg width="705" height="663" viewBox="0 0 705 663" fill="none" xmlns="http://www.w3.org/2000/svg">
<path opacity="0.35" d="M123.971 0C123.971 0 249.765 47.4 377.99 47.4C506.215 47.4 636.87 0 636.87 0C646.54 0 655.815 3.842 662.653 10.679C669.49 17.517 673.332 26.792 673.332 36.462C673.332 36.462 621.07 168.941 621.07 300.2C621.07 431.459 673.332 561.511 673.332 561.511C673.332 571.181 669.49 580.456 662.653 587.294C655.815 594.131 646.54 597.973 636.87 597.973C636.87 597.973 506.215 548.146 377.99 548.146C249.765 548.146 123.971 597.977 123.971 597.977C103.834 597.977 87.509 561.515 87.509 561.515C87.509 561.515 0 424.175 0 292.912C0 161.649 87.509 36.462 87.509 36.462C87.509 36.462 103.833 0 123.971 0Z" fill="url(#paint0_linear)"/>
<path opacity="0.9" d="M153.725 64.416C153.725 64.416 279.519 111.816 407.744 111.816C535.969 111.816 666.624 64.416 666.624 64.416C676.294 64.416 685.569 68.258 692.407 75.095C699.245 81.933 703.086 91.208 703.086 100.878C703.086 100.878 650.824 233.357 650.824 364.616C650.824 495.875 703.086 625.927 703.086 625.927C703.086 635.597 699.245 644.872 692.407 651.71C685.569 658.547 676.294 662.389 666.624 662.389C666.624 662.389 535.969 612.562 407.744 612.562C279.519 612.562 153.725 662.393 153.725 662.393C133.588 662.393 117.263 625.931 117.263 625.931C117.263 625.931 29.754 488.591 29.754 357.328C29.754 226.065 117.263 100.878 117.263 100.878C117.263 100.878 133.587 64.416 153.725 64.416Z" fill="white"/>
<path opacity="0.35" d="M131.807 70.932L87.594 95.32C82.758 97.987 81.001 104.069 83.668 108.905L163.236 253.157C165.904 257.993 171.987 259.751 176.823 257.083L221.035 232.696C225.871 230.028 227.63 223.946 224.962 219.11L145.394 74.8589C142.726 70.0229 136.643 68.264 131.807 70.932Z" fill="url(#paint1_linear)" fill-opacity="0.35"/>
<g opacity="0.1">
<path opacity="0.1" d="M651.53 364.754C569.805 364.332 528.943 264.072 556.276 197.017C565.259 169.441 584.819 146.557 610.661 133.391C636.502 120.224 666.512 117.852 694.102 126.795" fill="#D8F6FF"/>
<path opacity="0.1" d="M651.53 364.754C569.805 364.332 528.943 264.072 556.276 197.017C565.259 169.441 584.819 146.557 610.661 133.391C636.502 120.224 666.512 117.852 694.102 126.795" stroke="#215C78" stroke-width="70"/>
</g>
<path d="M202.507 233.266L190.383 240.266C187.992 241.647 187.172 244.705 188.553 247.096L197.553 262.685C198.934 265.076 201.992 265.895 204.383 264.515L216.507 257.515C218.899 256.134 219.718 253.076 218.338 250.685L209.338 235.096C207.957 232.705 204.899 231.885 202.507 233.266Z" fill="#A6ECFF"/>
<g opacity="0.1">
<path opacity="0.1" d="M636.115 419.846C554.39 419.425 513.527 319.164 540.861 252.109C549.844 224.533 569.404 201.649 595.245 188.483C621.087 175.317 651.097 172.944 678.686 181.887" fill="#D8F6FF"/>
<path opacity="0.1" d="M636.115 419.846C554.39 419.425 513.527 319.164 540.861 252.109C549.844 224.533 569.404 201.649 595.245 188.483C621.087 175.317 651.097 172.944 678.686 181.887" stroke="#215C78" stroke-width="70"/>
</g>
<path opacity="0.1" d="M478.285 64.1112C479.462 63.9263 480.677 63.9723 481.824 64.2471C482.973 64.5198 484.017 65.0132 484.865 65.6823C485.713 66.3503 486.338 67.1747 486.687 68.0787C487.035 68.9848 487.093 69.943 486.859 70.8705L441.654 249.38C441.396 250.398 440.791 251.344 439.905 252.115C439.019 252.885 437.883 253.451 436.621 253.753C435.359 254.055 434.015 254.081 432.735 253.827C431.455 253.575 430.288 253.053 429.355 252.317L248.134 109.448C247.201 108.712 246.539 107.791 246.219 106.783C245.898 105.773 245.93 104.715 246.314 103.72C246.695 102.724 247.414 101.829 248.391 101.131C249.367 100.432 250.567 99.9548 251.861 99.7515L478.285 64.1112Z" fill="#004CFF"/>
<defs>
<linearGradient id="paint0_linear" x1="336.666" y1="0" x2="336.666" y2="597.977" gradientUnits="userSpaceOnUse">
<stop stop-color="#00D4FF"/>
<stop offset="1" stop-color="#004CFF"/>
</linearGradient>
<linearGradient id="paint1_linear" x1="156.15" y1="70.066" x2="152.48" y2="257.95" gradientUnits="userSpaceOnUse">
<stop stop-color="#00D4FF"/>
<stop offset="1" stop-color="#004CFF"/>
</linearGradient>
</defs>
</svg>
