<svg xmlns="http://www.w3.org/2000/svg" xmlns:xlink="http://www.w3.org/1999/xlink" width="48" height="42" viewBox="0 0 48 42">
  <defs>
    <linearGradient id="linear-gradient" x1="-1.496" y1="-4.563" x2="1" y2="2.063" gradientUnits="objectBoundingBox">
      <stop offset="0" stop-color="#00edff"/>
      <stop offset="0.678" stop-color="#00b0ff"/>
      <stop offset="1" stop-color="#004cff"/>
    </linearGradient>
  </defs>
  <g id="customer" transform="translate(0 -32.631)">
    <circle id="Ellipse_553" data-name="Ellipse 553" cx="8" cy="8" r="8" transform="translate(15.932 32.631)" fill="url(#linear-gradient)"/>
    <circle id="Ellipse_554" data-name="Ellipse 554" cx="5" cy="5" r="5" transform="translate(35.864 38.631)" fill="url(#linear-gradient)"/>
    <ellipse id="Ellipse_555" data-name="Ellipse 555" cx="5.5" cy="5" rx="5.5" ry="5" transform="translate(2 38.631)" fill="url(#linear-gradient)"/>
    <path id="Path_7050" data-name="Path 7050" d="M12.616,241.985c-2.035-1.668-3.879-1.447-6.232-1.447A6.372,6.372,0,0,0,0,246.883V257.15A2.763,2.763,0,0,0,2.765,259.9c6.583,0,5.79.119,5.79-.284C8.555,252.346,7.694,247.01,12.616,241.985Z" transform="translate(0 -188.352)" fill="url(#linear-gradient)"/>
    <path id="Path_7051" data-name="Path 7051" d="M135.112,239.961c-4.089-.343-7.643,0-10.708,2.548-5.13,4.131-4.143,9.693-4.143,16.5a3.289,3.289,0,0,0,3.275,3.292c19.739,0,20.525.64,21.7-1.966.384-.881.279-.6.279-9.032C145.51,244.6,139.742,239.961,135.112,239.961Z" transform="translate(-108.885 -187.737)" fill="url(#linear-gradient)"/>
    <path id="Path_7052" data-name="Path 7052" d="M384.042,240.539c-2.366,0-4.2-.218-6.232,1.447,4.885,4.988,4.061,9.96,4.061,17.636,0,.406-.658.284,5.692.284a2.861,2.861,0,0,0,2.864-2.852v-10.17A6.372,6.372,0,0,0,384.042,240.539Z" transform="translate(-342.426 -188.353)" fill="url(#linear-gradient)"/>
  </g>
</svg>
