<svg id="Group_521" data-name="Group 521" xmlns="http://www.w3.org/2000/svg" width="45" height="45" viewBox="0 0 45 45">
  <circle id="Ellipse_95" data-name="Ellipse 95" cx="22.5" cy="22.5" r="22.5" fill="#455a64" opacity="0.15"/>
  <g id="Path_787" data-name="Path 787" transform="translate(4 4)" fill="#fff">
    <path d="M 18 35.65000152587891 C 13.28551959991455 35.65000152587891 8.85321044921875 33.81407928466797 5.519569873809814 30.48043060302734 C 2.185920000076294 27.14678955078125 0.3499999940395355 22.71447944641113 0.3499999940395355 18 C 0.3499999940395355 13.28551959991455 2.185920000076294 8.85321044921875 5.519569873809814 5.519569873809814 C 8.85321044921875 2.185920000076294 13.28551959991455 0.3499999940395355 18 0.3499999940395355 C 22.71447944641113 0.3499999940395355 27.14678955078125 2.185920000076294 30.48043060302734 5.519569873809814 C 33.81407928466797 8.85321044921875 35.65000152587891 13.28551959991455 35.65000152587891 18 C 35.65000152587891 22.71447944641113 33.81407928466797 27.14678955078125 30.48043060302734 30.48043060302734 C 27.14678955078125 33.81407928466797 22.71447944641113 35.65000152587891 18 35.65000152587891 Z" stroke="none"/>
    <path d="M 18 0.7000007629394531 C 13.37900924682617 0.7000007629394531 9.034589767456055 2.49951171875 5.767049789428711 5.767049789428711 C 2.49951171875 9.034589767456055 0.7000007629394531 13.37900924682617 0.7000007629394531 18 C 0.7000007629394531 22.62099075317383 2.49951171875 26.96541023254395 5.767049789428711 30.23295021057129 C 9.034589767456055 33.50048828125 13.37900924682617 35.29999923706055 18 35.29999923706055 C 22.62099075317383 35.29999923706055 26.96541023254395 33.50048828125 30.23295021057129 30.23295021057129 C 33.50048828125 26.96541023254395 35.29999923706055 22.62099075317383 35.29999923706055 18 C 35.29999923706055 13.37900924682617 33.50048828125 9.034589767456055 30.23295021057129 5.767049789428711 C 26.96541023254395 2.49951171875 22.62099075317383 0.7000007629394531 18 0.7000007629394531 M 18 0 C 27.94112014770508 0 36 8.058879852294922 36 18 C 36 27.94112014770508 27.94112014770508 36 18 36 C 8.058879852294922 36 0 27.94112014770508 0 18 C 0 8.058879852294922 8.058879852294922 0 18 0 Z" stroke="none" fill="#455a64"/>
  </g>
  <path id="Path_762" data-name="Path 762" d="M12.68,7.34V4.67A2.67,2.67,0,0,0,10.01,2H4.67A2.67,2.67,0,0,0,2,4.67V17.13A2.67,2.67,0,0,0,4.67,19.8h5.34a2.67,2.67,0,0,0,2.67-2.67V14.46M5.56,10.9H19.8m-3.56,3.56L19.8,10.9,16.24,7.34" transform="translate(11.35 11.35)" fill="none" stroke="#455a64" stroke-linecap="square" stroke-width="1" fill-rule="evenodd"/>
</svg>
