<svg xmlns="http://www.w3.org/2000/svg" width="45" height="45" viewBox="0 0 45 45">
  <g id="Group_522" data-name="Group 522" transform="translate(-1533 -165)">
    <circle id="Ellipse_93" data-name="Ellipse 93" cx="22.5" cy="22.5" r="22.5" transform="translate(1533 165)" fill="#455a64" opacity="0.15"/>
    <g id="Path_786" data-name="Path 786" transform="translate(1538 170)" fill="#fff">
      <path d="M 18 35.65000152587891 C 13.28551959991455 35.65000152587891 8.85321044921875 33.81407928466797 5.519569873809814 30.48043060302734 C 2.185920000076294 27.14678955078125 0.3499999940395355 22.71447944641113 0.3499999940395355 18 C 0.3499999940395355 13.28551959991455 2.185920000076294 8.85321044921875 5.519569873809814 5.519569873809814 C 8.85321044921875 2.185920000076294 13.28551959991455 0.3499999940395355 18 0.3499999940395355 C 22.71447944641113 0.3499999940395355 27.14678955078125 2.185920000076294 30.48043060302734 5.519569873809814 C 33.81407928466797 8.85321044921875 35.65000152587891 13.28551959991455 35.65000152587891 18 C 35.65000152587891 22.71447944641113 33.81407928466797 27.14678955078125 30.48043060302734 30.48043060302734 C 27.14678955078125 33.81407928466797 22.71447944641113 35.65000152587891 18 35.65000152587891 Z" stroke="none"/>
      <path d="M 18 0.7000007629394531 C 13.37900924682617 0.7000007629394531 9.034589767456055 2.49951171875 5.767049789428711 5.767049789428711 C 2.49951171875 9.034589767456055 0.7000007629394531 13.37900924682617 0.7000007629394531 18 C 0.7000007629394531 22.62099075317383 2.49951171875 26.96541023254395 5.767049789428711 30.23295021057129 C 9.034589767456055 33.50048828125 13.37900924682617 35.29999923706055 18 35.29999923706055 C 22.62099075317383 35.29999923706055 26.96541023254395 33.50048828125 30.23295021057129 30.23295021057129 C 33.50048828125 26.96541023254395 35.29999923706055 22.62099075317383 35.29999923706055 18 C 35.29999923706055 13.37900924682617 33.50048828125 9.034589767456055 30.23295021057129 5.767049789428711 C 26.96541023254395 2.49951171875 22.62099075317383 0.7000007629394531 18 0.7000007629394531 M 18 0 C 27.94112014770508 0 36 8.058879852294922 36 18 C 36 27.94112014770508 27.94112014770508 36 18 36 C 8.058879852294922 36 0 27.94112014770508 0 18 C 0 8.058879852294922 8.058879852294922 0 18 0 Z" stroke="none" fill="#455a64"/>
    </g>
    <path id="Path_761" data-name="Path 761" d="M11,13.7A2.7,2.7,0,1,0,8.3,11,2.7,2.7,0,0,0,11,13.7Zm6.055-.245a1.35,1.35,0,0,0,.269,1.489l.049.05a1.637,1.637,0,1,1-2.315,2.315l-.05-.049a1.36,1.36,0,0,0-2.307.965v.139a1.637,1.637,0,0,1-3.273,0v-.073a1.348,1.348,0,0,0-.884-1.236,1.348,1.348,0,0,0-1.489.269l-.049.049a1.637,1.637,0,1,1-2.316-2.316l.049-.049A1.361,1.361,0,0,0,3.777,12.7h-.14a1.636,1.636,0,0,1,0-3.272H3.71a1.418,1.418,0,0,0,.967-2.373l-.049-.049A1.637,1.637,0,1,1,6.942,4.692l.049.049a1.349,1.349,0,0,0,1.489.271h.066a1.353,1.353,0,0,0,.819-1.236v-.14a1.636,1.636,0,1,1,3.271,0V3.71a1.361,1.361,0,0,0,2.308.966l.05-.049a1.637,1.637,0,1,1,2.316,2.316l-.049.049a1.35,1.35,0,0,0-.27,1.49v.066a1.35,1.35,0,0,0,1.235.818h.14a1.636,1.636,0,0,1,0,3.272h-.074A1.349,1.349,0,0,0,17.055,13.455Z" transform="translate(1544.5 176.5)" fill="none" stroke="#455a64" stroke-linecap="square" stroke-width="1" fill-rule="evenodd"/>
  </g>
</svg>
