<svg xmlns="http://www.w3.org/2000/svg" xmlns:xlink="http://www.w3.org/1999/xlink" width="30" height="30" viewBox="0 0 30 30"><defs><style>.a{fill:#85979f;opacity:0.15;}.b{fill:#001243;}.c{filter:url(#a);}</style><filter id="a" x="4.439" y="7.494" width="20.524" height="20.706" filterUnits="userSpaceOnUse"><feOffset dy="1" input="SourceAlpha"/><feGaussianBlur stdDeviation="2" result="b"/><feFlood flood-color="#455a64" flood-opacity="0.102"/><feComposite operator="in" in2="b"/><feComposite in="SourceGraphic"/></filter></defs><g transform="translate(-1788 -588)"><g transform="translate(1788 588)"><circle class="a" cx="15" cy="15" r="15"/></g><g transform="translate(1799.047 594.372)"><path class="b" d="M73.7,1.158A.653.653,0,0,1,74.376.5h2.779a.653.653,0,0,1,.676.657v.72h.5v-.72A1.154,1.154,0,0,0,77.155,0H74.376A1.154,1.154,0,0,0,73.2,1.158v.72h.5Zm0,0" transform="translate(-71.748 2)"/><g class="c" transform="matrix(1, 0, 0, 1, -11.05, -6.37)"><path class="b" d="M29.286,132.706h6.35a1.089,1.089,0,0,0,1.087-1.108V124H28.2v7.6a1.089,1.089,0,0,0,1.087,1.108Zm4.886-7.531a.27.27,0,0,1,.537,0v5.815a.269.269,0,0,1-.537,0Zm-1.98,0a.269.269,0,0,1,.537,0v5.815a.269.269,0,0,1-.537,0Zm-1.98,0a.269.269,0,0,1,.537,0v5.815a.269.269,0,0,1-.537,0Zm0,0" transform="translate(-17.76 -111.51)"/></g><path class="b" d="M.729,69.975H10.58c.4,0,.729-.442.729-.987S10.982,68,10.58,68H.729c-.4,0-.729.442-.729.987S.326,69.975.729,69.975Zm0,0" transform="translate(-2 -64.643)"/></g></g></svg>