<svg xmlns="http://www.w3.org/2000/svg" width="49" height="41" viewBox="0 0 49 41">
  <g id="camera" transform="translate(0 -44.419)">
    <path id="Path_6971" data-name="Path 6971" d="M47.164,70.49v-7.2a1.1,1.1,0,0,0-1.1-1.1H42.379a1.1,1.1,0,0,0-1.1,1.1v7.2" transform="translate(-37.21 -16.014)" fill="#e5e9ea"/>
    <path id="Path_6972" data-name="Path 6972" d="M43.949,70.49V62.182h-1.57a1.1,1.1,0,0,0-1.1,1.1v7.2" transform="translate(-37.21 -16.014)" fill="#d1d1d1"/>
    <path id="Path_6973" data-name="Path 6973" d="M49,55.607v26.52a3.272,3.272,0,0,1-3.252,3.292H3.252A3.272,3.272,0,0,1,0,82.127V55.607a3.272,3.272,0,0,1,3.252-3.292h6.43A3.256,3.256,0,0,0,12.755,50.1l1.187-3.468a3.255,3.255,0,0,1,3.073-2.214h18.97a3.255,3.255,0,0,1,3.072,2.214L40.245,50.1a3.254,3.254,0,0,0,3.072,2.213h2.431A3.272,3.272,0,0,1,49,55.607Z" transform="translate(0 0)" fill="#fcb65f"/>
    <g id="Group_1911" data-name="Group 1911" transform="translate(0 44.419)">
      <path id="Path_6974" data-name="Path 6974" d="M5.969,159.552H3.346A3.346,3.346,0,0,1,0,156.207V129.256a3.346,3.346,0,0,1,3.346-3.346H5.762v.006a3.347,3.347,0,0,0-3.138,3.34v26.951A3.346,3.346,0,0,0,5.969,159.552Z" transform="translate(0 -118.552)" fill="#e29a4b"/>
      <path id="Path_6975" data-name="Path 6975" d="M114.8,44.419a3.346,3.346,0,0,0-3.162,2.25l-1.221,3.525a3.346,3.346,0,0,1-3.162,2.249h-2.245v-.022a3.345,3.345,0,0,0,2.783-2.227l1.221-3.525a3.346,3.346,0,0,1,3.162-2.25Z" transform="translate(-94.674 -44.419)" fill="#e29a4b"/>
    </g>
    <path id="Path_6976" data-name="Path 6976" d="M49,218.384v21.191a3.3,3.3,0,0,1-3.252,3.346H3.252A3.3,3.3,0,0,1,0,239.575V218.384Z" transform="translate(0 -157.502)" fill="#53bce9"/>
    <path id="Path_6977" data-name="Path 6977" d="M5.969,242.921H3.346A3.346,3.346,0,0,1,0,239.575V218.384H2.624v21.191A3.346,3.346,0,0,0,5.969,242.921Z" transform="translate(0 -157.502)" fill="#36a6ce"/>
    <ellipse id="Ellipse_466" data-name="Ellipse 466" cx="13.233" cy="13.94" rx="13.233" ry="13.94" transform="translate(11.267 54.401)" fill="#e5e9ea"/>
    <path id="Path_6978" data-name="Path 6978" d="M175.6,203.893a9.857,9.857,0,1,1-3.251-7.315A9.832,9.832,0,0,1,175.6,203.893Z" transform="translate(-141.246 -135.333)" fill="#566368"/>
    <g id="Group_1912" data-name="Group 1912" transform="translate(14.643 58.704)">
      <path id="Path_6979" data-name="Path 6979" d="M258.25,196.926a9.832,9.832,0,0,1,2.874,7.472,9.856,9.856,0,0,1-10.346-10.346A9.829,9.829,0,0,1,258.25,196.926Z" transform="translate(-241.425 -194.04)" fill="#6f7b7f"/>
      <path id="Path_6980" data-name="Path 6980" d="M163.38,291.8a9.832,9.832,0,0,1,2.874,7.472,9.854,9.854,0,0,1-10.346-10.346A9.827,9.827,0,0,1,163.38,291.8Z" transform="translate(-155.896 -279.568)" fill="#6f7b7f"/>
    </g>
    <g id="Group_1913" data-name="Group 1913" transform="translate(13.871 57.923)">
      <path id="Path_6981" data-name="Path 6981" d="M158.683,207.455a10.628,10.628,0,1,1,10.628-10.628A10.641,10.641,0,0,1,158.683,207.455Zm0-19.714a9.085,9.085,0,1,0,9.085,9.085A9.1,9.1,0,0,0,158.683,187.741Z" transform="translate(-148.055 -186.198)" fill="#435054"/>
      <path id="Path_6982" data-name="Path 6982" d="M219.769,253.955a3.957,3.957,0,1,0,3.957,3.957A3.961,3.961,0,0,0,219.769,253.955Z" transform="translate(-209.14 -247.283)" fill="#435054"/>
    </g>
    <path id="Path_6983" data-name="Path 6983" d="M293.64,77.1H299.7a1.443,1.443,0,0,0,1.443-1.443V74.069a1.443,1.443,0,0,0-1.443-1.443H293.64a1.443,1.443,0,0,0-1.443,1.443v1.588A1.444,1.444,0,0,0,293.64,77.1Z" transform="translate(-264.407 -25.43)" fill="#e5e9ea"/>
    <path id="Path_6984" data-name="Path 6984" d="M292.639,70.809h-6.064a2.218,2.218,0,0,1-2.215-2.215V67.005a2.218,2.218,0,0,1,2.215-2.215h6.064a2.218,2.218,0,0,1,2.215,2.215v1.588A2.218,2.218,0,0,1,292.639,70.809Zm-6.064-4.475a.673.673,0,0,0-.672.672v1.588a.672.672,0,0,0,.672.672h6.064a.673.673,0,0,0,.672-.672V67.005a.673.673,0,0,0-.672-.672Z" transform="translate(-257.352 -18.365)" fill="#e29a4b"/>
    <circle id="Ellipse_467" data-name="Ellipse 467" cx="2.79" cy="2.79" r="2.79" transform="translate(6.793 76.982)" fill="#566368"/>
  </g>
</svg>
