<svg xmlns="http://www.w3.org/2000/svg" width="30" height="30" viewBox="0 0 30 30"><defs><style>.a{fill:#85979f;opacity:0.15;}.b{fill:#001243;}</style></defs><g transform="translate(-1719 -571)"><g transform="translate(1719 571)"><circle class="a" cx="15" cy="15" r="15"/></g><g transform="translate(1725 581)"><path class="b" d="M17.933,111.947c-.142-.215-3.548-5.276-8.933-5.276-4.621,0-8.738,5.032-8.911,5.246a.407.407,0,0,0,0,.508c.173.215,4.291,5.246,8.911,5.246s8.738-5.032,8.911-5.246A.409.409,0,0,0,17.933,111.947ZM9,115.314a3.146,3.146,0,0,1,0-6.286,3.146,3.146,0,0,1,0,6.286Z" transform="translate(0 -106.671)"/></g></g></svg>