<svg xmlns="http://www.w3.org/2000/svg" xmlns:xlink="http://www.w3.org/1999/xlink" width="240.325" height="285" viewBox="0 0 240.325 285">
  <defs>
    <filter id="Path_6929" x="177.965" y="27.795" width="41.562" height="34.903" filterUnits="userSpaceOnUse">
      <feOffset dy="4" input="SourceAlpha"/>
      <feGaussianBlur stdDeviation="3" result="blur"/>
      <feFlood flood-color="#455a64" flood-opacity="0.149"/>
      <feComposite operator="in" in2="blur"/>
      <feComposite in="SourceGraphic"/>
    </filter>
  </defs>
  <g id="Group_2990" data-name="Group 2990" transform="translate(11117 11214)">
    <g id="surface1" transform="translate(-11098 -11155)" opacity="0.15">
      <path id="Path_6923" data-name="Path 6923" d="M183.305,150.921a113.985,113.985,0,0,1-27.386,42.542c-13.751,13.39-31.759,24.031-53.521,31.621a16.416,16.416,0,0,1-5.2.915H97a16.65,16.65,0,0,1-3.192-.314,17.336,17.336,0,0,1-2.194-.6c-21.789-7.578-39.818-18.213-53.583-31.6a113.769,113.769,0,0,1-27.381-42.534C-.409,121.02.22,88.045.727,61.547l.009-.407c.1-2.188.168-4.486.2-7.025A23.983,23.983,0,0,1,23.558,30.65C49.616,29.2,69.773,20.726,87,3.985l.151-.138a14.548,14.548,0,0,1,19.71,0l.147.138C124.232,20.726,144.39,29.2,170.448,30.65a23.983,23.983,0,0,1,22.618,23.465c.036,2.555.1,4.85.2,7.025l.005.172C193.78,87.861,194.406,120.9,183.305,150.921Zm0,0" transform="translate(-0.5 0)" fill="#3370ff"/>
      <path id="Path_6924" data-name="Path 6924" d="M305.813,150.923a113.882,113.882,0,0,1-27.626,42.542c-13.872,13.391-32.037,24.031-53.991,31.621a16.689,16.689,0,0,1-5.247.915V0a14.761,14.761,0,0,1,9.745,3.845l.148.138c17.378,16.741,37.714,25.215,64,26.665a24.079,24.079,0,0,1,22.817,23.465c.037,2.555.1,4.85.206,7.025l.005.172C316.38,87.863,317.012,120.9,305.813,150.923Zm0,0" transform="translate(-123.097 -0.002)" fill="#004cff"/>
      <path id="Path_6925" data-name="Path 6925" d="M203.16,184.986c0,31.135-25.076,56.478-55.935,56.589h-.2c-30.949,0-56.134-25.387-56.134-56.589S116.079,128.4,147.028,128.4h.2C178.084,128.509,203.16,153.853,203.16,184.986Zm0,0" transform="translate(-50.529 -71.986)" fill="#fff"/>
      <path id="Path_6926" data-name="Path 6926" d="M275.728,184.986c0,31.135-25.455,56.478-56.779,56.589V128.4C250.273,128.509,275.728,153.853,275.728,184.986Zm0,0" transform="translate(-122.601 -71.986)" fill="#e1ebf0"/>
      <path id="Path_6927" data-name="Path 6927" d="M208.763,223.431,183.1,249.1l-5.545,5.545a6.715,6.715,0,0,1-9.491,0l-11.922-11.927a6.707,6.707,0,1,1,9.485-9.486l7.183,7.183,26.466-26.466a6.707,6.707,0,1,1,9.485,9.485Zm0,0" transform="translate(-86.396 -118.675)" fill="#b4d2d7"/>
      <path id="Path_6928" data-name="Path 6928" d="M244.611,223.431,218.949,249.1V230.121l16.177-16.175a6.707,6.707,0,1,1,9.485,9.485Zm0,0" transform="translate(-122.392 -118.622)" fill="#6fa5aa"/>
    </g>
    <g id="surface1-2" data-name="surface1" transform="translate(-11117 -11155)">
      <path id="Path_6923-2" data-name="Path 6923" d="M183.305,150.921a113.986,113.986,0,0,1-27.386,42.542c-13.751,13.39-31.759,24.031-53.521,31.621a16.419,16.419,0,0,1-5.2.915H97a16.651,16.651,0,0,1-3.192-.314,17.325,17.325,0,0,1-2.194-.6c-21.789-7.578-39.818-18.213-53.584-31.6a113.769,113.769,0,0,1-27.381-42.534C-.409,121.02.22,88.045.727,61.547l.009-.407c.1-2.188.168-4.486.2-7.025A23.983,23.983,0,0,1,23.558,30.65C49.616,29.2,69.773,20.726,87,3.985l.151-.138a14.548,14.548,0,0,1,19.71,0l.147.138C124.232,20.726,144.39,29.2,170.448,30.65a23.983,23.983,0,0,1,22.618,23.465c.036,2.555.1,4.85.2,7.025l.005.172C193.78,87.861,194.406,120.9,183.305,150.921Zm0,0" transform="translate(-0.5 0)" fill="#3370ff"/>
      <path id="Path_6924-2" data-name="Path 6924" d="M305.813,150.923a113.882,113.882,0,0,1-27.626,42.542c-13.872,13.391-32.037,24.031-53.991,31.621a16.69,16.69,0,0,1-5.247.915V0a14.761,14.761,0,0,1,9.745,3.845l.148.138c17.378,16.741,37.714,25.215,64,26.665a24.079,24.079,0,0,1,22.817,23.465c.037,2.555.1,4.85.206,7.025l.005.172C316.38,87.863,317.012,120.9,305.813,150.923Zm0,0" transform="translate(-123.098 -0.002)" fill="#004cff"/>
      <path id="Path_6925-2" data-name="Path 6925" d="M203.16,184.941c0,31.11-25.076,56.434-55.935,56.545h-.2c-30.949,0-56.134-25.367-56.134-56.545S116.079,128.4,147.028,128.4h.2C178.084,128.509,203.16,153.833,203.16,184.941Zm0,0" transform="translate(-50.53 -71.941)" fill="#fff"/>
      <path id="Path_6926-2" data-name="Path 6926" d="M275.728,184.941c0,31.11-25.455,56.434-56.779,56.545V128.4C250.273,128.509,275.728,153.833,275.728,184.941Zm0,0" transform="translate(-122.602 -71.941)" fill="#e1ebf0"/>
      <path id="Path_6927-2" data-name="Path 6927" d="M208.763,223.431,183.1,249.1l-5.545,5.545a6.715,6.715,0,0,1-9.491,0l-11.922-11.927a6.707,6.707,0,1,1,9.485-9.486l7.183,7.183,26.466-26.466a6.707,6.707,0,1,1,9.485,9.485Zm0,0" transform="translate(-86.396 -118.675)" fill="#b4d2d7"/>
      <path id="Path_6928-2" data-name="Path 6928" d="M244.611,223.431,218.949,249.1V230.121l16.177-16.175a6.707,6.707,0,1,1,9.485,9.485Zm0,0" transform="translate(-122.392 -118.622)" fill="#6fa5aa"/>
    </g>
    <g id="Group_1873" data-name="Group 1873" transform="translate(-10959.675 -11214)">
      <rect id="Rectangle_1135" data-name="Rectangle 1135" width="60.76" height="60.76" rx="20" transform="translate(0 30.38) rotate(-30)" fill="#d8e3ff"/>
      <rect id="Rectangle_1136" data-name="Rectangle 1136" width="34.72" height="34.72" rx="10" transform="translate(17.873 35.572) rotate(-30)" fill="#fff"/>
      <g transform="matrix(1, 0, 0, 1, -157.33, 0)" filter="url(#Path_6929)">
        <path id="Path_6929-2" data-name="Path 6929" d="M23.319,6.5,10.037,19.782,4,13.745" transform="translate(185.09 28.42)" fill="none" stroke="#004cff" stroke-linecap="round" stroke-linejoin="round" stroke-width="3" fill-rule="evenodd"/>
      </g>
    </g>
  </g>
</svg>
