<svg xmlns="http://www.w3.org/2000/svg" xmlns:xlink="http://www.w3.org/1999/xlink" width="1393" height="324.014" viewBox="0 0 1393 324.014"><defs><style>.a{fill:url(#a);}.b{fill:#00abff;}.c{fill:none;stroke:#00edff;stroke-width:70px;opacity:0.3;}.d{opacity:0.7;}.d,.f,.g,.h{fill:url(#b);}.e{opacity:0.8;fill:url(#c);}.f{opacity:0.9;}.g{opacity:0.6;}.h{opacity:0.4;}</style><linearGradient id="a" x1="1.199" y1="-0.201" x2="-0.441" y2="1.356" gradientUnits="objectBoundingBox"><stop offset="0" stop-color="#00d4ff"/><stop offset="0.01" stop-color="#00b8ff"/><stop offset="1" stop-color="#007aff"/><stop offset="1" stop-color="#004cff"/></linearGradient><linearGradient id="b" x1="0.5" x2="0.5" y2="1" gradientUnits="objectBoundingBox"><stop offset="0" stop-color="#f4f5f7"/><stop offset="1" stop-color="#00edff"/></linearGradient><linearGradient id="c" x1="0.5" x2="0.5" y2="1.468" gradientUnits="objectBoundingBox"><stop offset="0" stop-color="#00edff"/><stop offset="0.042" stop-color="#00edff"/><stop offset="1" stop-color="#f4f5f7"/></linearGradient></defs><g transform="translate(0 6.014)"><rect class="a" width="1389" height="303" rx="20" transform="translate(0 15)"/><path class="b" d="M0,0H1311a0,0,0,0,1,0,0V7a0,0,0,0,1,0,0H7A7,7,0,0,1,0,0V0A0,0,0,0,1,0,0Z" transform="translate(30 311)"/><path class="c" d="M11.19,181.766c63.492,5.436,100.582-44.03,96.6-98.578C107.788,37.649,67.969,3.545,24.961,0" transform="matrix(0.087, 0.996, -0.996, 0.087, 780.507, -11.147)"/><path class="d" d="M16.984,21.043c11.663,0,19.45-.387,19.3.726,0,9.406-9.9,17.031-19.3,17.031A17.031,17.031,0,0,1-.047,21.769c0-.109.343,1.539,0,.774a1.21,1.21,0,0,1,0-1.21C-.026,20.8,2.619,21.043,16.984,21.043Z" transform="translate(671.927 -6.234)"/><g transform="translate(-50 -212)"><path class="e" d="M64.4,18.605a7,7,0,0,1,13.195,0L91.723,58.438a7,7,0,0,0,1.846,2.8l30.2,27.907a7,7,0,0,1-6.118,12.006l-45.28-9.013a7,7,0,0,0-2.733,0l-45.28,9.013a7,7,0,0,1-6.118-12.006l30.2-27.907a7,7,0,0,0,1.846-2.8Z" transform="translate(1337 513) rotate(-90)"/><rect class="f" width="52" height="52" rx="26" transform="translate(1140 416)"/><rect class="g" width="15" height="15" rx="7.5" transform="translate(1085 435)"/><rect class="h" width="10" height="10" rx="5" transform="translate(1035 438)"/><rect class="h" width="15" height="15" rx="7" transform="translate(1232 435)"/><rect class="h" width="10" height="10" rx="5" transform="translate(1287 438)"/></g></g></svg>