<svg xmlns="http://www.w3.org/2000/svg" xmlns:xlink="http://www.w3.org/1999/xlink" width="140" height="136" viewBox="0 0 140 136">
  <defs>
    <filter id="Ellipse_488" x="0" y="0" width="135" height="136" filterUnits="userSpaceOnUse">
      <feOffset dy="5" input="SourceAlpha"/>
      <feGaussianBlur stdDeviation="10" result="blur"/>
      <feFlood flood-opacity="0.102"/>
      <feComposite operator="in" in2="blur"/>
      <feComposite in="SourceGraphic"/>
    </filter>
    <linearGradient id="linear-gradient" x1="0.5" x2="0.5" y2="1" gradientUnits="objectBoundingBox">
      <stop offset="0" stop-color="#0af"/>
      <stop offset="1" stop-color="#004cff"/>
    </linearGradient>
    <filter id="Ellipse_487" x="10" y="3" width="130" height="132" filterUnits="userSpaceOnUse">
      <feOffset dy="5" input="SourceAlpha"/>
      <feGaussianBlur stdDeviation="10" result="blur-2"/>
      <feFlood flood-color="#030b20" flood-opacity="0.102"/>
      <feComposite operator="in" in2="blur-2"/>
      <feComposite in="SourceGraphic"/>
    </filter>
    <filter id="Polygon_3" x="61.5" y="44.5" width="35" height="44" filterUnits="userSpaceOnUse">
      <feOffset dy="3" input="SourceAlpha"/>
      <feGaussianBlur stdDeviation="2.5" result="blur-3"/>
      <feFlood flood-opacity="0.051"/>
      <feComposite operator="in" in2="blur-3"/>
      <feComposite in="SourceGraphic"/>
    </filter>
  </defs>
  <g id="Group_1971" data-name="Group 1971" transform="translate(-630 -1208)">
    <g id="Group_1970" data-name="Group 1970" transform="translate(660 1233)">
      <g transform="matrix(1, 0, 0, 1, -30, -25)" filter="url(#Ellipse_488)">
        <ellipse id="Ellipse_488-2" data-name="Ellipse 488" cx="37.5" cy="38" rx="37.5" ry="38" transform="translate(30 25)" fill="#fff"/>
      </g>
      <g transform="matrix(1, 0, 0, 1, -30, -25)" filter="url(#Ellipse_487)">
        <ellipse id="Ellipse_487-2" data-name="Ellipse 487" cx="35" cy="36" rx="35" ry="36" transform="translate(40 28)" fill="url(#linear-gradient)"/>
      </g>
    </g>
    <g id="Component_36_22" data-name="Component 36 – 22" transform="translate(699.344 1286) rotate(-90)">
      <g transform="matrix(0, 1, -1, 0, 78, -69.34)" filter="url(#Polygon_3)">
        <path id="Polygon_3-2" data-name="Polygon 3" d="M11.262,4.467a4,4,0,0,1,6.477,0L24.4,13.652A4,4,0,0,1,21.159,20H7.841A4,4,0,0,1,4.6,13.652Z" transform="translate(89 49) rotate(90)" fill="#fff"/>
      </g>
    </g>
  </g>
</svg>
