<svg xmlns="http://www.w3.org/2000/svg" width="43" height="50" viewBox="0 0 43 50"><defs><style>.a{fill:#00dd80;}.b{fill:#00aa63;}.c{fill:#fff;}.d{fill:#e1ebf0;}.e{fill:#b4d2d7;}.f{fill:#6fa5aa;}</style></defs><g transform="translate(-0.5 0)"><path class="a" d="M41.229,33.39a25.2,25.2,0,0,1-6.1,9.412,32,32,0,0,1-11.924,7,3.68,3.68,0,0,1-1.159.2H22a3.735,3.735,0,0,1-.711-.069A3.883,3.883,0,0,1,20.8,49.8,32,32,0,0,1,8.862,42.807a25.152,25.152,0,0,1-6.1-9.41C.3,26.774.438,19.479.551,13.617l0-.09c.023-.484.037-.993.045-1.554A5.323,5.323,0,0,1,5.637,6.781,20.868,20.868,0,0,0,19.771.882l.034-.031a3.258,3.258,0,0,1,4.391,0l.033.031a20.872,20.872,0,0,0,14.135,5.9A5.323,5.323,0,0,1,43.4,11.973c.008.565.023,1.073.045,1.554v.038C43.563,19.438,43.7,26.748,41.229,33.39Zm0,0" transform="translate(0 0)"/><path class="b" d="M238.2,33.393a25.191,25.191,0,0,1-6.122,9.412,32.134,32.134,0,0,1-11.965,7,3.7,3.7,0,0,1-1.163.2V0a3.274,3.274,0,0,1,2.16.851l.033.031a20.979,20.979,0,0,0,14.183,5.9,5.331,5.331,0,0,1,5.056,5.191c.008.565.023,1.073.046,1.554v.038C240.541,19.442,240.681,26.751,238.2,33.393Zm0,0" transform="translate(-196.978 -0.003)"/><path class="c" d="M116,141.025a12.607,12.607,0,0,1-12.51,12.628h-.044a12.628,12.628,0,0,1,0-25.255h.044A12.607,12.607,0,0,1,116,141.025Zm0,0" transform="translate(-81.449 -116.025)"/><path class="d" d="M231.532,141.025a12.643,12.643,0,0,1-12.583,12.628V128.4A12.643,12.643,0,0,1,231.532,141.025Zm0,0" transform="translate(-196.935 -116.025)"/><path class="e" d="M166.274,214.518l-5.687,5.688-1.229,1.229a1.488,1.488,0,0,1-2.1,0l-2.642-2.643a1.486,1.486,0,1,1,2.1-2.1l1.592,1.592,5.865-5.865a1.486,1.486,0,0,1,2.1,2.1Zm0,0" transform="translate(-138.543 -191.345)"/><path class="f" d="M224.636,214.518l-5.687,5.688V216l3.585-3.584a1.486,1.486,0,0,1,2.1,2.1Zm0,0" transform="translate(-196.917 -191.332)"/></g></svg>