<svg xmlns="http://www.w3.org/2000/svg" xmlns:xlink="http://www.w3.org/1999/xlink" width="180" height="180" viewBox="0 0 180 180"><defs><style>.a{fill:#7482eb;}.b{fill:#fff;}.c{filter:url(#c);}.d{filter:url(#a);}</style><filter id="a" x="0" y="0" width="180" height="180" filterUnits="userSpaceOnUse"><feOffset dy="10" input="SourceAlpha"/><feGaussianBlur stdDeviation="20" result="b"/><feFlood flood-color="#7482eb" flood-opacity="0.102"/><feComposite operator="in" in2="b"/><feComposite in="SourceGraphic"/></filter><filter id="c" x="68" y="58.48" width="45" height="47" filterUnits="userSpaceOnUse"><feOffset dy="2" input="SourceAlpha"/><feGaussianBlur stdDeviation="2" result="d"/><feFlood flood-color="#455a64" flood-opacity="0.2"/><feComposite operator="in" in2="d"/><feComposite in="SourceGraphic"/></filter></defs><g transform="translate(-260 -5869)"><g class="d" transform="matrix(1, 0, 0, 1, 260, 5869)"><circle class="a" cx="30" cy="30" r="30" transform="translate(60 50)"/></g><g transform="translate(327.396 5931.48)"><g transform="translate(6.604)"><g class="c" transform="matrix(1, 0, 0, 1, -74, -62.48)"><path class="b" d="M39.6,17.96A16.591,16.591,0,0,0,23.741,2.271V.618a.6.6,0,1,0-1.2,0V2.269A16.589,16.589,0,0,0,6.605,17.96a.618.618,0,0,0,.42.626.59.59,0,0,0,.689-.27,4.7,4.7,0,0,1,8.371.479.59.59,0,0,0,1.089,0,6.486,6.486,0,0,1,5.372-3.866V30.676a3.127,3.127,0,0,1-.876,2.184,2.921,2.921,0,0,1-4.227,0,3.128,3.128,0,0,1-.876-2.184.6.6,0,1,0-1.2,0,4.187,4.187,0,1,0,8.369,0V14.937a6.488,6.488,0,0,1,5.294,3.857.59.59,0,0,0,1.088,0,4.7,4.7,0,0,1,8.371-.479.59.59,0,0,0,.689.27A.619.619,0,0,0,39.6,17.96Zm-22.58-7.8a33.331,33.331,0,0,0-.945,6.46A5.842,5.842,0,0,0,8.034,16.1,15.4,15.4,0,0,1,20.047,3.8a8.27,8.27,0,0,0-.685.85A17.109,17.109,0,0,0,17.023,10.164Zm6.081,3.5a7.624,7.624,0,0,0-5.814,2.7,27.31,27.31,0,0,1,1.9-8.9,9.569,9.569,0,0,1,1.886-2.982,3.818,3.818,0,0,1,1.018-.746,2.229,2.229,0,0,1,2.019,0,4.871,4.871,0,0,1,1.765,1.643,15.9,15.9,0,0,1,2.15,5.1,31.792,31.792,0,0,1,.886,5.88A7.624,7.624,0,0,0,23.1,13.667Zm11.328,1.07a5.856,5.856,0,0,0-4.3,1.888,28.825,28.825,0,0,0-2.019-9.669A11.167,11.167,0,0,0,26.158,3.8a15.4,15.4,0,0,1,12.015,12.3A5.836,5.836,0,0,0,34.432,14.737Z" transform="translate(67.4 62.48)"/></g></g></g></g></svg>