<svg width="481" height="252" viewBox="0 0 481 252" fill="none" xmlns="http://www.w3.org/2000/svg">
<g filter="url(#filter0_d)">
<path d="M70.7409 19.578H438.034V177.991C438.034 179.85 437.267 181.632 435.9 182.947C434.533 184.262 432.68 185 430.747 185H78.0285C76.0957 185 74.2421 184.262 72.8754 182.947C71.5087 181.632 70.7409 179.85 70.7409 177.991V19.578Z" fill="white"/>
</g>
<path d="M90.9917 39.5988C90.9917 40.2269 90.886 40.7757 90.6747 41.2453C90.4634 41.7119 90.164 42.0685 89.7766 42.315C89.3892 42.5616 88.9372 42.6848 88.4207 42.6848C87.9159 42.6848 87.4683 42.5616 87.078 42.315C86.6876 42.0656 86.3839 41.7119 86.1667 41.2541C85.9524 40.7933 85.8424 40.2606 85.8365 39.656V39.1938C85.8365 38.5774 85.9436 38.033 86.1579 37.5605C86.3721 37.088 86.6744 36.727 87.0648 36.4775C87.458 36.2251 87.9071 36.0989 88.4119 36.0989C88.9255 36.0989 89.3775 36.2236 89.7678 36.4731C90.1611 36.7196 90.4634 37.0791 90.6747 37.5517C90.886 38.0213 90.9917 38.5686 90.9917 39.1938V39.5988ZM90.1508 39.185C90.1508 38.4248 89.9982 37.8422 89.693 37.4372C89.3878 37.0293 88.9607 36.8253 88.4119 36.8253C87.8777 36.8253 87.4566 37.0293 87.1484 37.4372C86.8432 37.8422 86.6862 38.4057 86.6774 39.1277V39.5988C86.6774 40.3354 86.8314 40.9151 87.1396 41.3377C87.4507 41.7574 87.8777 41.9673 88.4207 41.9673C88.9666 41.9673 89.3892 41.7692 89.6886 41.3729C89.9879 40.9738 90.142 40.4029 90.1508 39.6604V39.185ZM96.1557 40.2679C96.1557 40.9929 95.9899 41.5769 95.6582 42.0201C95.3266 42.4633 94.8775 42.6848 94.3111 42.6848C93.7329 42.6848 93.278 42.5014 92.9463 42.1346V44.4282H92.1319V37.8334H92.8759L92.9155 38.3617C93.2472 37.9508 93.708 37.7454 94.2979 37.7454C94.8702 37.7454 95.3222 37.9611 95.6538 38.3925C95.9884 38.824 96.1557 39.4242 96.1557 40.1931V40.2679ZM95.3412 40.1755C95.3412 39.6384 95.2268 39.2143 94.9979 38.9032C94.7689 38.5921 94.4549 38.4366 94.0557 38.4366C93.5627 38.4366 93.1929 38.6552 92.9463 39.0925V41.3685C93.1899 41.8029 93.5627 42.0201 94.0646 42.0201C94.4549 42.0201 94.7645 41.866 94.9935 41.5578C95.2253 41.2467 95.3412 40.786 95.3412 40.1755ZM99.1713 42.6848C98.5256 42.6848 98.0003 42.4735 97.5953 42.0509C97.1902 41.6253 96.9877 41.0574 96.9877 40.3472V40.1975C96.9877 39.725 97.0772 39.3038 97.2563 38.934C97.4382 38.5613 97.6906 38.2707 98.0135 38.0623C98.3393 37.851 98.6915 37.7454 99.0701 37.7454C99.6893 37.7454 100.171 37.9494 100.514 38.3573C100.857 38.7653 101.029 39.3493 101.029 40.1095V40.4484H97.8022C97.8139 40.918 97.9504 41.2981 98.2116 41.5887C98.4757 41.8763 98.8103 42.0201 99.2153 42.0201C99.503 42.0201 99.7466 41.9614 99.9461 41.844C100.146 41.7266 100.32 41.571 100.47 41.3773L100.967 41.7648C100.568 42.3782 99.9696 42.6848 99.1713 42.6848ZM99.0701 38.4145C98.7413 38.4145 98.4655 38.5349 98.2424 38.7755C98.0194 39.0133 97.8814 39.3478 97.8286 39.7793H100.215V39.7176C100.191 39.3038 100.08 38.9839 99.8801 38.7579C99.6805 38.529 99.4105 38.4145 99.0701 38.4145ZM102.746 37.8334L102.772 38.4321C103.136 37.9743 103.612 37.7454 104.199 37.7454C105.206 37.7454 105.713 38.3133 105.722 39.4491V42.5968H104.908V39.4447C104.905 39.1013 104.825 38.8474 104.67 38.6831C104.517 38.5187 104.278 38.4366 103.952 38.4366C103.688 38.4366 103.456 38.507 103.257 38.6479C103.057 38.7887 102.902 38.9736 102.79 39.2026V42.5968H101.976V37.8334H102.746ZM110.16 40.0874V42.5968H109.314V36.1869H111.678C112.38 36.1869 112.929 36.366 113.325 36.724C113.724 37.0821 113.924 37.5561 113.924 38.146C113.924 38.7682 113.729 39.2481 113.338 39.5856C112.951 39.9202 112.395 40.0874 111.67 40.0874H110.16ZM110.16 39.3963H111.678C112.13 39.3963 112.477 39.2906 112.717 39.0793C112.958 38.865 113.078 38.5569 113.078 38.1548C113.078 37.7733 112.958 37.468 112.717 37.2391C112.477 37.0102 112.147 36.8913 111.727 36.8825H110.16V39.3963ZM114.597 40.1711C114.597 39.7044 114.688 39.2847 114.87 38.912C115.055 38.5393 115.31 38.2516 115.636 38.0491C115.965 37.8466 116.339 37.7454 116.759 37.7454C117.407 37.7454 117.931 37.9699 118.33 38.4189C118.733 38.868 118.934 39.4652 118.934 40.2107V40.2679C118.934 40.7317 118.844 41.1484 118.665 41.5182C118.489 41.8851 118.235 42.1712 117.903 42.3767C117.575 42.5821 117.196 42.6848 116.768 42.6848C116.122 42.6848 115.598 42.4603 115.196 42.0113C114.797 41.5622 114.597 40.9679 114.597 40.2283V40.1711ZM115.416 40.2679C115.416 40.7962 115.538 41.2203 115.782 41.5402C116.028 41.8601 116.357 42.0201 116.768 42.0201C117.181 42.0201 117.51 41.8587 117.754 41.5358C117.997 41.2101 118.119 40.7551 118.119 40.1711C118.119 39.6487 117.994 39.226 117.745 38.9032C117.498 38.5774 117.17 38.4145 116.759 38.4145C116.357 38.4145 116.032 38.5745 115.786 38.8944C115.539 39.2143 115.416 39.6722 115.416 40.2679ZM122.728 41.3333C122.728 41.1132 122.645 40.943 122.478 40.8226C122.313 40.6994 122.024 40.5937 121.61 40.5057C121.199 40.4176 120.872 40.312 120.629 40.1887C120.388 40.0654 120.209 39.9187 120.091 39.7485C119.977 39.5782 119.92 39.3757 119.92 39.1409C119.92 38.7506 120.084 38.4204 120.413 38.1504C120.744 37.8804 121.167 37.7454 121.681 37.7454C122.221 37.7454 122.658 37.8848 122.993 38.1636C123.33 38.4424 123.499 38.799 123.499 39.2334H122.68C122.68 39.0103 122.585 38.8181 122.394 38.6567C122.206 38.4952 121.968 38.4145 121.681 38.4145C121.384 38.4145 121.152 38.4791 120.985 38.6082C120.818 38.7374 120.734 38.9061 120.734 39.1145C120.734 39.3112 120.812 39.4594 120.968 39.5592C121.123 39.6589 121.403 39.7543 121.808 39.8453C122.216 39.9363 122.547 40.0449 122.799 40.1711C123.051 40.2973 123.238 40.4499 123.358 40.6289C123.481 40.805 123.543 41.0207 123.543 41.2761C123.543 41.7017 123.373 42.0436 123.032 42.3018C122.692 42.5572 122.25 42.6848 121.707 42.6848C121.326 42.6848 120.988 42.6173 120.695 42.4823C120.401 42.3473 120.171 42.1595 120.003 41.9188C119.839 41.6752 119.757 41.4126 119.757 41.1308H120.571C120.586 41.4038 120.695 41.6209 120.897 41.7824C121.103 41.9408 121.373 42.0201 121.707 42.0201C122.015 42.0201 122.262 41.9585 122.447 41.8352C122.635 41.709 122.728 41.5417 122.728 41.3333ZM125.489 42.5968H124.674V37.8334H125.489V42.5968ZM124.608 36.5699C124.608 36.4379 124.648 36.3263 124.727 36.2354C124.809 36.1444 124.93 36.0989 125.088 36.0989C125.247 36.0989 125.367 36.1444 125.449 36.2354C125.531 36.3263 125.572 36.4379 125.572 36.5699C125.572 36.702 125.531 36.8121 125.449 36.9001C125.367 36.9882 125.247 37.0322 125.088 37.0322C124.93 37.0322 124.809 36.9882 124.727 36.9001C124.648 36.8121 124.608 36.702 124.608 36.5699ZM127.901 36.68V37.8334H128.791V38.463H127.901V41.417C127.901 41.6077 127.941 41.7515 128.02 41.8484C128.099 41.9423 128.234 41.9893 128.425 41.9893C128.519 41.9893 128.648 41.9717 128.813 41.9364V42.5968C128.598 42.6555 128.39 42.6848 128.187 42.6848C127.823 42.6848 127.549 42.5748 127.364 42.3547C127.179 42.1346 127.087 41.822 127.087 41.417V38.463H126.22V37.8334H127.087V36.68H127.901ZM130.631 42.5968H129.816V37.8334H130.631V42.5968ZM129.75 36.5699C129.75 36.4379 129.79 36.3263 129.869 36.2354C129.951 36.1444 130.072 36.0989 130.23 36.0989C130.389 36.0989 130.509 36.1444 130.591 36.2354C130.673 36.3263 130.714 36.4379 130.714 36.5699C130.714 36.702 130.673 36.8121 130.591 36.9001C130.509 36.9882 130.389 37.0322 130.23 37.0322C130.072 37.0322 129.951 36.9882 129.869 36.9001C129.79 36.8121 129.75 36.702 129.75 36.5699ZM131.723 40.1711C131.723 39.7044 131.814 39.2847 131.995 38.912C132.18 38.5393 132.436 38.2516 132.761 38.0491C133.09 37.8466 133.464 37.7454 133.884 37.7454C134.533 37.7454 135.057 37.9699 135.456 38.4189C135.858 38.868 136.059 39.4652 136.059 40.2107V40.2679C136.059 40.7317 135.969 41.1484 135.79 41.5182C135.614 41.8851 135.36 42.1712 135.029 42.3767C134.7 42.5821 134.321 42.6848 133.893 42.6848C133.247 42.6848 132.723 42.4603 132.321 42.0113C131.922 41.5622 131.723 40.9679 131.723 40.2283V40.1711ZM132.541 40.2679C132.541 40.7962 132.663 41.2203 132.907 41.5402C133.153 41.8601 133.482 42.0201 133.893 42.0201C134.307 42.0201 134.635 41.8587 134.879 41.5358C135.123 41.2101 135.244 40.7551 135.244 40.1711C135.244 39.6487 135.12 39.226 134.87 38.9032C134.624 38.5774 134.295 38.4145 133.884 38.4145C133.482 38.4145 133.158 38.5745 132.911 38.8944C132.665 39.2143 132.541 39.6722 132.541 40.2679ZM137.851 37.8334L137.877 38.4321C138.241 37.9743 138.716 37.7454 139.303 37.7454C140.31 37.7454 140.818 38.3133 140.827 39.4491V42.5968H140.012V39.4447C140.009 39.1013 139.93 38.8474 139.774 38.6831C139.622 38.5187 139.383 38.4366 139.057 38.4366C138.793 38.4366 138.561 38.507 138.361 38.6479C138.162 38.7887 138.006 38.9736 137.895 39.2026V42.5968H137.08V37.8334H137.851ZM144.828 41.3333C144.828 41.1132 144.745 40.943 144.577 40.8226C144.413 40.6994 144.124 40.5937 143.71 40.5057C143.299 40.4176 142.972 40.312 142.728 40.1887C142.488 40.0654 142.309 39.9187 142.191 39.7485C142.077 39.5782 142.02 39.3757 142.02 39.1409C142.02 38.7506 142.184 38.4204 142.513 38.1504C142.844 37.8804 143.267 37.7454 143.781 37.7454C144.321 37.7454 144.758 37.8848 145.093 38.1636C145.43 38.4424 145.599 38.799 145.599 39.2334H144.78C144.78 39.0103 144.685 38.8181 144.494 38.6567C144.306 38.4952 144.068 38.4145 143.781 38.4145C143.484 38.4145 143.252 38.4791 143.085 38.6082C142.918 38.7374 142.834 38.9061 142.834 39.1145C142.834 39.3112 142.912 39.4594 143.067 39.5592C143.223 39.6589 143.503 39.7543 143.908 39.8453C144.316 39.9363 144.646 40.0449 144.899 40.1711C145.151 40.2973 145.338 40.4499 145.458 40.6289C145.581 40.805 145.643 41.0207 145.643 41.2761C145.643 41.7017 145.473 42.0436 145.132 42.3018C144.792 42.5572 144.35 42.6848 143.807 42.6848C143.426 42.6848 143.088 42.6173 142.795 42.4823C142.501 42.3473 142.271 42.1595 142.103 41.9188C141.939 41.6752 141.857 41.4126 141.857 41.1308H142.671C142.686 41.4038 142.795 41.6209 142.997 41.7824C143.202 41.9408 143.472 42.0201 143.807 42.0201C144.115 42.0201 144.362 41.9585 144.547 41.8352C144.735 41.709 144.828 41.5417 144.828 41.3333ZM152.973 40.2679C152.973 40.9958 152.806 41.5813 152.471 42.0245C152.136 42.4647 151.687 42.6848 151.124 42.6848C150.522 42.6848 150.057 42.4721 149.728 42.0465L149.689 42.5968H148.94V35.8347H149.755V38.3573C150.083 37.9494 150.537 37.7454 151.115 37.7454C151.693 37.7454 152.147 37.964 152.475 38.4013C152.807 38.8386 152.973 39.4374 152.973 40.1975V40.2679ZM152.158 40.1755C152.158 39.6208 152.051 39.1923 151.837 38.89C151.623 38.5877 151.315 38.4366 150.913 38.4366C150.375 38.4366 149.989 38.686 149.755 39.185V41.2453C150.004 41.7442 150.393 41.9937 150.921 41.9937C151.312 41.9937 151.615 41.8425 151.833 41.5402C152.05 41.2379 152.158 40.783 152.158 40.1755ZM155.509 41.4038L156.618 37.8334H157.49L155.575 43.332C155.278 44.1244 154.807 44.5206 154.161 44.5206L154.007 44.5074L153.704 44.4502V43.7898L153.924 43.8075C154.2 43.8075 154.414 43.7517 154.566 43.6402C154.722 43.5286 154.85 43.3247 154.95 43.0282L155.13 42.544L153.431 37.8334H154.32L155.509 41.4038ZM160.585 42.5968V36.1869H162.394C162.952 36.1869 163.445 36.3102 163.873 36.5567C164.302 36.8033 164.632 37.154 164.864 37.6089C165.098 38.0638 165.217 38.5862 165.22 39.1762V39.5856C165.22 40.1902 165.103 40.7199 164.868 41.1748C164.636 41.6297 164.303 41.979 163.869 42.2226C163.437 42.4662 162.934 42.5909 162.359 42.5968H160.585ZM161.43 36.8825V41.9056H162.319C162.971 41.9056 163.477 41.7031 163.838 41.2981C164.202 40.8931 164.384 40.3164 164.384 39.568V39.1938C164.384 38.4659 164.212 37.9009 163.869 37.4988C163.528 37.0938 163.044 36.8884 162.416 36.8825H161.43ZM168.35 42.6848C167.705 42.6848 167.179 42.4735 166.774 42.0509C166.369 41.6253 166.167 41.0574 166.167 40.3472V40.1975C166.167 39.725 166.256 39.3038 166.435 38.934C166.617 38.5613 166.87 38.2707 167.193 38.0623C167.518 37.851 167.87 37.7454 168.249 37.7454C168.868 37.7454 169.35 37.9494 169.693 38.3573C170.036 38.7653 170.208 39.3493 170.208 40.1095V40.4484H166.981C166.993 40.918 167.129 41.2981 167.391 41.5887C167.655 41.8763 167.989 42.0201 168.394 42.0201C168.682 42.0201 168.926 41.9614 169.125 41.844C169.325 41.7266 169.499 41.571 169.649 41.3773L170.147 41.7648C169.747 42.3782 169.149 42.6848 168.35 42.6848ZM168.249 38.4145C167.92 38.4145 167.645 38.5349 167.421 38.7755C167.198 39.0133 167.06 39.3478 167.008 39.7793H169.394V39.7176C169.37 39.3038 169.259 38.9839 169.059 38.7579C168.86 38.529 168.59 38.4145 168.249 38.4145ZM175.178 40.2679C175.178 40.9929 175.013 41.5769 174.681 42.0201C174.349 42.4633 173.9 42.6848 173.334 42.6848C172.756 42.6848 172.301 42.5014 171.969 42.1346V44.4282H171.155V37.8334H171.899L171.938 38.3617C172.27 37.9508 172.731 37.7454 173.321 37.7454C173.893 37.7454 174.345 37.9611 174.677 38.3925C175.011 38.824 175.178 39.4242 175.178 40.1931V40.2679ZM174.364 40.1755C174.364 39.6384 174.25 39.2143 174.021 38.9032C173.792 38.5921 173.478 38.4366 173.079 38.4366C172.585 38.4366 172.216 38.6552 171.969 39.0925V41.3685C172.213 41.8029 172.585 42.0201 173.087 42.0201C173.478 42.0201 173.787 41.866 174.016 41.5578C174.248 41.2467 174.364 40.786 174.364 40.1755ZM179.158 42.5968C179.111 42.5029 179.073 42.3356 179.044 42.0949C178.665 42.4882 178.213 42.6848 177.688 42.6848C177.218 42.6848 176.832 42.5528 176.53 42.2886C176.231 42.0216 176.081 41.684 176.081 41.2761C176.081 40.7801 176.269 40.3956 176.644 40.1227C177.023 39.8468 177.554 39.7088 178.238 39.7088H179.031V39.3346C179.031 39.0499 178.945 38.824 178.775 38.6567C178.605 38.4864 178.354 38.4013 178.022 38.4013C177.732 38.4013 177.488 38.4747 177.292 38.6215C177.095 38.7682 176.997 38.9458 176.997 39.1541H176.178C176.178 38.9164 176.261 38.6875 176.429 38.4674C176.599 38.2443 176.828 38.0682 177.116 37.9391C177.406 37.8099 177.724 37.7454 178.071 37.7454C178.62 37.7454 179.05 37.8833 179.361 38.1592C179.672 38.4321 179.833 38.8093 179.845 39.2906V41.483C179.845 41.9203 179.901 42.2681 180.012 42.5264V42.5968H179.158ZM177.807 41.9761C178.062 41.9761 178.304 41.91 178.533 41.778C178.762 41.6459 178.928 41.4742 179.031 41.2629V40.2856H178.392C177.394 40.2856 176.895 40.5776 176.895 41.1616C176.895 41.417 176.98 41.6165 177.151 41.7603C177.321 41.9042 177.54 41.9761 177.807 41.9761ZM183.424 38.5642C183.301 38.5437 183.167 38.5334 183.023 38.5334C182.489 38.5334 182.127 38.7609 181.936 39.2158V42.5968H181.122V37.8334H181.914L181.927 38.3837C182.194 37.9582 182.573 37.7454 183.063 37.7454C183.222 37.7454 183.342 37.7659 183.424 37.807V38.5642ZM185.502 36.68V37.8334H186.391V38.463H185.502V41.417C185.502 41.6077 185.542 41.7515 185.621 41.8484C185.7 41.9423 185.835 41.9893 186.026 41.9893C186.12 41.9893 186.249 41.9717 186.413 41.9364V42.5968C186.199 42.6555 185.991 42.6848 185.788 42.6848C185.424 42.6848 185.15 42.5748 184.965 42.3547C184.78 42.1346 184.688 41.822 184.688 41.417V38.463H183.82V37.8334H184.688V36.68H185.502ZM188.113 37.8334L188.135 38.3617C188.484 37.9508 188.955 37.7454 189.548 37.7454C190.214 37.7454 190.668 38.0007 190.908 38.5114C191.067 38.2825 191.272 38.0976 191.525 37.9567C191.78 37.8158 192.081 37.7454 192.427 37.7454C193.472 37.7454 194.003 38.2986 194.021 39.4051V42.5968H193.206V39.4535C193.206 39.113 193.128 38.8592 192.973 38.6919C192.817 38.5217 192.556 38.4366 192.189 38.4366C191.887 38.4366 191.636 38.5275 191.436 38.7095C191.237 38.8885 191.121 39.1307 191.089 39.4359V42.5968H190.27V39.4755C190.27 38.7829 189.931 38.4366 189.253 38.4366C188.719 38.4366 188.353 38.664 188.157 39.1189V42.5968H187.342V37.8334H188.113ZM197.23 42.6848C196.584 42.6848 196.059 42.4735 195.654 42.0509C195.249 41.6253 195.046 41.0574 195.046 40.3472V40.1975C195.046 39.725 195.136 39.3038 195.315 38.934C195.497 38.5613 195.749 38.2707 196.072 38.0623C196.398 37.851 196.75 37.7454 197.129 37.7454C197.748 37.7454 198.229 37.9494 198.573 38.3573C198.916 38.7653 199.088 39.3493 199.088 40.1095V40.4484H195.861C195.873 40.918 196.009 41.2981 196.27 41.5887C196.534 41.8763 196.869 42.0201 197.274 42.0201C197.562 42.0201 197.805 41.9614 198.005 41.844C198.204 41.7266 198.379 41.571 198.529 41.3773L199.026 41.7648C198.627 42.3782 198.028 42.6848 197.23 42.6848ZM197.129 38.4145C196.8 38.4145 196.524 38.5349 196.301 38.7755C196.078 39.0133 195.94 39.3478 195.887 39.7793H198.273V39.7176C198.25 39.3038 198.138 38.9839 197.939 38.7579C197.739 38.529 197.469 38.4145 197.129 38.4145ZM200.805 37.8334L200.831 38.4321C201.195 37.9743 201.671 37.7454 202.258 37.7454C203.264 37.7454 203.772 38.3133 203.781 39.4491V42.5968H202.966V39.4447C202.963 39.1013 202.884 38.8474 202.729 38.6831C202.576 38.5187 202.337 38.4366 202.011 38.4366C201.747 38.4366 201.515 38.507 201.315 38.6479C201.116 38.7887 200.96 38.9736 200.849 39.2026V42.5968H200.034V37.8334H200.805ZM206.114 36.68V37.8334H207.003V38.463H206.114V41.417C206.114 41.6077 206.154 41.7515 206.233 41.8484C206.312 41.9423 206.447 41.9893 206.638 41.9893C206.732 41.9893 206.861 41.9717 207.025 41.9364V42.5968C206.811 42.6555 206.603 42.6848 206.4 42.6848C206.036 42.6848 205.762 42.5748 205.577 42.3547C205.392 42.1346 205.3 41.822 205.3 41.417V38.463H204.432V37.8334H205.3V36.68H206.114Z" fill="#030B20"/>
<path d="M94.79 93.1768C96.8024 93.1768 98.4337 91.6077 98.4337 89.6721C98.4337 87.7365 96.8024 86.1674 94.79 86.1674C92.7776 86.1674 91.1462 87.7365 91.1462 89.6721C91.1462 91.6077 92.7776 93.1768 94.79 93.1768Z" fill="#FF0000"/>
<path d="M109.105 88.0429H106.985L106.509 89.3636H105.82L107.753 84.3032H108.337L110.273 89.3636H109.588L109.105 88.0429ZM107.186 87.4937H108.907L108.045 85.1269L107.186 87.4937ZM110.697 87.452C110.697 86.8751 110.833 86.4117 111.107 86.0618C111.38 85.7096 111.738 85.5335 112.181 85.5335C112.621 85.5335 112.97 85.6841 113.227 85.9853V84.0251H113.87V89.3636H113.279L113.248 88.9604C112.991 89.2755 112.633 89.4331 112.174 89.4331C111.738 89.4331 111.383 89.2547 111.107 88.8979C110.833 88.541 110.697 88.0753 110.697 87.5007V87.452ZM111.34 87.525C111.34 87.9513 111.428 88.285 111.604 88.526C111.78 88.7669 112.023 88.8874 112.334 88.8874C112.741 88.8874 113.039 88.7044 113.227 88.3383V86.6109C113.035 86.2564 112.739 86.0792 112.341 86.0792C112.026 86.0792 111.78 86.2008 111.604 86.4441C111.428 86.6874 111.34 87.0477 111.34 87.525ZM115.476 85.603L115.493 86.0201C115.769 85.6957 116.141 85.5335 116.609 85.5335C117.135 85.5335 117.493 85.7351 117.683 86.1383C117.808 85.9575 117.97 85.8116 118.169 85.7003C118.371 85.5891 118.608 85.5335 118.882 85.5335C119.707 85.5335 120.126 85.9703 120.14 86.8438V89.3636H119.497V86.882C119.497 86.6133 119.435 86.4128 119.313 86.2808C119.19 86.1464 118.984 86.0792 118.694 86.0792C118.455 86.0792 118.257 86.151 118.1 86.2947C117.942 86.436 117.851 86.6272 117.825 86.8681V89.3636H117.179V86.8994C117.179 86.3526 116.911 86.0792 116.376 86.0792C115.954 86.0792 115.666 86.2587 115.51 86.6179V89.3636H114.867V85.603H115.476ZM121.812 89.3636H121.169V85.603H121.812V89.3636ZM121.116 84.6055C121.116 84.5013 121.148 84.4132 121.21 84.3414C121.275 84.2696 121.37 84.2337 121.495 84.2337C121.62 84.2337 121.715 84.2696 121.78 84.3414C121.845 84.4132 121.878 84.5013 121.878 84.6055C121.878 84.7098 121.845 84.7967 121.78 84.8662C121.715 84.9357 121.62 84.9705 121.495 84.9705C121.37 84.9705 121.275 84.9357 121.21 84.8662C121.148 84.7967 121.116 84.7098 121.116 84.6055ZM123.452 85.603L123.473 86.0757C123.76 85.7142 124.136 85.5335 124.599 85.5335C125.394 85.5335 125.795 85.9819 125.801 86.8786V89.3636H125.159V86.8751C125.156 86.604 125.094 86.4036 124.971 86.2738C124.85 86.1441 124.662 86.0792 124.404 86.0792C124.196 86.0792 124.013 86.1348 123.855 86.246C123.698 86.3572 123.575 86.5032 123.487 86.6839V89.3636H122.844V85.603H123.452ZM128.512 87.3095C128.512 86.7859 128.582 86.2831 128.721 85.8011C128.862 85.3192 129.072 84.8813 129.35 84.4874C129.628 84.0935 129.917 83.8154 130.215 83.6532L130.348 84.0773C130.009 84.3368 129.731 84.733 129.513 85.2659C129.298 85.7988 129.18 86.3955 129.159 87.0558L129.155 87.3512C129.155 88.2456 129.319 89.0218 129.645 89.6799C129.842 90.0738 130.076 90.3819 130.348 90.6044L130.215 90.9971C129.907 90.8256 129.613 90.5383 129.333 90.1352C128.786 89.3474 128.512 88.4055 128.512 87.3095ZM133.427 84.2997V84.8454H133.309C132.808 84.8546 132.41 85.0029 132.113 85.2902C131.817 85.5775 131.645 85.9819 131.599 86.5032C131.865 86.1973 132.229 86.0444 132.69 86.0444C133.13 86.0444 133.481 86.1997 133.743 86.5101C134.007 86.8206 134.139 87.2215 134.139 87.7127C134.139 88.234 133.997 88.6511 133.712 88.9639C133.429 89.2767 133.049 89.4331 132.572 89.4331C132.088 89.4331 131.695 89.2477 131.394 88.877C131.092 88.504 130.942 88.0243 130.942 87.4381V87.1914C130.942 86.2599 131.14 85.5486 131.536 85.0574C131.935 84.5638 132.527 84.3113 133.312 84.2997H133.427ZM132.582 86.5797C132.362 86.5797 132.159 86.6457 131.974 86.7778C131.789 86.9098 131.66 87.0755 131.588 87.2748V87.5111C131.588 87.9282 131.682 88.2641 131.87 88.519C132.058 88.7739 132.292 88.9013 132.572 88.9013C132.862 88.9013 133.089 88.7948 133.253 88.5816C133.42 88.3684 133.503 88.0892 133.503 87.744C133.503 87.3964 133.419 87.1161 133.25 86.9029C133.083 86.6874 132.86 86.5797 132.582 86.5797ZM135.196 86.8264L135.453 84.3032H138.046V84.8975H135.999L135.846 86.2773C136.094 86.1313 136.375 86.0583 136.69 86.0583C137.152 86.0583 137.518 86.2112 137.789 86.5171C138.06 86.8206 138.195 87.2319 138.195 87.7509C138.195 88.2723 138.054 88.6835 137.771 88.9847C137.491 89.2836 137.098 89.4331 136.593 89.4331C136.146 89.4331 135.781 89.3091 135.498 89.0612C135.216 88.8133 135.055 88.4704 135.015 88.0324H135.623C135.663 88.3221 135.766 88.541 135.933 88.6893C136.1 88.8353 136.32 88.9083 136.593 88.9083C136.892 88.9083 137.126 88.8063 137.295 88.6024C137.467 88.3985 137.552 88.117 137.552 87.7579C137.552 87.4196 137.46 87.1485 137.274 86.9446C137.091 86.7384 136.847 86.6353 136.541 86.6353C136.261 86.6353 136.04 86.6967 135.881 86.8195L135.71 86.9585L135.196 86.8264ZM140.448 87.3443C140.448 87.861 140.379 88.3568 140.242 88.8318C140.108 89.3045 139.901 89.7413 139.62 90.1421C139.342 90.543 139.05 90.828 138.744 90.9971L138.609 90.6044C138.966 90.331 139.252 89.9069 139.467 89.3323C139.685 88.7554 139.796 88.1159 139.801 87.4138V87.3026C139.801 86.816 139.75 86.3642 139.648 85.9471C139.546 85.5277 139.404 85.1524 139.221 84.821C139.04 84.4897 138.836 84.2313 138.609 84.046L138.744 83.6532C139.05 83.8224 139.341 84.1051 139.617 84.5013C139.895 84.8975 140.102 85.3342 140.239 85.8116C140.378 86.2889 140.448 86.7998 140.448 87.3443ZM144.615 87.525C144.615 88.0973 144.484 88.5584 144.222 88.9083C143.96 89.2582 143.606 89.4331 143.158 89.4331C142.702 89.4331 142.343 89.2883 142.081 88.9987V90.8094H141.438V85.603H142.025L142.057 86.0201C142.319 85.6957 142.682 85.5335 143.148 85.5335C143.6 85.5335 143.957 85.7038 144.219 86.0444C144.483 86.385 144.615 86.8589 144.615 87.4659V87.525ZM143.972 87.452C143.972 87.028 143.881 86.6932 143.701 86.4476C143.52 86.202 143.272 86.0792 142.957 86.0792C142.568 86.0792 142.276 86.2518 142.081 86.597V88.3939C142.273 88.7368 142.568 88.9083 142.964 88.9083C143.272 88.9083 143.516 88.7866 143.697 88.5434C143.88 88.2977 143.972 87.934 143.972 87.452ZM145.265 87.4485C145.265 87.0801 145.336 86.7488 145.48 86.4545C145.626 86.1603 145.828 85.9332 146.085 85.7733C146.344 85.6135 146.64 85.5335 146.971 85.5335C147.483 85.5335 147.897 85.7108 148.212 86.0653C148.529 86.4198 148.688 86.8913 148.688 87.4798V87.525C148.688 87.8911 148.617 88.2201 148.476 88.5121C148.337 88.8017 148.137 89.0276 147.875 89.1898C147.615 89.352 147.316 89.4331 146.978 89.4331C146.468 89.4331 146.055 89.2558 145.737 88.9013C145.422 88.5468 145.265 88.0776 145.265 87.4937V87.4485ZM145.911 87.525C145.911 87.9421 146.007 88.2769 146.2 88.5295C146.394 88.782 146.654 88.9083 146.978 88.9083C147.305 88.9083 147.564 88.7808 147.757 88.526C147.949 88.2688 148.045 87.9096 148.045 87.4485C148.045 87.0361 147.947 86.7025 147.75 86.4476C147.555 86.1904 147.296 86.0618 146.971 86.0618C146.654 86.0618 146.398 86.1881 146.203 86.4406C146.008 86.6932 145.911 87.0547 145.911 87.525ZM151.684 88.3661C151.684 88.1923 151.618 88.0579 151.486 87.9629C151.356 87.8656 151.128 87.7822 150.801 87.7127C150.477 87.6432 150.218 87.5598 150.026 87.4625C149.836 87.3651 149.695 87.2493 149.602 87.1149C149.512 86.9805 149.467 86.8206 149.467 86.6353C149.467 86.3271 149.596 86.0664 149.856 85.8533C150.118 85.6401 150.451 85.5335 150.857 85.5335C151.283 85.5335 151.628 85.6436 151.893 85.8637C152.159 86.0838 152.292 86.3653 152.292 86.7083H151.646C151.646 86.5322 151.57 86.3804 151.42 86.253C151.272 86.1255 151.084 86.0618 150.857 86.0618C150.623 86.0618 150.44 86.1128 150.308 86.2147C150.176 86.3167 150.11 86.4499 150.11 86.6144C150.11 86.7697 150.171 86.8867 150.294 86.9654C150.417 87.0442 150.638 87.1195 150.958 87.1914C151.28 87.2632 151.54 87.3489 151.74 87.4485C151.939 87.5482 152.086 87.6687 152.181 87.81C152.278 87.949 152.327 88.1193 152.327 88.3209C152.327 88.6569 152.193 88.9268 151.924 89.1307C151.655 89.3323 151.306 89.4331 150.878 89.4331C150.576 89.4331 150.31 89.3798 150.078 89.2732C149.847 89.1666 149.665 89.0183 149.533 88.8283C149.403 88.636 149.338 88.4287 149.338 88.2062H149.981C149.993 88.4217 150.078 88.5932 150.238 88.7206C150.4 88.8457 150.614 88.9083 150.878 88.9083C151.121 88.9083 151.316 88.8596 151.462 88.7623C151.61 88.6627 151.684 88.5306 151.684 88.3661ZM153.863 89.3636H153.22V85.603H153.863V89.3636ZM153.168 84.6055C153.168 84.5013 153.199 84.4132 153.262 84.3414C153.327 84.2696 153.422 84.2337 153.547 84.2337C153.672 84.2337 153.767 84.2696 153.832 84.3414C153.897 84.4132 153.929 84.5013 153.929 84.6055C153.929 84.7098 153.897 84.7967 153.832 84.8662C153.767 84.9357 153.672 84.9705 153.547 84.9705C153.422 84.9705 153.327 84.9357 153.262 84.8662C153.199 84.7967 153.168 84.7098 153.168 84.6055ZM155.768 84.6924V85.603H156.47V86.1H155.768V88.4321C155.768 88.5827 155.799 88.6963 155.862 88.7727C155.924 88.8469 156.031 88.884 156.181 88.884C156.256 88.884 156.357 88.8701 156.487 88.8423V89.3636C156.318 89.4099 156.154 89.4331 155.994 89.4331C155.706 89.4331 155.49 89.3462 155.344 89.1724C155.198 88.9987 155.125 88.7519 155.125 88.4321V86.1H154.44V85.603H155.125V84.6924H155.768ZM157.923 89.3636H157.28V85.603H157.923V89.3636ZM157.228 84.6055C157.228 84.5013 157.259 84.4132 157.321 84.3414C157.386 84.2696 157.481 84.2337 157.606 84.2337C157.732 84.2337 157.827 84.2696 157.891 84.3414C157.956 84.4132 157.989 84.5013 157.989 84.6055C157.989 84.7098 157.956 84.7967 157.891 84.8662C157.827 84.9357 157.732 84.9705 157.606 84.9705C157.481 84.9705 157.386 84.9357 157.321 84.8662C157.259 84.7967 157.228 84.7098 157.228 84.6055ZM158.785 87.4485C158.785 87.0801 158.856 86.7488 159 86.4545C159.146 86.1603 159.348 85.9332 159.605 85.7733C159.864 85.6135 160.16 85.5335 160.491 85.5335C161.003 85.5335 161.417 85.7108 161.732 86.0653C162.049 86.4198 162.208 86.8913 162.208 87.4798V87.525C162.208 87.8911 162.137 88.2201 161.996 88.5121C161.857 88.8017 161.657 89.0276 161.395 89.1898C161.135 89.352 160.836 89.4331 160.498 89.4331C159.988 89.4331 159.575 89.2558 159.257 88.9013C158.942 88.5468 158.785 88.0776 158.785 87.4937V87.4485ZM159.431 87.525C159.431 87.9421 159.527 88.2769 159.72 88.5295C159.914 88.782 160.174 88.9083 160.498 88.9083C160.825 88.9083 161.084 88.7808 161.277 88.526C161.469 88.2688 161.565 87.9096 161.565 87.4485C161.565 87.0361 161.467 86.7025 161.27 86.4476C161.075 86.1904 160.815 86.0618 160.491 86.0618C160.174 86.0618 159.918 86.1881 159.723 86.4406C159.528 86.6932 159.431 87.0547 159.431 87.525ZM163.623 85.603L163.643 86.0757C163.931 85.7142 164.306 85.5335 164.77 85.5335C165.564 85.5335 165.965 85.9819 165.972 86.8786V89.3636H165.329V86.8751C165.327 86.604 165.264 86.4036 165.141 86.2738C165.021 86.1441 164.832 86.0792 164.575 86.0792C164.366 86.0792 164.183 86.1348 164.026 86.246C163.868 86.3572 163.745 86.5032 163.657 86.6839V89.3636H163.014V85.603H163.623ZM169.131 88.3661C169.131 88.1923 169.065 88.0579 168.933 87.9629C168.803 87.8656 168.575 87.7822 168.249 87.7127C167.924 87.6432 167.666 87.5598 167.474 87.4625C167.284 87.3651 167.142 87.2493 167.049 87.1149C166.959 86.9805 166.914 86.8206 166.914 86.6353C166.914 86.3271 167.044 86.0664 167.303 85.8533C167.565 85.6401 167.899 85.5335 168.304 85.5335C168.731 85.5335 169.076 85.6436 169.34 85.8637C169.606 86.0838 169.74 86.3653 169.74 86.7083H169.093C169.093 86.5322 169.018 86.3804 168.867 86.253C168.719 86.1255 168.531 86.0618 168.304 86.0618C168.07 86.0618 167.887 86.1128 167.755 86.2147C167.623 86.3167 167.557 86.4499 167.557 86.6144C167.557 86.7697 167.618 86.8867 167.741 86.9654C167.864 87.0442 168.085 87.1195 168.405 87.1914C168.727 87.2632 168.988 87.3489 169.187 87.4485C169.386 87.5482 169.533 87.6687 169.628 87.81C169.726 87.949 169.774 88.1193 169.774 88.3209C169.774 88.6569 169.64 88.9268 169.371 89.1307C169.102 89.3323 168.754 89.4331 168.325 89.4331C168.024 89.4331 167.757 89.3798 167.526 89.2732C167.294 89.1666 167.112 89.0183 166.98 88.8283C166.85 88.636 166.785 88.4287 166.785 88.2062H167.428C167.44 88.4217 167.526 88.5932 167.686 88.7206C167.848 88.8457 168.061 88.9083 168.325 88.9083C168.568 88.9083 168.763 88.8596 168.909 88.7623C169.057 88.6627 169.131 88.5306 169.131 88.3661Z" fill="#030B20"/>
<path d="M337.467 93.1768C339.48 93.1768 341.111 91.6077 341.111 89.6721C341.111 87.7365 339.48 86.1674 337.467 86.1674C335.455 86.1674 333.823 87.7365 333.823 89.6721C333.823 91.6077 335.455 93.1768 337.467 93.1768Z" fill="url(#paint0_linear)"/>
<path d="M349.848 84.3032L351.503 88.4321L353.157 84.3032H354.022V89.3636H353.355V87.3929L353.418 85.2659L351.756 89.3636H351.245L349.588 85.2763L349.654 87.3929V89.3636H348.986V84.3032H349.848ZM357.421 89.3636C357.384 89.2894 357.354 89.1574 357.331 88.9674C357.032 89.2779 356.675 89.4331 356.261 89.4331C355.89 89.4331 355.585 89.3288 355.347 89.1203C355.11 88.9094 354.992 88.643 354.992 88.3209C354.992 87.9293 355.14 87.6258 355.437 87.4103C355.736 87.1925 356.155 87.0836 356.695 87.0836H357.321V86.7882C357.321 86.5634 357.253 86.385 357.119 86.253C356.985 86.1186 356.787 86.0514 356.525 86.0514C356.295 86.0514 356.103 86.1093 355.948 86.2252C355.793 86.341 355.715 86.4812 355.715 86.6457H355.068C355.068 86.458 355.135 86.2773 355.267 86.1035C355.401 85.9274 355.582 85.7884 355.809 85.6864C356.038 85.5845 356.29 85.5335 356.563 85.5335C356.996 85.5335 357.336 85.6424 357.581 85.8602C357.827 86.0757 357.954 86.3734 357.964 86.7534V88.4843C357.964 88.8295 358.008 89.1041 358.096 89.308V89.3636H357.421ZM356.354 88.8735C356.556 88.8735 356.747 88.8214 356.928 88.7171C357.109 88.6129 357.24 88.4773 357.321 88.3105V87.5389H356.817C356.029 87.5389 355.635 87.7695 355.635 88.2306C355.635 88.4321 355.702 88.5897 355.837 88.7032C355.971 88.8168 356.144 88.8735 356.354 88.8735ZM360.789 86.18C360.692 86.1637 360.587 86.1556 360.473 86.1556C360.051 86.1556 359.765 86.3352 359.615 86.6944V89.3636H358.972V85.603H359.597L359.608 86.0375C359.818 85.7015 360.117 85.5335 360.504 85.5335C360.629 85.5335 360.724 85.5497 360.789 85.5822V86.18ZM362.433 87.6223L362.03 88.0429V89.3636H361.387V84.0251H362.03V87.2539L362.374 86.8403L363.545 85.603H364.327L362.864 87.174L364.498 89.3636H363.743L362.433 87.6223ZM366.482 89.4331C365.972 89.4331 365.558 89.2663 365.238 88.9326C364.918 88.5966 364.758 88.1483 364.758 87.5876V87.4694C364.758 87.0964 364.829 86.7639 364.97 86.4719C365.114 86.1777 365.313 85.9483 365.568 85.7838C365.825 85.6169 366.103 85.5335 366.402 85.5335C366.891 85.5335 367.271 85.6945 367.542 86.0166C367.813 86.3387 367.949 86.7998 367.949 87.3999V87.6675H365.401C365.411 88.0382 365.518 88.3383 365.725 88.5677C365.933 88.7948 366.197 88.9083 366.517 88.9083C366.744 88.9083 366.936 88.8619 367.094 88.7693C367.251 88.6766 367.389 88.5538 367.508 88.4009L367.9 88.7067C367.585 89.191 367.112 89.4331 366.482 89.4331ZM366.402 86.0618C366.143 86.0618 365.925 86.1568 365.749 86.3468C365.573 86.5345 365.464 86.7986 365.422 87.1392H367.306V87.0906C367.287 86.7639 367.199 86.5113 367.042 86.3329C366.884 86.1522 366.671 86.0618 366.402 86.0618ZM369.569 84.6924V85.603H370.271V86.1H369.569V88.4321C369.569 88.5827 369.6 88.6963 369.662 88.7727C369.725 88.8469 369.832 88.884 369.982 88.884C370.056 88.884 370.158 88.8701 370.288 88.8423V89.3636C370.119 89.4099 369.954 89.4331 369.794 89.4331C369.507 89.4331 369.29 89.3462 369.145 89.1724C368.999 88.9987 368.926 88.7519 368.926 88.4321V86.1H368.241V85.603H368.926V84.6924H369.569ZM371.723 89.3636H371.08V85.603H371.723V89.3636ZM371.028 84.6055C371.028 84.5013 371.06 84.4132 371.122 84.3414C371.187 84.2696 371.282 84.2337 371.407 84.2337C371.532 84.2337 371.627 84.2696 371.692 84.3414C371.757 84.4132 371.789 84.5013 371.789 84.6055C371.789 84.7098 371.757 84.7967 371.692 84.8662C371.627 84.9357 371.532 84.9705 371.407 84.9705C371.282 84.9705 371.187 84.9357 371.122 84.8662C371.06 84.7967 371.028 84.7098 371.028 84.6055ZM373.364 85.603L373.385 86.0757C373.672 85.7142 374.047 85.5335 374.511 85.5335C375.306 85.5335 375.706 85.9819 375.713 86.8786V89.3636H375.07V86.8751C375.068 86.604 375.005 86.4036 374.883 86.2738C374.762 86.1441 374.573 86.0792 374.316 86.0792C374.108 86.0792 373.925 86.1348 373.767 86.246C373.609 86.3572 373.487 86.5032 373.399 86.6839V89.3636H372.756V85.603H373.364ZM376.53 87.452C376.53 86.8658 376.666 86.4001 376.937 86.0548C377.208 85.7073 377.567 85.5335 378.014 85.5335C378.473 85.5335 378.831 85.6957 379.088 86.0201L379.119 85.603H379.707V89.2732C379.707 89.7598 379.562 90.1433 379.272 90.4236C378.985 90.704 378.598 90.8442 378.111 90.8442C377.84 90.8442 377.575 90.7863 377.316 90.6704C377.056 90.5545 376.858 90.3958 376.721 90.1942L377.055 89.8085C377.331 90.1491 377.668 90.3194 378.066 90.3194C378.379 90.3194 378.622 90.2313 378.796 90.0552C378.972 89.8791 379.06 89.6312 379.06 89.3115V88.9882C378.803 89.2848 378.452 89.4331 378.007 89.4331C377.567 89.4331 377.21 89.2558 376.937 88.9013C376.666 88.5468 376.53 88.0637 376.53 87.452ZM377.177 87.525C377.177 87.949 377.263 88.2827 377.437 88.526C377.611 88.7669 377.854 88.8874 378.167 88.8874C378.573 88.8874 378.87 88.7032 379.06 88.3348V86.6179C378.863 86.2587 378.568 86.0792 378.174 86.0792C377.861 86.0792 377.617 86.2008 377.441 86.4441C377.265 86.6874 377.177 87.0477 377.177 87.525ZM382.421 87.3095C382.421 86.7859 382.491 86.2831 382.63 85.8011C382.771 85.3192 382.981 84.8813 383.259 84.4874C383.537 84.0935 383.825 83.8154 384.124 83.6532L384.256 84.0773C383.918 84.3368 383.64 84.733 383.422 85.2659C383.207 85.7988 383.088 86.3955 383.068 87.0558L383.064 87.3512C383.064 88.2456 383.228 89.0218 383.554 89.6799C383.751 90.0738 383.985 90.3819 384.256 90.6044L384.124 90.9971C383.816 90.8256 383.522 90.5383 383.241 90.1352C382.695 89.3474 382.421 88.4055 382.421 87.3095ZM387.881 85.6239C387.881 85.8764 387.814 86.1012 387.68 86.2981C387.548 86.4951 387.368 86.6492 387.141 86.7604C387.405 86.8739 387.614 87.0396 387.767 87.2574C387.922 87.4752 387.999 87.722 387.999 87.9977C387.999 88.4356 387.851 88.7843 387.555 89.0438C387.26 89.3033 386.872 89.4331 386.39 89.4331C385.904 89.4331 385.513 89.3033 385.219 89.0438C384.927 88.782 384.781 88.4333 384.781 87.9977C384.781 87.7243 384.855 87.4775 385.004 87.2574C385.154 87.0373 385.362 86.8704 385.626 86.7569C385.401 86.6457 385.224 86.4916 385.094 86.2947C384.964 86.0977 384.899 85.8741 384.899 85.6239C384.899 85.1975 385.036 84.8593 385.309 84.609C385.583 84.3588 385.943 84.2337 386.39 84.2337C386.835 84.2337 387.194 84.3588 387.468 84.609C387.743 84.8593 387.881 85.1975 387.881 85.6239ZM387.356 87.9838C387.356 87.7011 387.266 87.4706 387.085 87.2921C386.907 87.1137 386.673 87.0245 386.383 87.0245C386.094 87.0245 385.861 87.1126 385.685 87.2887C385.511 87.4648 385.424 87.6965 385.424 87.9838C385.424 88.2711 385.509 88.497 385.678 88.6615C385.849 88.826 386.087 88.9083 386.39 88.9083C386.691 88.9083 386.928 88.826 387.099 88.6615C387.271 88.4947 387.356 88.2688 387.356 87.9838ZM386.39 84.7619C386.138 84.7619 385.933 84.8407 385.775 84.9983C385.62 85.1535 385.542 85.3655 385.542 85.6343C385.542 85.8915 385.619 86.1 385.772 86.2599C385.927 86.4175 386.133 86.4962 386.39 86.4962C386.647 86.4962 386.853 86.4175 387.005 86.2599C387.161 86.1 387.238 85.8915 387.238 85.6343C387.238 85.3771 387.158 85.1674 386.998 85.0052C386.839 84.843 386.636 84.7619 386.39 84.7619ZM389.105 86.8264L389.362 84.3032H391.955V84.8975H389.908L389.755 86.2773C390.003 86.1313 390.284 86.0583 390.599 86.0583C391.06 86.0583 391.426 86.2112 391.697 86.5171C391.969 86.8206 392.104 87.2319 392.104 87.7509C392.104 88.2723 391.963 88.6835 391.68 88.9847C391.4 89.2836 391.007 89.4331 390.502 89.4331C390.055 89.4331 389.69 89.3091 389.407 89.0612C389.124 88.8133 388.963 88.4704 388.924 88.0324H389.532C389.572 88.3221 389.675 88.541 389.842 88.6893C390.008 88.8353 390.228 88.9083 390.502 88.9083C390.801 88.9083 391.035 88.8063 391.204 88.6024C391.375 88.3985 391.461 88.117 391.461 87.7579C391.461 87.4196 391.368 87.1485 391.183 86.9446C391 86.7384 390.756 86.6353 390.45 86.6353C390.169 86.6353 389.949 86.6967 389.789 86.8195L389.619 86.9585L389.105 86.8264ZM394.356 87.3443C394.356 87.861 394.288 88.3568 394.151 88.8318C394.017 89.3045 393.809 89.7413 393.529 90.1421C393.251 90.543 392.959 90.828 392.653 90.9971L392.518 90.6044C392.875 90.331 393.161 89.9069 393.376 89.3323C393.594 88.7554 393.705 88.1159 393.71 87.4138V87.3026C393.71 86.816 393.659 86.3642 393.557 85.9471C393.455 85.5277 393.312 85.1524 393.129 84.821C392.949 84.4897 392.745 84.2313 392.518 84.046L392.653 83.6532C392.959 83.8224 393.25 84.1051 393.526 84.5013C393.804 84.8975 394.011 85.3342 394.148 85.8116C394.287 86.2889 394.356 86.7998 394.356 87.3443ZM398.523 87.525C398.523 88.0973 398.393 88.5584 398.131 88.9083C397.869 89.2582 397.514 89.4331 397.067 89.4331C396.611 89.4331 396.252 89.2883 395.99 88.9987V90.8094H395.347V85.603H395.934L395.965 86.0201C396.227 85.6957 396.591 85.5335 397.057 85.5335C397.509 85.5335 397.865 85.7038 398.127 86.0444C398.391 86.385 398.523 86.8589 398.523 87.4659V87.525ZM397.88 87.452C397.88 87.028 397.79 86.6932 397.609 86.4476C397.429 86.202 397.181 86.0792 396.866 86.0792C396.476 86.0792 396.184 86.2518 395.99 86.597V88.3939C396.182 88.7368 396.476 88.9083 396.873 88.9083C397.181 88.9083 397.425 88.7866 397.606 88.5434C397.789 88.2977 397.88 87.934 397.88 87.452ZM399.173 87.4485C399.173 87.0801 399.245 86.7488 399.389 86.4545C399.535 86.1603 399.736 85.9332 399.994 85.7733C400.253 85.6135 400.549 85.5335 400.88 85.5335C401.392 85.5335 401.806 85.7108 402.121 86.0653C402.438 86.4198 402.597 86.8913 402.597 87.4798V87.525C402.597 87.8911 402.526 88.2201 402.385 88.5121C402.246 88.8017 402.045 89.0276 401.784 89.1898C401.524 89.352 401.225 89.4331 400.887 89.4331C400.377 89.4331 399.964 89.2558 399.646 88.9013C399.331 88.5468 399.173 88.0776 399.173 87.4937V87.4485ZM399.82 87.525C399.82 87.9421 399.916 88.2769 400.108 88.5295C400.303 88.782 400.562 88.9083 400.887 88.9083C401.214 88.9083 401.473 88.7808 401.665 88.526C401.858 88.2688 401.954 87.9096 401.954 87.4485C401.954 87.0361 401.855 86.7025 401.658 86.4476C401.464 86.1904 401.204 86.0618 400.88 86.0618C400.562 86.0618 400.306 86.1881 400.112 86.4406C399.917 86.6932 399.82 87.0547 399.82 87.525ZM405.593 88.3661C405.593 88.1923 405.527 88.0579 405.395 87.9629C405.265 87.8656 405.037 87.7822 404.71 87.7127C404.386 87.6432 404.127 87.5598 403.935 87.4625C403.745 87.3651 403.604 87.2493 403.511 87.1149C403.421 86.9805 403.375 86.8206 403.375 86.6353C403.375 86.3271 403.505 86.0664 403.765 85.8533C404.026 85.6401 404.36 85.5335 404.766 85.5335C405.192 85.5335 405.537 85.6436 405.801 85.8637C406.068 86.0838 406.201 86.3653 406.201 86.7083H405.555C405.555 86.5322 405.479 86.3804 405.329 86.253C405.18 86.1255 404.993 86.0618 404.766 86.0618C404.532 86.0618 404.349 86.1128 404.216 86.2147C404.084 86.3167 404.018 86.4499 404.018 86.6144C404.018 86.7697 404.08 86.8867 404.203 86.9654C404.325 87.0442 404.547 87.1195 404.866 87.1914C405.188 87.2632 405.449 87.3489 405.648 87.4485C405.848 87.5482 405.995 87.6687 406.09 87.81C406.187 87.949 406.236 88.1193 406.236 88.3209C406.236 88.6569 406.101 88.9268 405.833 89.1307C405.564 89.3323 405.215 89.4331 404.786 89.4331C404.485 89.4331 404.219 89.3798 403.987 89.2732C403.755 89.1666 403.573 89.0183 403.441 88.8283C403.312 88.636 403.247 88.4287 403.247 88.2062H403.89C403.901 88.4217 403.987 88.5932 404.147 88.7206C404.309 88.8457 404.522 88.9083 404.786 88.9083C405.03 88.9083 405.224 88.8596 405.37 88.7623C405.519 88.6627 405.593 88.5306 405.593 88.3661ZM407.772 89.3636H407.129V85.603H407.772V89.3636ZM407.077 84.6055C407.077 84.5013 407.108 84.4132 407.171 84.3414C407.236 84.2696 407.331 84.2337 407.456 84.2337C407.581 84.2337 407.676 84.2696 407.741 84.3414C407.806 84.4132 407.838 84.5013 407.838 84.6055C407.838 84.7098 407.806 84.7967 407.741 84.8662C407.676 84.9357 407.581 84.9705 407.456 84.9705C407.331 84.9705 407.236 84.9357 407.171 84.8662C407.108 84.7967 407.077 84.7098 407.077 84.6055ZM409.677 84.6924V85.603H410.379V86.1H409.677V88.4321C409.677 88.5827 409.708 88.6963 409.77 88.7727C409.833 88.8469 409.94 88.884 410.09 88.884C410.164 88.884 410.266 88.8701 410.396 88.8423V89.3636C410.227 89.4099 410.062 89.4331 409.902 89.4331C409.615 89.4331 409.399 89.3462 409.253 89.1724C409.107 88.9987 409.034 88.7519 409.034 88.4321V86.1H408.349V85.603H409.034V84.6924H409.677ZM411.831 89.3636H411.188V85.603H411.831V89.3636ZM411.136 84.6055C411.136 84.5013 411.168 84.4132 411.23 84.3414C411.295 84.2696 411.39 84.2337 411.515 84.2337C411.64 84.2337 411.735 84.2696 411.8 84.3414C411.865 84.4132 411.897 84.5013 411.897 84.6055C411.897 84.7098 411.865 84.7967 411.8 84.8662C411.735 84.9357 411.64 84.9705 411.515 84.9705C411.39 84.9705 411.295 84.9357 411.23 84.8662C411.168 84.7967 411.136 84.7098 411.136 84.6055ZM412.693 87.4485C412.693 87.0801 412.765 86.7488 412.909 86.4545C413.055 86.1603 413.256 85.9332 413.514 85.7733C413.773 85.6135 414.069 85.5335 414.4 85.5335C414.912 85.5335 415.326 85.7108 415.641 86.0653C415.958 86.4198 416.117 86.8913 416.117 87.4798V87.525C416.117 87.8911 416.046 88.2201 415.905 88.5121C415.766 88.8017 415.565 89.0276 415.303 89.1898C415.044 89.352 414.745 89.4331 414.407 89.4331C413.897 89.4331 413.483 89.2558 413.166 88.9013C412.851 88.5468 412.693 88.0776 412.693 87.4937V87.4485ZM413.34 87.525C413.34 87.9421 413.436 88.2769 413.628 88.5295C413.823 88.782 414.082 88.9083 414.407 88.9083C414.734 88.9083 414.993 88.7808 415.185 88.526C415.378 88.2688 415.474 87.9096 415.474 87.4485C415.474 87.0361 415.375 86.7025 415.178 86.4476C414.984 86.1904 414.724 86.0618 414.4 86.0618C414.082 86.0618 413.826 86.1881 413.632 86.4406C413.437 86.6932 413.34 87.0547 413.34 87.525ZM417.531 85.603L417.552 86.0757C417.84 85.7142 418.215 85.5335 418.678 85.5335C419.473 85.5335 419.874 85.9819 419.881 86.8786V89.3636H419.238V86.8751C419.236 86.604 419.173 86.4036 419.05 86.2738C418.93 86.1441 418.741 86.0792 418.484 86.0792C418.275 86.0792 418.092 86.1348 417.934 86.246C417.777 86.3572 417.654 86.5032 417.566 86.6839V89.3636H416.923V85.603H417.531ZM423.04 88.3661C423.04 88.1923 422.974 88.0579 422.842 87.9629C422.712 87.8656 422.484 87.7822 422.157 87.7127C421.833 87.6432 421.575 87.5598 421.382 87.4625C421.192 87.3651 421.051 87.2493 420.958 87.1149C420.868 86.9805 420.823 86.8206 420.823 86.6353C420.823 86.3271 420.952 86.0664 421.212 85.8533C421.474 85.6401 421.807 85.5335 422.213 85.5335C422.639 85.5335 422.984 85.6436 423.249 85.8637C423.515 86.0838 423.648 86.3653 423.648 86.7083H423.002C423.002 86.5322 422.927 86.3804 422.776 86.253C422.628 86.1255 422.44 86.0618 422.213 86.0618C421.979 86.0618 421.796 86.1128 421.664 86.2147C421.532 86.3167 421.466 86.4499 421.466 86.6144C421.466 86.7697 421.527 86.8867 421.65 86.9654C421.773 87.0442 421.994 87.1195 422.314 87.1914C422.636 87.2632 422.896 87.3489 423.096 87.4485C423.295 87.5482 423.442 87.6687 423.537 87.81C423.634 87.949 423.683 88.1193 423.683 88.3209C423.683 88.6569 423.549 88.9268 423.28 89.1307C423.011 89.3323 422.662 89.4331 422.234 89.4331C421.933 89.4331 421.666 89.3798 421.434 89.2732C421.203 89.1666 421.021 89.0183 420.889 88.8283C420.759 88.636 420.694 88.4287 420.694 88.2062H421.337C421.349 88.4217 421.434 88.5932 421.594 88.7206C421.756 88.8457 421.97 88.9083 422.234 88.9083C422.477 88.9083 422.672 88.8596 422.818 88.7623C422.966 88.6627 423.04 88.5306 423.04 88.3661Z" fill="#030B20"/>
<path d="M337.467 140.841C339.48 140.841 341.111 139.272 341.111 137.336C341.111 135.4 339.48 133.831 337.467 133.831C335.455 133.831 333.823 135.4 333.823 137.336C333.823 139.272 335.455 140.841 337.467 140.841Z" fill="url(#paint1_linear)"/>
<path d="M349.702 137.028H349.035V131.967H349.702V137.028ZM354.318 132.516H352.691V137.028H352.027V132.516H350.404V131.967H354.318V132.516ZM356.57 134.973C356.57 134.45 356.639 133.947 356.778 133.465C356.92 132.983 357.129 132.545 357.408 132.151C357.686 131.757 357.974 131.479 358.273 131.317L358.405 131.741C358.067 132.001 357.789 132.397 357.571 132.93C357.355 133.463 357.237 134.059 357.216 134.72L357.213 135.015C357.213 135.91 357.376 136.686 357.703 137.344C357.9 137.738 358.134 138.046 358.405 138.268L358.273 138.661C357.965 138.49 357.671 138.202 357.39 137.799C356.843 137.011 356.57 136.069 356.57 134.973ZM362.277 137.028H358.961V136.565L360.713 134.619C360.972 134.325 361.151 134.086 361.248 133.903C361.348 133.718 361.397 133.526 361.397 133.33C361.397 133.065 361.318 132.849 361.158 132.68C360.998 132.51 360.785 132.426 360.518 132.426C360.198 132.426 359.949 132.517 359.771 132.7C359.595 132.881 359.507 133.134 359.507 133.458H358.864C358.864 132.992 359.013 132.616 359.312 132.329C359.613 132.041 360.015 131.898 360.518 131.898C360.989 131.898 361.36 132.022 361.634 132.269C361.907 132.515 362.044 132.843 362.044 133.253C362.044 133.751 361.726 134.344 361.092 135.033L359.736 136.503H362.277V137.028ZM363.253 134.49L363.511 131.967H366.103V132.561H364.056L363.903 133.941C364.151 133.795 364.433 133.722 364.748 133.722C365.209 133.722 365.575 133.875 365.846 134.181C366.117 134.485 366.253 134.896 366.253 135.415C366.253 135.936 366.112 136.347 365.829 136.649C365.548 136.948 365.156 137.097 364.651 137.097C364.203 137.097 363.838 136.973 363.556 136.725C363.273 136.477 363.112 136.134 363.073 135.696H363.681C363.72 135.986 363.823 136.205 363.99 136.353C364.157 136.499 364.377 136.572 364.651 136.572C364.95 136.572 365.184 136.47 365.353 136.266C365.524 136.062 365.61 135.781 365.61 135.422C365.61 135.084 365.517 134.812 365.332 134.609C365.149 134.402 364.904 134.299 364.598 134.299C364.318 134.299 364.098 134.361 363.938 134.483L363.768 134.622L363.253 134.49ZM368.505 135.008C368.505 135.525 368.437 136.021 368.3 136.496C368.166 136.968 367.958 137.405 367.678 137.806C367.4 138.207 367.108 138.492 366.802 138.661L366.666 138.268C367.023 137.995 367.309 137.571 367.525 136.996C367.743 136.419 367.854 135.78 367.859 135.078V134.967C367.859 134.48 367.808 134.028 367.706 133.611C367.604 133.192 367.461 132.816 367.278 132.485C367.097 132.154 366.894 131.895 366.666 131.71L366.802 131.317C367.108 131.486 367.399 131.769 367.674 132.165C367.952 132.561 368.16 132.998 368.296 133.475C368.435 133.953 368.505 134.464 368.505 135.008ZM372.672 135.189C372.672 135.761 372.541 136.222 372.279 136.572C372.018 136.922 371.663 137.097 371.216 137.097C370.759 137.097 370.4 136.952 370.139 136.663V138.473H369.496V133.267H370.083L370.114 133.684C370.376 133.36 370.74 133.197 371.206 133.197C371.657 133.197 372.014 133.368 372.276 133.708C372.54 134.049 372.672 134.523 372.672 135.13V135.189ZM372.029 135.116C372.029 134.692 371.939 134.357 371.758 134.112C371.577 133.866 371.329 133.743 371.014 133.743C370.625 133.743 370.333 133.916 370.139 134.261V136.058C370.331 136.401 370.625 136.572 371.021 136.572C371.329 136.572 371.574 136.451 371.755 136.207C371.938 135.962 372.029 135.598 372.029 135.116ZM373.322 135.112C373.322 134.744 373.394 134.413 373.538 134.118C373.684 133.824 373.885 133.597 374.142 133.437C374.402 133.277 374.697 133.197 375.029 133.197C375.541 133.197 375.954 133.375 376.269 133.729C376.587 134.084 376.746 134.555 376.746 135.144V135.189C376.746 135.555 376.675 135.884 376.534 136.176C376.395 136.466 376.194 136.692 375.932 136.854C375.673 137.016 375.374 137.097 375.036 137.097C374.526 137.097 374.112 136.92 373.795 136.565C373.48 136.211 373.322 135.742 373.322 135.158V135.112ZM373.969 135.189C373.969 135.606 374.065 135.941 374.257 136.193C374.452 136.446 374.711 136.572 375.036 136.572C375.362 136.572 375.622 136.445 375.814 136.19C376.006 135.933 376.103 135.574 376.103 135.112C376.103 134.7 376.004 134.366 375.807 134.112C375.613 133.854 375.353 133.726 375.029 133.726C374.711 133.726 374.455 133.852 374.261 134.105C374.066 134.357 373.969 134.719 373.969 135.189ZM379.742 136.03C379.742 135.856 379.675 135.722 379.543 135.627C379.414 135.53 379.185 135.446 378.859 135.377C378.534 135.307 378.276 135.224 378.084 135.126C377.894 135.029 377.752 134.913 377.66 134.779C377.569 134.644 377.524 134.485 377.524 134.299C377.524 133.991 377.654 133.73 377.913 133.517C378.175 133.304 378.509 133.197 378.914 133.197C379.341 133.197 379.686 133.308 379.95 133.528C380.217 133.748 380.35 134.029 380.35 134.372H379.703C379.703 134.196 379.628 134.044 379.477 133.917C379.329 133.789 379.141 133.726 378.914 133.726C378.68 133.726 378.497 133.777 378.365 133.879C378.233 133.981 378.167 134.114 378.167 134.278C378.167 134.434 378.228 134.551 378.351 134.629C378.474 134.708 378.695 134.783 379.015 134.855C379.337 134.927 379.598 135.013 379.797 135.112C379.996 135.212 380.144 135.333 380.239 135.474C380.336 135.613 380.384 135.783 380.384 135.985C380.384 136.321 380.25 136.591 379.981 136.795C379.713 136.996 379.364 137.097 378.935 137.097C378.634 137.097 378.368 137.044 378.136 136.937C377.904 136.831 377.722 136.682 377.59 136.492C377.46 136.3 377.396 136.093 377.396 135.87H378.038C378.05 136.086 378.136 136.257 378.296 136.385C378.458 136.51 378.671 136.572 378.935 136.572C379.178 136.572 379.373 136.524 379.519 136.426C379.667 136.327 379.742 136.195 379.742 136.03ZM381.921 137.028H381.278V133.267H381.921V137.028ZM381.226 132.269C381.226 132.165 381.257 132.077 381.319 132.005C381.384 131.934 381.479 131.898 381.604 131.898C381.73 131.898 381.825 131.934 381.889 132.005C381.954 132.077 381.987 132.165 381.987 132.269C381.987 132.374 381.954 132.461 381.889 132.53C381.825 132.6 381.73 132.634 381.604 132.634C381.479 132.634 381.384 132.6 381.319 132.53C381.257 132.461 381.226 132.374 381.226 132.269ZM383.825 132.356V133.267H384.527V133.764H383.825V136.096C383.825 136.247 383.857 136.36 383.919 136.437C383.982 136.511 384.088 136.548 384.239 136.548C384.313 136.548 384.415 136.534 384.545 136.506V137.028C384.376 137.074 384.211 137.097 384.051 137.097C383.764 137.097 383.547 137.01 383.401 136.836C383.255 136.663 383.182 136.416 383.182 136.096V133.764H382.498V133.267H383.182V132.356H383.825ZM385.98 137.028H385.337V133.267H385.98V137.028ZM385.285 132.269C385.285 132.165 385.316 132.077 385.379 132.005C385.444 131.934 385.539 131.898 385.664 131.898C385.789 131.898 385.884 131.934 385.949 132.005C386.014 132.077 386.046 132.165 386.046 132.269C386.046 132.374 386.014 132.461 385.949 132.53C385.884 132.6 385.789 132.634 385.664 132.634C385.539 132.634 385.444 132.6 385.379 132.53C385.316 132.461 385.285 132.374 385.285 132.269ZM386.842 135.112C386.842 134.744 386.914 134.413 387.058 134.118C387.204 133.824 387.405 133.597 387.662 133.437C387.922 133.277 388.217 133.197 388.549 133.197C389.061 133.197 389.474 133.375 389.789 133.729C390.107 134.084 390.266 134.555 390.266 135.144V135.189C390.266 135.555 390.195 135.884 390.054 136.176C389.914 136.466 389.714 136.692 389.452 136.854C389.193 137.016 388.894 137.097 388.556 137.097C388.046 137.097 387.632 136.92 387.315 136.565C387 136.211 386.842 135.742 386.842 135.158V135.112ZM387.489 135.189C387.489 135.606 387.585 135.941 387.777 136.193C387.972 136.446 388.231 136.572 388.556 136.572C388.882 136.572 389.142 136.445 389.334 136.19C389.526 135.933 389.623 135.574 389.623 135.112C389.623 134.7 389.524 134.366 389.327 134.112C389.132 133.854 388.873 133.726 388.549 133.726C388.231 133.726 387.975 133.852 387.78 134.105C387.586 134.357 387.489 134.719 387.489 135.189ZM391.68 133.267L391.701 133.74C391.988 133.378 392.364 133.197 392.827 133.197C393.622 133.197 394.023 133.646 394.03 134.542V137.028H393.387V134.539C393.384 134.268 393.322 134.068 393.199 133.938C393.078 133.808 392.89 133.743 392.632 133.743C392.424 133.743 392.241 133.799 392.083 133.91C391.926 134.021 391.803 134.167 391.715 134.348V137.028H391.072V133.267H391.68ZM397.189 136.03C397.189 135.856 397.123 135.722 396.991 135.627C396.861 135.53 396.633 135.446 396.306 135.377C395.982 135.307 395.723 135.224 395.531 135.126C395.341 135.029 395.2 134.913 395.107 134.779C395.017 134.644 394.971 134.485 394.971 134.299C394.971 133.991 395.101 133.73 395.361 133.517C395.623 133.304 395.956 133.197 396.362 133.197C396.788 133.197 397.133 133.308 397.397 133.528C397.664 133.748 397.797 134.029 397.797 134.372H397.151C397.151 134.196 397.075 134.044 396.925 133.917C396.776 133.789 396.589 133.726 396.362 133.726C396.128 133.726 395.945 133.777 395.813 133.879C395.68 133.981 395.614 134.114 395.614 134.278C395.614 134.434 395.676 134.551 395.799 134.629C395.921 134.708 396.143 134.783 396.462 134.855C396.785 134.927 397.045 135.013 397.244 135.112C397.444 135.212 397.591 135.333 397.686 135.474C397.783 135.613 397.832 135.783 397.832 135.985C397.832 136.321 397.697 136.591 397.429 136.795C397.16 136.996 396.811 137.097 396.383 137.097C396.081 137.097 395.815 137.044 395.583 136.937C395.351 136.831 395.17 136.682 395.037 136.492C394.908 136.3 394.843 136.093 394.843 135.87H395.486C395.497 136.086 395.583 136.257 395.743 136.385C395.905 136.51 396.118 136.572 396.383 136.572C396.626 136.572 396.82 136.524 396.966 136.426C397.115 136.327 397.189 136.195 397.189 136.03Z" fill="#030B20"/>
<path d="M288.803 98.984C291.961 106.11 293.115 110.202 292.08 119.429C291.758 120.94 291.832 124.571 289.884 129.041C286.553 136.018 282.959 140.532 278.899 144.136C277.537 144.92 276.53 146.648 272.157 148.75C262.182 153.334 256.897 154.124 252.298 153.631" stroke="#004CFF" stroke-width="14.2359"/>
<path d="M253.978 154.159C245.858 153.893 240.241 153.033 231.504 148.131C226.549 144.766 225.658 144.598 222.468 140.841C220.3 138.106 213.286 128.364 213.286 119.953C211.974 108.317 215.035 100.467 219.7 93.7381" stroke="#7A0D7D" stroke-width="14.2359"/>
<g filter="url(#filter1_d)">
<path d="M143.617 126.122H21.1863C19.9788 126.122 19 127.063 19 128.225V166.776C19 167.938 19.9788 168.879 21.1863 168.879H143.617C144.825 168.879 145.804 167.938 145.804 166.776V128.225C145.804 127.063 144.825 126.122 143.617 126.122Z" fill="white"/>
</g>
<g filter="url(#filter2_d)">
<path opacity="0.5" d="M25.378 139.831V135.108H26.7113C27.1222 135.108 27.4855 135.199 27.8012 135.381C28.1169 135.562 28.3602 135.821 28.5311 136.156C28.7041 136.491 28.7917 136.876 28.7938 137.311V137.613C28.7938 138.058 28.7073 138.448 28.5343 138.784C28.3635 139.119 28.118 139.376 27.798 139.556C27.4801 139.735 27.1092 139.827 26.6853 139.831H25.378ZM26.0009 135.621V139.322H26.6561C27.1362 139.322 27.5093 139.173 27.7753 138.874C28.0434 138.576 28.1775 138.151 28.1775 137.6V137.324C28.1775 136.788 28.051 136.371 27.798 136.075C27.5471 135.777 27.1903 135.625 26.7275 135.621H26.0009ZM31.1002 139.896C30.6245 139.896 30.2374 139.741 29.9389 139.429C29.6405 139.116 29.4913 138.697 29.4913 138.174V138.063C29.4913 137.715 29.5572 137.405 29.6891 137.132C29.8232 136.858 30.0092 136.644 30.2471 136.49C30.4871 136.334 30.7466 136.257 31.0256 136.257C31.4819 136.257 31.8366 136.407 32.0896 136.708C32.3426 137.008 32.4691 137.438 32.4691 137.999V138.248H30.0914C30.1 138.594 30.2006 138.874 30.3931 139.089C30.5877 139.3 30.8342 139.406 31.1327 139.406C31.3446 139.406 31.5241 139.363 31.6711 139.277C31.8182 139.19 31.9469 139.076 32.0572 138.933L32.4237 139.218C32.1296 139.67 31.6884 139.896 31.1002 139.896ZM31.0256 136.75C30.7834 136.75 30.5801 136.838 30.4158 137.016C30.2514 137.191 30.1498 137.437 30.1108 137.755H31.869V137.71C31.8517 137.405 31.7695 137.169 31.6225 137.003C31.4754 136.834 31.2765 136.75 31.0256 136.75ZM36.1314 138.115C36.1314 138.65 36.0093 139.08 35.7649 139.406C35.5205 139.733 35.1896 139.896 34.7723 139.896C34.3462 139.896 34.011 139.761 33.7667 139.491V141.181H33.1666V136.322H33.7148L33.744 136.711C33.9883 136.408 34.3279 136.257 34.7625 136.257C35.1842 136.257 35.5173 136.416 35.7616 136.733C36.0082 137.051 36.1314 137.494 36.1314 138.06V138.115ZM35.5313 138.047C35.5313 137.651 35.447 137.339 35.2783 137.11C35.1096 136.881 34.8782 136.766 34.5841 136.766C34.2208 136.766 33.9483 136.927 33.7667 137.249V138.926C33.9462 139.246 34.2208 139.406 34.5906 139.406C34.8782 139.406 35.1064 139.293 35.2751 139.066C35.4459 138.837 35.5313 138.497 35.5313 138.047ZM39.0639 139.831C39.0293 139.762 39.0012 139.639 38.9796 139.462C38.7006 139.751 38.3675 139.896 37.9804 139.896C37.6344 139.896 37.3501 139.799 37.1273 139.604C36.9067 139.407 36.7964 139.159 36.7964 138.858C36.7964 138.493 36.9348 138.209 37.2117 138.008C37.4906 137.805 37.882 137.703 38.3859 137.703H38.9698V137.428C38.9698 137.218 38.9071 137.051 38.7817 136.928C38.6563 136.803 38.4714 136.74 38.227 136.74C38.0129 136.74 37.8334 136.794 37.6885 136.902C37.5436 137.01 37.4712 137.141 37.4712 137.295H36.8678C36.8678 137.119 36.9294 136.951 37.0527 136.789C37.1781 136.624 37.3468 136.495 37.5587 136.399C37.7728 136.304 38.0075 136.257 38.2627 136.257C38.6671 136.257 38.9839 136.358 39.2131 136.562C39.4423 136.763 39.5613 137.041 39.5699 137.395V139.011C39.5699 139.333 39.611 139.589 39.6932 139.779V139.831H39.0639ZM38.068 139.374C38.2562 139.374 38.4346 139.325 38.6033 139.228C38.7719 139.131 38.8941 139.004 38.9698 138.848V138.128H38.4995C37.7642 138.128 37.3966 138.344 37.3966 138.774C37.3966 138.962 37.4593 139.109 37.5847 139.215C37.7101 139.321 37.8712 139.374 38.068 139.374ZM42.2072 136.86C42.1164 136.845 42.018 136.837 41.912 136.837C41.5184 136.837 41.2513 137.005 41.1108 137.34V139.831H40.5107V136.322H41.0946L41.1043 136.727C41.3011 136.413 41.5801 136.257 41.9412 136.257C42.058 136.257 42.1466 136.272 42.2072 136.302V136.86ZM43.7383 135.472V136.322H44.3936V136.785H43.7383V138.962C43.7383 139.103 43.7675 139.209 43.8259 139.28C43.8843 139.349 43.9838 139.384 44.1243 139.384C44.1935 139.384 44.2887 139.371 44.4098 139.345V139.831C44.2519 139.875 44.0984 139.896 43.9492 139.896C43.681 139.896 43.4788 139.815 43.3425 139.653C43.2063 139.491 43.1382 139.26 43.1382 138.962V136.785H42.4991V136.322H43.1382V135.472H43.7383ZM45.6619 136.322L45.6781 136.711C45.9355 136.408 46.2826 136.257 46.7194 136.257C47.2103 136.257 47.5444 136.445 47.7218 136.821C47.8385 136.652 47.9899 136.516 48.1759 136.412C48.364 136.309 48.5857 136.257 48.8409 136.257C49.6108 136.257 50.0022 136.664 50.0152 137.48V139.831H49.4151V137.515C49.4151 137.264 49.3577 137.077 49.2431 136.954C49.1285 136.829 48.936 136.766 48.6657 136.766C48.443 136.766 48.2581 136.833 48.111 136.967C47.964 137.099 47.8785 137.277 47.8548 137.502V139.831H47.2514V137.531C47.2514 137.021 47.0016 136.766 46.5021 136.766C46.1085 136.766 45.8392 136.934 45.6943 137.269V139.831H45.0942V136.322H45.6619ZM52.3799 139.896C51.9042 139.896 51.5171 139.741 51.2186 139.429C50.9202 139.116 50.771 138.697 50.771 138.174V138.063C50.771 137.715 50.8369 137.405 50.9689 137.132C51.1029 136.858 51.2889 136.644 51.5268 136.49C51.7669 136.334 52.0264 136.257 52.3053 136.257C52.7616 136.257 53.1163 136.407 53.3693 136.708C53.6223 137.008 53.7489 137.438 53.7489 137.999V138.248H51.3711C51.3798 138.594 51.4803 138.874 51.6728 139.089C51.8674 139.3 52.1139 139.406 52.4124 139.406C52.6243 139.406 52.8038 139.363 52.9509 139.277C53.0979 139.19 53.2266 139.076 53.3369 138.933L53.7034 139.218C53.4093 139.67 52.9682 139.896 52.3799 139.896ZM52.3053 136.75C52.0631 136.75 51.8598 136.838 51.6955 137.016C51.5311 137.191 51.4295 137.437 51.3906 137.755H53.1487V137.71C53.1314 137.405 53.0493 137.169 52.9022 137.003C52.7552 136.834 52.5562 136.75 52.3053 136.75ZM55.014 136.322L55.0334 136.763C55.3016 136.425 55.6519 136.257 56.0844 136.257C56.8262 136.257 57.2003 136.675 57.2068 137.512V139.831H56.6067V137.509C56.6045 137.256 56.5461 137.069 56.4315 136.948C56.3191 136.826 56.1428 136.766 55.9028 136.766C55.7081 136.766 55.5373 136.818 55.3902 136.922C55.2432 137.025 55.1286 137.162 55.0464 137.33V139.831H54.4463V136.322H55.014ZM58.9261 135.472V136.322H59.5813V136.785H58.9261V138.962C58.9261 139.103 58.9553 139.209 59.0136 139.28C59.072 139.349 59.1715 139.384 59.3121 139.384C59.3813 139.384 59.4764 139.371 59.5975 139.345V139.831C59.4397 139.875 59.2861 139.896 59.1369 139.896C58.8687 139.896 58.6665 139.815 58.5303 139.653C58.3941 139.491 58.3259 139.26 58.3259 138.962V136.785H57.6869V136.322H58.3259V135.472H58.9261ZM60.2658 139.517C60.2658 139.413 60.296 139.326 60.3566 139.257C60.4193 139.188 60.5123 139.153 60.6356 139.153C60.7588 139.153 60.8518 139.188 60.9145 139.257C60.9794 139.326 61.0119 139.413 61.0119 139.517C61.0119 139.616 60.9794 139.699 60.9145 139.766C60.8518 139.834 60.7588 139.867 60.6356 139.867C60.5123 139.867 60.4193 139.834 60.3566 139.766C60.296 139.699 60.2658 139.616 60.2658 139.517ZM60.269 136.652C60.269 136.549 60.2993 136.462 60.3598 136.393C60.4226 136.324 60.5155 136.289 60.6388 136.289C60.7621 136.289 60.8551 136.324 60.9178 136.393C60.9827 136.462 61.0151 136.549 61.0151 136.652C61.0151 136.752 60.9827 136.835 60.9178 136.902C60.8551 136.969 60.7621 137.003 60.6388 137.003C60.5155 137.003 60.4226 136.969 60.3598 136.902C60.2993 136.835 60.269 136.752 60.269 136.652Z" fill="#030B20"/>
</g>
<g filter="url(#filter3_d)">
<path opacity="0.5" d="M26.9416 155.126L28.291 151.23H28.9722L27.2206 155.953H26.6691L24.9207 151.23H25.5986L26.9416 155.126ZM31.5317 155.953C31.497 155.884 31.4689 155.76 31.4473 155.583C31.1683 155.873 30.8353 156.018 30.4482 156.018C30.1022 156.018 29.8178 155.921 29.5951 155.726C29.3745 155.529 29.2642 155.28 29.2642 154.98C29.2642 154.614 29.4026 154.331 29.6794 154.13C29.9584 153.927 30.3498 153.825 30.8537 153.825H31.4376V153.549C31.4376 153.339 31.3749 153.173 31.2494 153.05C31.124 152.924 30.9391 152.862 30.6947 152.862C30.4806 152.862 30.3011 152.916 30.1563 153.024C30.0114 153.132 29.9389 153.263 29.9389 153.416H29.3356C29.3356 153.241 29.3972 153.072 29.5205 152.91C29.6459 152.746 29.8146 152.616 30.0265 152.521C30.2406 152.426 30.4752 152.378 30.7304 152.378C31.1348 152.378 31.4516 152.48 31.6809 152.683C31.9101 152.884 32.029 153.162 32.0377 153.517V155.132C32.0377 155.454 32.0788 155.711 32.161 155.901V155.953H31.5317ZM30.5358 155.496C30.7239 155.496 30.9023 155.447 31.071 155.35C31.2397 155.252 31.3619 155.126 31.4376 154.97V154.25H30.9672C30.2319 154.25 29.8643 154.465 29.8643 154.895C29.8643 155.084 29.927 155.231 30.0525 155.337C30.1779 155.443 30.339 155.496 30.5358 155.496ZM34.3862 155.528C34.6003 155.528 34.7874 155.463 34.9474 155.333C35.1075 155.204 35.1961 155.041 35.2134 154.847H35.7811C35.7703 155.048 35.7011 155.239 35.5735 155.421C35.4459 155.603 35.2751 155.747 35.061 155.856C34.849 155.964 34.6241 156.018 34.3862 156.018C33.9083 156.018 33.5277 155.859 33.2444 155.541C32.9633 155.221 32.8227 154.784 32.8227 154.23V154.13C32.8227 153.788 32.8854 153.484 33.0109 153.218C33.1363 152.952 33.3158 152.746 33.5493 152.599C33.7851 152.452 34.0629 152.378 34.383 152.378C34.7766 152.378 35.1031 152.496 35.3627 152.732C35.6243 152.968 35.7638 153.274 35.7811 153.65H35.2134C35.1961 153.423 35.1096 153.237 34.9539 153.092C34.8004 152.945 34.6101 152.871 34.383 152.871C34.0781 152.871 33.8413 152.982 33.6726 153.202C33.5061 153.421 33.4228 153.737 33.4228 154.153V154.266C33.4228 154.671 33.5061 154.982 33.6726 155.2C33.8391 155.419 34.077 155.528 34.3862 155.528ZM38.6227 155.953C38.5881 155.884 38.56 155.76 38.5384 155.583C38.2594 155.873 37.9264 156.018 37.5393 156.018C37.1933 156.018 36.9089 155.921 36.6861 155.726C36.4656 155.529 36.3553 155.28 36.3553 154.98C36.3553 154.614 36.4937 154.331 36.7705 154.13C37.0495 153.927 37.4409 153.825 37.9448 153.825H38.5287V153.549C38.5287 153.339 38.4659 153.173 38.3405 153.05C38.2151 152.924 38.0302 152.862 37.7858 152.862C37.5717 152.862 37.3922 152.916 37.2473 153.024C37.1024 153.132 37.03 153.263 37.03 153.416H36.4266C36.4266 153.241 36.4883 153.072 36.6115 152.91C36.737 152.746 36.9056 152.616 37.1176 152.521C37.3317 152.426 37.5663 152.378 37.8215 152.378C38.2259 152.378 38.5427 152.48 38.7719 152.683C39.0012 152.884 39.1201 153.162 39.1288 153.517V155.132C39.1288 155.454 39.1699 155.711 39.252 155.901V155.953H38.6227ZM37.6269 155.496C37.815 155.496 37.9934 155.447 38.1621 155.35C38.3308 155.252 38.453 155.126 38.5287 154.97V154.25H38.0583C37.323 154.25 36.9554 154.465 36.9554 154.895C36.9554 155.084 37.0181 155.231 37.1435 155.337C37.269 155.443 37.4301 155.496 37.6269 155.496ZM40.6372 152.443L40.6566 152.884C40.9248 152.547 41.2751 152.378 41.7076 152.378C42.4494 152.378 42.8235 152.797 42.83 153.634V155.953H42.2299V153.63C42.2277 153.377 42.1694 153.19 42.0547 153.069C41.9423 152.948 41.766 152.887 41.526 152.887C41.3314 152.887 41.1605 152.939 41.0135 153.043C40.8664 153.147 40.7518 153.283 40.6696 153.452V155.953H40.0695V152.443H40.6372ZM45.1429 155.528C45.357 155.528 45.544 155.463 45.7041 155.333C45.8641 155.204 45.9528 155.041 45.9701 154.847H46.5378C46.5269 155.048 46.4577 155.239 46.3301 155.421C46.2026 155.603 46.0317 155.747 45.8176 155.856C45.6057 155.964 45.3808 156.018 45.1429 156.018C44.665 156.018 44.2844 155.859 44.0011 155.541C43.7199 155.221 43.5794 154.784 43.5794 154.23V154.13C43.5794 153.788 43.6421 153.484 43.7675 153.218C43.8929 152.952 44.0724 152.746 44.306 152.599C44.5417 152.452 44.8196 152.378 45.1396 152.378C45.5332 152.378 45.8598 152.496 46.1193 152.732C46.381 152.968 46.5205 153.274 46.5378 153.65H45.9701C45.9528 153.423 45.8663 153.237 45.7106 153.092C45.557 152.945 45.3667 152.871 45.1396 152.871C44.8347 152.871 44.5979 152.982 44.4292 153.202C44.2627 153.421 44.1795 153.737 44.1795 154.153V154.266C44.1795 154.671 44.2627 154.982 44.4292 155.2C44.5958 155.419 44.8336 155.528 45.1429 155.528ZM48.3608 155.074L49.1783 152.443H49.8205L48.4095 156.495C48.191 157.079 47.8439 157.371 47.3682 157.371L47.2546 157.361L47.0308 157.319V156.832L47.193 156.845C47.3963 156.845 47.5542 156.804 47.6666 156.722C47.7812 156.64 47.8753 156.489 47.9488 156.271L48.0818 155.914L46.8297 152.443H47.485L48.3608 155.074ZM50.3396 155.638C50.3396 155.534 50.3698 155.448 50.4304 155.379C50.4931 155.31 50.5861 155.275 50.7094 155.275C50.8326 155.275 50.9256 155.31 50.9883 155.379C51.0532 155.448 51.0856 155.534 51.0856 155.638C51.0856 155.738 51.0532 155.821 50.9883 155.888C50.9256 155.955 50.8326 155.989 50.7094 155.989C50.5861 155.989 50.4931 155.955 50.4304 155.888C50.3698 155.821 50.3396 155.738 50.3396 155.638ZM50.3428 152.774C50.3428 152.67 50.3731 152.584 50.4336 152.514C50.4963 152.445 50.5893 152.411 50.7126 152.411C50.8359 152.411 50.9289 152.445 50.9916 152.514C51.0565 152.584 51.0889 152.67 51.0889 152.774C51.0889 152.873 51.0565 152.957 50.9916 153.024C50.9289 153.091 50.8359 153.124 50.7126 153.124C50.5893 153.124 50.4963 153.091 50.4336 153.024C50.3731 152.957 50.3428 152.873 50.3428 152.774Z" fill="#030B20"/>
</g>
<path d="M93.7995 137.81H91.6794L91.2033 139.13H90.5151L92.4475 134.07H93.0314L94.9673 139.13H94.2826L93.7995 137.81ZM91.881 137.261H93.6014L92.7395 134.894L91.881 137.261ZM97.0561 138.675C97.2855 138.675 97.4859 138.606 97.6574 138.467C97.8288 138.328 97.9238 138.154 97.9424 137.945H98.5506C98.539 138.161 98.4649 138.366 98.3282 138.56C98.1915 138.755 98.0084 138.91 97.779 139.026C97.552 139.142 97.311 139.2 97.0561 139.2C96.544 139.2 96.1362 139.03 95.8327 138.689C95.5315 138.346 95.3809 137.878 95.3809 137.285V137.177C95.3809 136.811 95.4481 136.485 95.5825 136.2C95.7169 135.915 95.9092 135.694 96.1594 135.537C96.412 135.379 96.7097 135.3 97.0526 135.3C97.4743 135.3 97.8242 135.427 98.1023 135.679C98.3826 135.932 98.5321 136.26 98.5506 136.663H97.9424C97.9238 136.419 97.8312 136.22 97.6643 136.065C97.4998 135.907 97.2959 135.829 97.0526 135.829C96.7259 135.829 96.4722 135.947 96.2915 136.183C96.1131 136.417 96.0239 136.757 96.0239 137.201V137.323C96.0239 137.756 96.1131 138.09 96.2915 138.324C96.4699 138.558 96.7248 138.675 97.0561 138.675ZM100.782 138.675C101.011 138.675 101.212 138.606 101.383 138.467C101.555 138.328 101.65 138.154 101.668 137.945H102.276C102.265 138.161 102.191 138.366 102.054 138.56C101.917 138.755 101.734 138.91 101.505 139.026C101.278 139.142 101.037 139.2 100.782 139.2C100.27 139.2 99.8621 139.03 99.5585 138.689C99.2573 138.346 99.1067 137.878 99.1067 137.285V137.177C99.1067 136.811 99.1739 136.485 99.3083 136.2C99.4427 135.915 99.635 135.694 99.8852 135.537C100.138 135.379 100.436 135.3 100.778 135.3C101.2 135.3 101.55 135.427 101.828 135.679C102.108 135.932 102.258 136.26 102.276 136.663H101.668C101.65 136.419 101.557 136.22 101.39 136.065C101.226 135.907 101.022 135.829 100.778 135.829C100.452 135.829 100.198 135.947 100.017 136.183C99.8389 136.417 99.7497 136.757 99.7497 137.201V137.323C99.7497 137.756 99.8389 138.09 100.017 138.324C100.196 138.558 100.451 138.675 100.782 138.675ZM102.829 137.215C102.829 136.847 102.901 136.516 103.045 136.221C103.19 135.927 103.392 135.7 103.649 135.54C103.909 135.38 104.204 135.3 104.536 135.3C105.048 135.3 105.461 135.478 105.776 135.832C106.094 136.187 106.252 136.658 106.252 137.247V137.292C106.252 137.658 106.182 137.987 106.04 138.279C105.901 138.568 105.701 138.794 105.439 138.957C105.18 139.119 104.881 139.2 104.542 139.2C104.033 139.2 103.619 139.023 103.302 138.668C102.987 138.314 102.829 137.844 102.829 137.261V137.215ZM103.475 137.292C103.475 137.709 103.572 138.044 103.764 138.296C103.959 138.549 104.218 138.675 104.542 138.675C104.869 138.675 105.129 138.548 105.321 138.293C105.513 138.036 105.609 137.676 105.609 137.215C105.609 136.803 105.511 136.469 105.314 136.214C105.119 135.957 104.86 135.829 104.536 135.829C104.218 135.829 103.962 135.955 103.767 136.207C103.573 136.46 103.475 136.821 103.475 137.292ZM109.38 138.758C109.13 139.053 108.763 139.2 108.279 139.2C107.878 139.2 107.572 139.084 107.361 138.852C107.153 138.618 107.047 138.273 107.045 137.817V135.37H107.688V137.799C107.688 138.369 107.92 138.654 108.383 138.654C108.874 138.654 109.201 138.471 109.363 138.105V135.37H110.006V139.13H109.394L109.38 138.758ZM111.594 135.37L111.615 135.842C111.903 135.481 112.278 135.3 112.741 135.3C113.536 135.3 113.937 135.749 113.944 136.645V139.13H113.301V136.642C113.299 136.371 113.236 136.17 113.113 136.041C112.993 135.911 112.804 135.846 112.547 135.846C112.338 135.846 112.155 135.902 111.998 136.013C111.84 136.124 111.717 136.27 111.629 136.451V139.13H110.986V135.37H111.594ZM115.786 134.459V135.37H116.488V135.867H115.786V138.199C115.786 138.35 115.817 138.463 115.88 138.54C115.942 138.614 116.049 138.651 116.2 138.651C116.274 138.651 116.376 138.637 116.505 138.609V139.13C116.336 139.177 116.172 139.2 116.012 139.2C115.725 139.2 115.508 139.113 115.362 138.939C115.216 138.765 115.143 138.519 115.143 138.199V135.867H114.458V135.37H115.143V134.459H115.786ZM119.432 138.133C119.432 137.959 119.366 137.825 119.234 137.73C119.104 137.632 118.876 137.549 118.549 137.479C118.225 137.41 117.966 137.327 117.774 137.229C117.584 137.132 117.443 137.016 117.35 136.882C117.26 136.747 117.214 136.587 117.214 136.402C117.214 136.094 117.344 135.833 117.604 135.62C117.865 135.407 118.199 135.3 118.605 135.3C119.031 135.3 119.376 135.41 119.64 135.63C119.907 135.851 120.04 136.132 120.04 136.475H119.394C119.394 136.299 119.318 136.147 119.168 136.02C119.019 135.892 118.832 135.829 118.605 135.829C118.371 135.829 118.188 135.88 118.055 135.982C117.923 136.083 117.857 136.217 117.857 136.381C117.857 136.536 117.919 136.653 118.042 136.732C118.164 136.811 118.386 136.886 118.705 136.958C119.027 137.03 119.288 137.116 119.487 137.215C119.687 137.315 119.834 137.435 119.929 137.577C120.026 137.716 120.075 137.886 120.075 138.088C120.075 138.424 119.94 138.694 119.672 138.898C119.403 139.099 119.054 139.2 118.625 139.2C118.324 139.2 118.058 139.147 117.826 139.04C117.594 138.933 117.413 138.785 117.28 138.595C117.151 138.403 117.086 138.195 117.086 137.973H117.729C117.74 138.188 117.826 138.36 117.986 138.487C118.148 138.613 118.361 138.675 118.625 138.675C118.869 138.675 119.063 138.626 119.209 138.529C119.358 138.429 119.432 138.297 119.432 138.133Z" fill="#030B20"/>
<path d="M75.4612 155.252H74.8148V150.967L73.5184 151.443V150.859L75.3604 150.167H75.4612V155.252ZM77.6404 152.715L77.8976 150.192H80.4904V150.786H78.4433L78.2903 152.166C78.5383 152.02 78.8198 151.947 79.1349 151.947C79.596 151.947 79.9621 152.1 80.2332 152.405C80.5043 152.709 80.6398 153.12 80.6398 153.639C80.6398 154.161 80.4985 154.572 80.2158 154.873C79.9354 155.172 79.5427 155.321 79.0376 155.321C78.5904 155.321 78.2255 155.198 77.9428 154.95C77.6601 154.702 77.4991 154.359 77.4597 153.921H78.0679C78.1073 154.21 78.2104 154.429 78.3772 154.578C78.5441 154.724 78.7642 154.797 79.0376 154.797C79.3365 154.797 79.5705 154.695 79.7397 154.491C79.9111 154.287 79.9969 154.005 79.9969 153.646C79.9969 153.308 79.9042 153.037 79.7188 152.833C79.5358 152.627 79.2913 152.524 78.9855 152.524C78.7051 152.524 78.485 152.585 78.3251 152.708L78.1548 152.847L77.6404 152.715Z" fill="#030B20"/>
<path d="M218.072 95.8642C222.445 90.1396 226.949 84.3527 235.683 80.9111C238.608 79.6182 241.668 78.6281 244.811 77.9573C252.334 76.4026 262.162 76.7657 270.299 80.6777" stroke="#FF0000" stroke-width="14.2359"/>
<path d="M267.903 78.6928C269.493 79.3985 274.839 82.2862 276.843 84.0819C279.21 85.6156 282.595 88.7409 286.601 94.8142C288.422 97.5011 289.03 100.071 290.245 103.73" stroke="#FFC107" stroke-width="14.233"/>
<path d="M74.384 17H434.39C435.356 17 436.283 17.3692 436.966 18.0265C437.65 18.6838 438.034 19.5752 438.034 20.5047V24.0094H70.7402V20.5047C70.7402 19.5752 71.1241 18.6838 71.8074 18.0265C72.4908 17.3692 73.4176 17 74.384 17V17Z" fill="url(#paint2_linear)"/>
<defs>
<filter id="filter0_d" x="28.0332" y="0.596781" width="452.709" height="250.837" filterUnits="userSpaceOnUse" color-interpolation-filters="sRGB">
<feFlood flood-opacity="0" result="BackgroundImageFix"/>
<feColorMatrix in="SourceAlpha" type="matrix" values="0 0 0 0 0 0 0 0 0 0 0 0 0 0 0 0 0 0 127 0"/>
<feOffset dy="23.7265"/>
<feGaussianBlur stdDeviation="21.3539"/>
<feColorMatrix type="matrix" values="0 0 0 0 0 0 0 0 0 0.298039 0 0 0 0 1 0 0 0 0.2 0"/>
<feBlend mode="normal" in2="BackgroundImageFix" result="effect1_dropShadow"/>
<feBlend mode="normal" in="SourceGraphic" in2="effect1_dropShadow" result="shape"/>
</filter>
<filter id="filter1_d" x="0.0187798" y="109.513" width="164.766" height="80.7198" filterUnits="userSpaceOnUse" color-interpolation-filters="sRGB">
<feFlood flood-opacity="0" result="BackgroundImageFix"/>
<feColorMatrix in="SourceAlpha" type="matrix" values="0 0 0 0 0 0 0 0 0 0 0 0 0 0 0 0 0 0 127 0"/>
<feOffset dy="2.37265"/>
<feGaussianBlur stdDeviation="9.49061"/>
<feColorMatrix type="matrix" values="0 0 0 0 0 0 0 0 0 0.298039 0 0 0 0 1 0 0 0 0.2 0"/>
<feBlend mode="normal" in2="BackgroundImageFix" result="effect1_dropShadow"/>
<feBlend mode="normal" in="SourceGraphic" in2="effect1_dropShadow" result="shape"/>
</filter>
<filter id="filter2_d" x="23.4799" y="134.159" width="39.4333" height="9.86875" filterUnits="userSpaceOnUse" color-interpolation-filters="sRGB">
<feFlood flood-opacity="0" result="BackgroundImageFix"/>
<feColorMatrix in="SourceAlpha" type="matrix" values="0 0 0 0 0 0 0 0 0 0 0 0 0 0 0 0 0 0 127 0"/>
<feOffset dy="0.949061"/>
<feGaussianBlur stdDeviation="0.949061"/>
<feColorMatrix type="matrix" values="0 0 0 0 0.270588 0 0 0 0 0.352941 0 0 0 0 0.392157 0 0 0 0.102 0"/>
<feBlend mode="normal" in2="BackgroundImageFix" result="effect1_dropShadow"/>
<feBlend mode="normal" in="SourceGraphic" in2="effect1_dropShadow" result="shape"/>
</filter>
<filter id="filter3_d" x="23.0225" y="150.281" width="29.9645" height="9.93687" filterUnits="userSpaceOnUse" color-interpolation-filters="sRGB">
<feFlood flood-opacity="0" result="BackgroundImageFix"/>
<feColorMatrix in="SourceAlpha" type="matrix" values="0 0 0 0 0 0 0 0 0 0 0 0 0 0 0 0 0 0 127 0"/>
<feOffset dy="0.949061"/>
<feGaussianBlur stdDeviation="0.949061"/>
<feColorMatrix type="matrix" values="0 0 0 0 0.270588 0 0 0 0 0.352941 0 0 0 0 0.392157 0 0 0 0.102 0"/>
<feBlend mode="normal" in2="BackgroundImageFix" result="effect1_dropShadow"/>
<feBlend mode="normal" in="SourceGraphic" in2="effect1_dropShadow" result="shape"/>
</filter>
<linearGradient id="paint0_linear" x1="337.467" y1="86.1674" x2="337.467" y2="93.1768" gradientUnits="userSpaceOnUse">
<stop stop-color="#FFB726"/>
<stop offset="1" stop-color="#FFC107"/>
</linearGradient>
<linearGradient id="paint1_linear" x1="337.467" y1="133.831" x2="337.467" y2="140.841" gradientUnits="userSpaceOnUse">
<stop stop-color="#004CFF"/>
<stop offset="1" stop-color="#1A90FF"/>
</linearGradient>
<linearGradient id="paint2_linear" x1="254.387" y1="17" x2="254.387" y2="24.0094" gradientUnits="userSpaceOnUse">
<stop stop-color="#00D4FF"/>
<stop offset="1" stop-color="#004CFF"/>
</linearGradient>
</defs>
</svg>
