<svg xmlns="http://www.w3.org/2000/svg" xmlns:xlink="http://www.w3.org/1999/xlink" width="44" height="45" viewBox="0 0 44 45"><defs><style>.a{fill:url(#a);}</style><linearGradient id="a" x1="0.5" x2="0.5" y2="1" gradientUnits="objectBoundingBox"><stop offset="0" stop-color="#00d4ff"/><stop offset="1" stop-color="#004cff"/></linearGradient></defs><g transform="translate(0 13.945)"><ellipse class="a" cx="3.923" cy="3.923" rx="3.923" ry="3.923" transform="translate(16.877 -10.94) rotate(-22.514)"/><path class="a" d="M165.36,129.179h13.724a1.1,1.1,0,0,0,1.07-1.37l-1.025-4.11a4.413,4.413,0,0,0-4.282-3.345H169.6a4.413,4.413,0,0,0-4.282,3.345l-1.025,4.11A1.1,1.1,0,0,0,165.36,129.179Z" transform="translate(-150.222 -122.848)"/><path class="a" d="M291.893,139.192a2.669,2.669,0,0,0-5.339.006v5.2a4.242,4.242,0,0,1,1.227,6.853l-5.614,5.614a1.3,1.3,0,1,1-1.842-1.842l5.614-5.614a1.637,1.637,0,0,0-2.315-2.315l-3.94,3.94a1.3,1.3,0,0,1-1.179.355l-1.475-.088a2.912,2.912,0,0,0-2.391.834l-2.112,2.112A5.209,5.209,0,0,0,271,157.934v10.327a.868.868,0,0,0,.868.868h9.2a.868.868,0,0,0,.868-.868v-2.91l8.706-8.706a4.367,4.367,0,0,0,1.279-3.1Z" transform="translate(-247.926 -138.074)"/><path class="a" d="M17.288,152.139a2.911,2.911,0,0,0-2.391-.834l-1.475.088a1.3,1.3,0,0,1-1.18-.355L8.3,147.1a1.637,1.637,0,0,0-2.315,2.315l5.614,5.614a1.3,1.3,0,1,1-1.842,1.842l-5.614-5.614A4.242,4.242,0,0,1,5.371,144.4v-5.2a2.669,2.669,0,0,0-5.339-.006L0,153.547a4.367,4.367,0,0,0,1.279,3.1l8.706,8.706v2.91a.868.868,0,0,0,.868.868h9.2a.868.868,0,0,0,.868-.868V157.934a5.209,5.209,0,0,0-1.526-3.684Z" transform="translate(0 -138.074)"/></g></svg>