<svg xmlns="http://www.w3.org/2000/svg" xmlns:xlink="http://www.w3.org/1999/xlink" width="25" height="40" viewBox="0 0 25 40"><defs><style>.a{fill:url(#a);}</style><linearGradient id="a" x1="0.5" x2="0.5" y2="1" gradientUnits="objectBoundingBox"><stop offset="0" stop-color="#00d4ff"/><stop offset="1" stop-color="#004cff"/></linearGradient></defs><g transform="translate(-91)"><path class="a" d="M102.364,25.8v2.619a3.5,3.5,0,0,0-2.273,3.3v4.766a3.411,3.411,0,1,0,6.818,0V31.719a3.5,3.5,0,0,0-2.273-3.3V25.8A12.756,12.756,0,0,0,116,12.969a12.508,12.508,0,1,0-25,0A12.756,12.756,0,0,0,102.364,25.8ZM99.287,12.14a1.112,1.112,0,0,1,1.607,0l1.469,1.515L106.106,9.8a1.112,1.112,0,0,1,1.607,0,1.2,1.2,0,0,1,0,1.657l-4.545,4.688a1.112,1.112,0,0,1-1.607,0L99.288,13.8A1.2,1.2,0,0,1,99.287,12.14Z" transform="translate(0 0)"/></g></svg>