<svg xmlns="http://www.w3.org/2000/svg" xmlns:xlink="http://www.w3.org/1999/xlink" width="121.97" height="121.697" viewBox="0 0 121.97 121.697"><defs><style>.a{fill:url(#a);}.b{fill:url(#j);}.c{filter:url(#t);}.d{filter:url(#q);}.e{filter:url(#n);}.f{filter:url(#k);}.g{filter:url(#e);}.h{filter:url(#b);}</style><linearGradient id="a" x1="0.5" x2="0.5" y2="1" gradientUnits="objectBoundingBox"><stop offset="0" stop-color="#00d4ff"/><stop offset="1" stop-color="#004cff"/></linearGradient><filter id="b" x="39.812" y="36.458" width="45" height="43.822" filterUnits="userSpaceOnUse"><feOffset dy="3" input="SourceAlpha"/><feGaussianBlur stdDeviation="2.5" result="c"/><feFlood flood-color="#215c78" flood-opacity="0.102"/><feComposite operator="in" in2="c"/><feComposite in="SourceGraphic"/></filter><filter id="e" x="46.442" y="68.243" width="31.74" height="24.605" filterUnits="userSpaceOnUse"><feOffset dy="3" input="SourceAlpha"/><feGaussianBlur stdDeviation="2.5" result="f"/><feFlood flood-color="#215c78" flood-opacity="0.102"/><feComposite operator="in" in2="f"/><feComposite in="SourceGraphic"/></filter><linearGradient id="j" x1="0.5" x2="0.5" y2="1" gradientUnits="objectBoundingBox"><stop offset="0" stop-color="#1ab3ff"/><stop offset="1" stop-color="#0095ff"/></linearGradient><filter id="k" x="0" y="4.899" width="69.798" height="69.798" filterUnits="userSpaceOnUse"><feOffset dx="1" dy="5" input="SourceAlpha"/><feGaussianBlur stdDeviation="10" result="l"/><feFlood flood-color="#004cff" flood-opacity="0.149"/><feComposite operator="in" in2="l"/><feComposite in="SourceGraphic"/></filter><filter id="n" x="6.692" y="0" width="64.899" height="64.899" filterUnits="userSpaceOnUse"><feOffset dx="1" dy="5" input="SourceAlpha"/><feGaussianBlur stdDeviation="10" result="o"/><feFlood flood-color="#004cff" flood-opacity="0.149"/><feComposite operator="in" in2="o"/><feComposite in="SourceGraphic"/></filter><filter id="q" x="52.172" y="47" width="69.798" height="69.798" filterUnits="userSpaceOnUse"><feOffset dx="1" dy="5" input="SourceAlpha"/><feGaussianBlur stdDeviation="10" result="r"/><feFlood flood-color="#004cff" flood-opacity="0.149"/><feComposite operator="in" in2="r"/><feComposite in="SourceGraphic"/></filter><filter id="t" x="50.379" y="56.798" width="64.899" height="64.899" filterUnits="userSpaceOnUse"><feOffset dx="1" dy="5" input="SourceAlpha"/><feGaussianBlur stdDeviation="10" result="u"/><feFlood flood-color="#004cff" flood-opacity="0.149"/><feComposite operator="in" in2="u"/><feComposite in="SourceGraphic"/></filter></defs><g transform="translate(-777.687 -4602.652)"><g transform="translate(726.051 4635)"><g transform="translate(98.948 8.61)"><g class="h" transform="matrix(1, 0, 0, 1, -47.31, -40.96)"><path class="a" d="M113.948,88.136a15.187,15.187,0,0,0-15,15.333,15.476,15.476,0,0,0,6.812,12.849v.639H112.5v-7.643a4.787,4.787,0,0,1-3.239-4.554,1.446,1.446,0,1,1,2.892,0,1.793,1.793,0,1,0,3.585,0,1.446,1.446,0,1,1,2.892,0,4.787,4.787,0,0,1-3.239,4.554v7.643h6.742v-.639a15.476,15.476,0,0,0,6.812-12.849A15.187,15.187,0,0,0,113.948,88.136Z" transform="translate(-51.64 -47.18)"/></g></g><g transform="translate(105.578 40.395)"><g class="g" transform="matrix(1, 0, 0, 1, -53.94, -72.74)"><path class="a" d="M170.272,413.62v1.235a8.37,8.37,0,0,0,16.74,0V413.62Z" transform="translate(-116.33 -340.88)"/></g></g><g transform="translate(112.47)"><g transform="translate(0)"><path class="a" d="M242.34,0a1.478,1.478,0,0,0-1.478,1.478V4.073a1.478,1.478,0,1,0,2.956,0V1.478A1.478,1.478,0,0,0,242.34,0Z" transform="translate(-240.862)"/></g></g><g transform="translate(106.162 1.069)"><g transform="translate(0)"><path class="a" d="M178.5,14.33,177.58,11.9a1.478,1.478,0,0,0-2.765,1.045l.917,2.427A1.478,1.478,0,0,0,178.5,14.33Z" transform="translate(-174.719 -10.947)"/></g></g><g transform="translate(117.86 1.069)"><path class="a" d="M300.519,11.041a1.478,1.478,0,0,0-1.905.86l-.917,2.427a1.478,1.478,0,1,0,2.765,1.045l.917-2.427A1.478,1.478,0,0,0,300.519,11.041Z" transform="translate(-297.601 -10.945)"/></g></g><g transform="matrix(-0.966, 0.259, -0.259, -0.966, 2797.924, 8901.646)"><g class="f" transform="matrix(-0.97, -0.26, 0.26, -0.97, 838.74, 4675.39)"><circle class="b" cx="4" cy="4" r="4" transform="matrix(-0.97, 0.26, -0.26, -0.97, 38.8, 37.63)"/></g><g class="e" transform="matrix(-0.97, -0.26, 0.26, -0.97, 838.74, 4675.39)"><circle class="b" cx="2" cy="2" r="2" transform="matrix(-0.97, 0.26, -0.26, -0.97, 40.59, 28.86)"/></g></g><g transform="matrix(0.966, -0.259, 0.259, 0.966, -1122.58, 415.354)"><g class="d" transform="matrix(0.97, 0.26, -0.26, 0.97, 751.76, 4536.44)"><circle class="b" cx="4" cy="4" r="4" transform="matrix(0.97, -0.26, 0.26, 0.97, 81.17, 74.07)"/></g><g class="c" transform="matrix(0.97, 0.26, -0.26, 0.97, 751.76, 4536.44)"><circle class="b" cx="2" cy="2" r="2" transform="matrix(0.97, -0.26, 0.26, 0.97, 79.38, 82.83)"/></g></g></g></svg>