<svg xmlns="http://www.w3.org/2000/svg" xmlns:xlink="http://www.w3.org/1999/xlink" width="48" height="40" viewBox="0 0 48 40"><defs><style>.a{fill:url(#a);}</style><linearGradient id="a" x1="0.5" x2="0.5" y2="1" gradientUnits="objectBoundingBox"><stop offset="0" stop-color="#00d4ff"/><stop offset="1" stop-color="#004cff"/></linearGradient></defs><g transform="translate(0 -38.84)"><g transform="translate(37.359 60.105)"><g transform="translate(0 0)"><path class="a" d="M402.206,273.32h-3.712a9.657,9.657,0,0,1,.585,3.319v14.03a4.138,4.138,0,0,1-.238,1.386h6.137a4.162,4.162,0,0,0,4.157-4.157v-7.648A6.937,6.937,0,0,0,402.206,273.32Z" transform="translate(-398.494 -273.32)"/></g></g><g transform="translate(0 60.105)"><path class="a" d="M10.056,276.64a9.656,9.656,0,0,1,.585-3.319H6.929A6.937,6.937,0,0,0,0,280.25V287.9a4.162,4.162,0,0,0,4.157,4.157h6.137a4.139,4.139,0,0,1-.238-1.386Z" transform="translate(0 -273.321)"/></g><g transform="translate(12.828 56.495)"><path class="a" d="M152.245,234.815h-8.486a6.937,6.937,0,0,0-6.929,6.929v14.03a1.386,1.386,0,0,0,1.386,1.386h19.573a1.386,1.386,0,0,0,1.386-1.386v-14.03A6.937,6.937,0,0,0,152.245,234.815Z" transform="translate(-136.829 -234.815)"/></g><g transform="translate(15.667 38.84)"><g transform="translate(0 0)"><path class="a" d="M175.447,38.84a8.332,8.332,0,1,0,8.333,8.333A8.343,8.343,0,0,0,175.447,38.84Z" transform="translate(-167.114 -38.84)"/></g></g><g transform="translate(3.135 46.41)"><g transform="translate(0 0)"><path class="a" d="M39.675,121.689a6.229,6.229,0,1,0,6.232,6.232A6.239,6.239,0,0,0,39.675,121.689Z" transform="translate(-33.443 -121.689)"/></g></g><g transform="translate(32.401 46.41)"><g transform="translate(0 0)"><path class="a" d="M351.839,121.689a6.232,6.232,0,1,0,6.232,6.232A6.239,6.239,0,0,0,351.839,121.689Z" transform="translate(-345.607 -121.689)"/></g></g></g></svg>