<svg xmlns="http://www.w3.org/2000/svg" xmlns:xlink="http://www.w3.org/1999/xlink" width="45" height="40" viewBox="0 0 45 40">
  <defs>
    <linearGradient id="linear-gradient" x1="0.5" x2="0.5" y2="1" gradientUnits="objectBoundingBox">
      <stop offset="0" stop-color="#00d4ff"/>
      <stop offset="1" stop-color="#004cff"/>
    </linearGradient>
  </defs>
  <g id="suitcase" transform="translate(0 -2)">
    <path id="Path_1864" data-name="Path 1864" d="M21.708,10.813A1.959,1.959,0,0,1,19.75,8.854V5.917H11.917V8.854A1.958,1.958,0,0,1,8,8.854V5.917A3.921,3.921,0,0,1,11.917,2H19.75a3.921,3.921,0,0,1,3.917,3.917V8.854A1.959,1.959,0,0,1,21.708,10.813Z" transform="translate(6.667)" fill="url(#linear-gradient)"/>
    <path id="Path_1865" data-name="Path 1865" d="M23.831,18.983a3.715,3.715,0,0,1-1.331.235,3.954,3.954,0,0,1-1.444-.274L0,11.62V26.562a5.272,5.272,0,0,0,5.156,5.385H39.844A5.272,5.272,0,0,0,45,26.562V11.62Z" transform="translate(0 10.052)" fill="url(#linear-gradient)"/>
    <path id="Path_1866" data-name="Path 1866" d="M45,10.385V14.87L22.95,22.547a1.332,1.332,0,0,1-.9,0L0,14.87V10.385A5.272,5.272,0,0,1,5.156,5H39.844A5.272,5.272,0,0,1,45,10.385Z" transform="translate(0 2.875)" fill="url(#linear-gradient)"/>
  </g>
</svg>
