<svg xmlns="http://www.w3.org/2000/svg" xmlns:xlink="http://www.w3.org/1999/xlink" width="184" height="184" viewBox="0 0 184 184">
  <defs>
    <linearGradient id="linear-gradient" x1="0.5" x2="0.5" y2="1" gradientUnits="objectBoundingBox">
      <stop offset="0" stop-color="#00d4ff"/>
      <stop offset="1" stop-color="#004cff"/>
    </linearGradient>
    <filter id="Rectangle_1046" x="0" y="0" width="184" height="184" filterUnits="userSpaceOnUse">
      <feOffset dy="5" input="SourceAlpha"/>
      <feGaussianBlur stdDeviation="20" result="blur"/>
      <feFlood flood-color="#004cff" flood-opacity="0.102"/>
      <feComposite operator="in" in2="blur"/>
      <feComposite in="SourceGraphic"/>
    </filter>
  </defs>
  <g id="Wallet_Icon" data-name="Wallet Icon" transform="translate(1145 -498)">
    <g id="Group_1617" data-name="Group 1617" transform="translate(-66 45)">
      <g transform="matrix(1, 0, 0, 1, -1079, 453)" filter="url(#Rectangle_1046)">
        <rect id="Rectangle_1046-2" data-name="Rectangle 1046" width="64" height="64" rx="17" transform="translate(60 55)" fill="url(#linear-gradient)"/>
      </g>
    </g>
    <g id="wallet" transform="translate(-1068.003 570)">
      <g id="Group_1619" data-name="Group 1619" transform="translate(0.003 0)">
        <g id="Group_1618" data-name="Group 1618" transform="translate(0 0)">
          <path id="Path_6859" data-name="Path 6859" d="M28.639,15.126V10.909A2.721,2.721,0,0,0,26.129,8.2L22.213,1.365a2.7,2.7,0,0,0-3.7-1L5.088,8.182H2.73A2.73,2.73,0,0,0,0,10.909V27.273A2.73,2.73,0,0,0,2.73,30H25.912a2.73,2.73,0,0,0,2.727-2.727V23.056A2.042,2.042,0,0,0,30,21.137V17.046A2.042,2.042,0,0,0,28.639,15.126ZM24.545,8.182H18.6l4.457-2.595ZM22.382,4.4l-6.49,3.778H13.2l8.509-4.954ZM19.2,1.546a1.319,1.319,0,0,1,1.013-.136,1.337,1.337,0,0,1,.819.633v0L10.49,8.182H7.8Zm8.078,25.727a1.365,1.365,0,0,1-1.364,1.364H2.73a1.365,1.365,0,0,1-1.364-1.364V10.909A1.365,1.365,0,0,1,2.73,9.546H25.912a1.365,1.365,0,0,1,1.364,1.364V15H23.185a4.091,4.091,0,1,0,0,8.182h4.091Zm1.364-6.136a.682.682,0,0,1-.682.682H23.185a2.727,2.727,0,1,1,0-5.454h4.773a.682.682,0,0,1,.682.682Z" transform="translate(-0.003 0)" fill="#fff"/>
          <path id="Path_6860" data-name="Path 6860" d="M342.729,277.341a1.392,1.392,0,1,0,1.392,1.392A1.394,1.394,0,0,0,342.729,277.341Z" transform="translate(-319.564 -259.65)" fill="#fff"/>
        </g>
      </g>
    </g>
  </g>
</svg>
