<svg xmlns="http://www.w3.org/2000/svg" width="13" height="16" viewBox="0 0 13 16">
  <g id="html" transform="translate(-72 -24)">
    <path id="Path_1745" data-name="Path 1745" d="M83.3,40H73.7A1.676,1.676,0,0,1,72,38.345V25.655A1.676,1.676,0,0,1,73.7,24h7.913L85,27.31V38.345A1.676,1.676,0,0,1,83.3,40Z" transform="translate(0)" fill="#a2a2a2"/>
    <path id="Path_1746" data-name="Path 1746" d="M72,360H85v2.845a1.7,1.7,0,0,1-1.7,1.707H73.7a1.7,1.7,0,0,1-1.7-1.707Z" transform="translate(0 -324.552)" fill="#455a64"/>
    <g id="Group_551" data-name="Group 551" transform="translate(74.474 24)">
      <path id="Path_1747" data-name="Path 1747" d="M347.414,27.414h-1.707A1.707,1.707,0,0,1,344,25.707V24Z" transform="translate(-336.888 -24)" fill="#fff"/>
      <path id="Path_1748" data-name="Path 1748" d="M145.991,155.983a.284.284,0,0,1-.2-.083l-1.707-1.707a.284.284,0,0,1,0-.4l1.707-1.707a.284.284,0,0,1,.4.4l-1.506,1.506,1.506,1.506a.284.284,0,0,1-.2.486Z" transform="translate(-144 -147.448)" fill="#fff"/>
      <path id="Path_1749" data-name="Path 1749" d="M304.284,155.983a.284.284,0,0,1-.2-.486l1.506-1.506-1.506-1.506a.284.284,0,1,1,.4-.4l1.707,1.707a.284.284,0,0,1,0,.4l-1.707,1.707A.284.284,0,0,1,304.284,155.983Z" transform="translate(-298.31 -147.448)" fill="#fff"/>
      <path id="Path_1750" data-name="Path 1750" d="M224.285,133.686a.285.285,0,0,1-.27-.375l1.707-5.121a.284.284,0,1,1,.54.18l-1.707,5.121A.285.285,0,0,1,224.285,133.686Z" transform="translate(-221.156 -124.298)" fill="#fff"/>
    </g>
    <path id="Path_1751" data-name="Path 1751" d="M129.422,384a.284.284,0,0,0-.284.284v.853h-.569v-.853a.284.284,0,0,0-.569,0v2.276a.284.284,0,0,0,.569,0v-.853h.569v.853a.284.284,0,0,0,.569,0v-2.276A.284.284,0,0,0,129.422,384Z" transform="translate(-54.024 -347.698)" fill="#fff"/>
    <path id="Path_1752" data-name="Path 1752" d="M193.422,384h-1.138a.284.284,0,1,0,0,.569h.284v1.991a.284.284,0,0,0,.569,0v-1.991h.284a.284.284,0,1,0,0-.569Z" transform="translate(-115.765 -347.698)" fill="#fff"/>
    <path id="Path_1753" data-name="Path 1753" d="M258.057,384.007a.284.284,0,0,0-.32.15l-.6,1.2-.6-1.2a.284.284,0,0,0-.539.127v2.276a.284.284,0,0,0,.569,0v-1.071l.315.629a.284.284,0,0,0,.509,0l.315-.629v1.071a.284.284,0,0,0,.569,0v-2.276A.284.284,0,0,0,258.057,384.007Z" transform="translate(-177.509 -347.698)" fill="#fff"/>
    <path id="Path_1754" data-name="Path 1754" d="M337.422,386.276h-.853v-1.991a.284.284,0,0,0-.569,0v2.276a.284.284,0,0,0,.284.284h1.138a.284.284,0,0,0,0-.569Z" transform="translate(-254.683 -347.698)" fill="#fff"/>
  </g>
</svg>
