<svg xmlns="http://www.w3.org/2000/svg" width="16" height="20" viewBox="0 0 16 20">
  <g id="money-bag" transform="translate(-48.032)">
    <path id="Path_5877" data-name="Path 5877" d="M340.2,120.384a11.456,11.456,0,0,1,2.123-.168V119a11.883,11.883,0,0,0-2.983.324Z" transform="translate(-280.116 -114.304)" fill="#001243"/>
    <path id="Path_5878" data-name="Path 5878" d="M95.95,119.324A11.882,11.882,0,0,0,92.967,119v1.216a11.456,11.456,0,0,1,2.123.168Z" transform="translate(-43.114 -114.304)" fill="#001243"/>
    <path id="Path_5879" data-name="Path 5879" d="M133.477,5.632a9.645,9.645,0,0,0,2.907-.387c.125-.033.251-.067.381-.1l1.441-3.777-.418-.268a9,9,0,0,0-8.623,0l-.418.268,1.441,3.777c.13.033.256.066.381.1A9.643,9.643,0,0,0,133.477,5.632Z" transform="translate(-77.445)" fill="#001243"/>
    <path id="Path_5880" data-name="Path 5880" d="M62.762,157.341a15.331,15.331,0,0,0-2.53-4.2c-.338.062-.634.136-.936.211a13.251,13.251,0,0,1-6.53,0c-.3-.076-.6-.15-.936-.211a16.757,16.757,0,0,0-3.8,9.742,3.948,3.948,0,0,0,1,2.967c1.183,1.16,3.172,1.116,5.475,1.066.493-.011,1-.022,1.523-.022s1.03.011,1.523.022c.459.01.905.02,1.335.02,1.728,0,3.193-.157,4.14-1.086a3.948,3.948,0,0,0,1-2.967A15.3,15.3,0,0,0,62.762,157.341ZM55.4,158.573a5.479,5.479,0,0,0,1.391.647,2.008,2.008,0,0,1-.213,3.824v.885H55.412V163.1a3.681,3.681,0,0,1-1.678-.784l.641-.982.49.321a1.57,1.57,0,0,0,1.128.3c.858.033,1.4-1.267.412-1.627a6,6,0,0,1-1.724-.83,1.786,1.786,0,0,1,.73-2.98v-.836h1.171v.751a4.618,4.618,0,0,1,1.582.646l-.556,1.033-.515-.278c-.409-.245-1.6-.573-1.789.379A.406.406,0,0,0,55.4,158.573Z" transform="translate(0 -146.939)" fill="#001243"/>
  </g>
</svg>
