<svg id="auction" xmlns="http://www.w3.org/2000/svg" xmlns:xlink="http://www.w3.org/1999/xlink" width="30" height="40" viewBox="0 0 30 40">
  <defs>
    <linearGradient id="linear-gradient" x1="0.5" x2="0.5" y2="1" gradientUnits="objectBoundingBox">
      <stop offset="0" stop-color="#00d4ff"/>
      <stop offset="1" stop-color="#004cff"/>
    </linearGradient>
  </defs>
  <path id="Path_1858" data-name="Path 1858" d="M0,1.172v11.8a1.171,1.171,0,0,0,1.172,1.172H8.2v2.422h4.688V14.141h7.031a1.171,1.171,0,0,0,1.172-1.172V1.172A1.171,1.171,0,0,0,19.922,0H1.172A1.171,1.171,0,0,0,0,1.172ZM6.2,6.281a1.171,1.171,0,0,1,1.657,0L9.375,7.8l3.859-3.859a1.172,1.172,0,0,1,1.657,1.657L10.2,10.282a1.171,1.171,0,0,1-1.657,0L6.2,7.938a1.171,1.171,0,0,1,0-1.657Zm0,0" fill="url(#linear-gradient)"/>
  <path id="Path_1859" data-name="Path 1859" d="M1.758,245.516h2.93V242H1.758a1.758,1.758,0,0,0,0,3.516Zm0,0" transform="translate(0 -223.094)" fill="url(#linear-gradient)"/>
  <path id="Path_1860" data-name="Path 1860" d="M61.758,470.516h3.516a1.758,1.758,0,0,0,0-3.516H61.758a1.758,1.758,0,0,0,0,3.516Zm0,0" transform="translate(-55.406 -430.516)" fill="url(#linear-gradient)"/>
  <path id="Path_1861" data-name="Path 1861" d="M31.758,395.516h3.516a1.758,1.758,0,0,0,0-3.516H31.758a1.758,1.758,0,0,0,0,3.516Zm0,0" transform="translate(-27.656 -361.375)" fill="url(#linear-gradient)"/>
  <path id="Path_1862" data-name="Path 1862" d="M1.758,320.516h2.93V317H1.758a1.758,1.758,0,0,0,0,3.516Zm0,0" transform="translate(0 -292.234)" fill="url(#linear-gradient)"/>
  <path id="Path_1863" data-name="Path 1863" d="M98.038,263.094a13.245,13.245,0,0,0,5.6-1.406,10.07,10.07,0,0,1,4.219-.937h4.406a1.16,1.16,0,0,0,1.172-1.172V247.859a1.16,1.16,0,0,0-1.172-1.172h-3.727a6.81,6.81,0,0,1-4.828-1.992,9.1,9.1,0,0,0-6.469-2.7h-6.07A1.16,1.16,0,0,0,90,243.172V250.2a1.16,1.16,0,0,0,1.172,1.172,3.511,3.511,0,0,0,3.516-3.516,1.172,1.172,0,0,1,2.344,0,5.859,5.859,0,0,0,5.859,5.859,1.172,1.172,0,0,1,0,2.344,8.173,8.173,0,0,1-7.277-4.491,5.918,5.918,0,0,1-1.752,1.464,3.99,3.99,0,0,1,.3,4.409,4.047,4.047,0,0,1,2.458,5.649Zm0,0" transform="translate(-83.437 -223.094)" fill="url(#linear-gradient)"/>
</svg>
