<svg width="27" height="16" viewBox="0 0 27 16" fill="none" xmlns="http://www.w3.org/2000/svg">
<path d="M26.9 7.674C26.687 7.361 21.578 0 13.5 0C6.56899 0 0.392993 7.31901 0.132993 7.62901C0.0469628 7.73273 -0.00012207 7.86324 -0.00012207 7.998C-0.00012207 8.13276 0.0469628 8.26328 0.132993 8.367C0.392993 8.679 6.56899 15.998 13.5 15.998C20.431 15.998 26.607 8.679 26.867 8.367C26.9463 8.27041 26.9923 8.15081 26.9983 8.02597C27.0042 7.90113 26.9698 7.7777 26.9 7.674V7.674ZM13.5 12.574C12.5928 12.5883 11.7018 12.3323 10.9405 11.8387C10.1792 11.345 9.58201 10.636 9.22493 9.80186C8.86785 8.96774 8.76703 8.04624 8.93531 7.15464C9.10359 6.26304 9.53335 5.44167 10.1699 4.79508C10.8064 4.14849 11.621 3.70593 12.5098 3.52371C13.3987 3.3415 14.3217 3.42788 15.1613 3.77186C16.0009 4.11584 16.7192 4.70186 17.2247 5.45534C17.7302 6.20881 18.0001 7.09566 18 8.00301C18.0072 9.20495 17.5376 10.3607 16.694 11.217C15.8505 12.0733 14.7019 12.5602 13.5 12.571V12.574Z" fill="white"/>
</svg>
