<svg width="20" height="20" viewBox="0 0 20 20" fill="none" xmlns="http://www.w3.org/2000/svg">
<g id="Help">
<path id="Vector" d="M10 20C15.5228 20 20 15.5228 20 10C20 4.47715 15.5228 0 10 0C4.47715 0 0 4.47715 0 10C0 15.5228 4.47715 20 10 20Z" fill="url(#paint0_linear)"/>
<path id="?" d="M8.44043 11.1973C8.44954 10.6549 8.51107 10.2266 8.625 9.91211C8.73893 9.59766 8.97135 9.24902 9.32227 8.86621L10.2178 7.94336C10.6006 7.51042 10.792 7.04557 10.792 6.54883C10.792 6.07031 10.6667 5.69661 10.416 5.42773C10.1654 5.1543 9.80078 5.01758 9.32227 5.01758C8.85742 5.01758 8.48372 5.14062 8.20117 5.38672C7.91862 5.63281 7.77734 5.96322 7.77734 6.37793H6.5127C6.52181 5.63965 6.78385 5.04492 7.29883 4.59375C7.81836 4.13802 8.49284 3.91016 9.32227 3.91016C10.1836 3.91016 10.8535 4.14258 11.332 4.60742C11.8151 5.06771 12.0566 5.70117 12.0566 6.50781C12.0566 7.30534 11.6875 8.09147 10.9492 8.86621L10.2041 9.60449C9.87142 9.97363 9.70508 10.5046 9.70508 11.1973H8.44043ZM8.38574 13.3643C8.38574 13.1592 8.44727 12.9883 8.57031 12.8516C8.69792 12.7103 8.88477 12.6396 9.13086 12.6396C9.37695 12.6396 9.5638 12.7103 9.69141 12.8516C9.81901 12.9883 9.88281 13.1592 9.88281 13.3643C9.88281 13.5693 9.81901 13.7402 9.69141 13.877C9.5638 14.0091 9.37695 14.0752 9.13086 14.0752C8.88477 14.0752 8.69792 14.0091 8.57031 13.877C8.44727 13.7402 8.38574 13.5693 8.38574 13.3643Z" fill="white"/>
</g>
<defs>
<linearGradient id="paint0_linear" x1="10" y1="0" x2="10" y2="20" gradientUnits="userSpaceOnUse">
<stop stop-color="#00FFFF"/>
<stop offset="1" stop-color="#004CFF"/>
</linearGradient>
</defs>
</svg>
