<svg xmlns="http://www.w3.org/2000/svg" xmlns:xlink="http://www.w3.org/1999/xlink" width="70" height="75" viewBox="0 0 70 75"><defs><style>.a{fill:url(#a);}.b{filter:url(#h);}.c{filter:url(#e);}.d{filter:url(#b);}</style><linearGradient id="a" x1="0.5" x2="0.5" y2="1" gradientUnits="objectBoundingBox"><stop offset="0" stop-color="#00d4ff"/><stop offset="1" stop-color="#004cff"/></linearGradient><filter id="b" x="4.336" y="0" width="61.238" height="61.519" filterUnits="userSpaceOnUse"><feOffset dy="5" input="SourceAlpha"/><feGaussianBlur stdDeviation="5" result="c"/><feFlood flood-color="#004cff" flood-opacity="0.302"/><feComposite operator="in" in2="c"/><feComposite in="SourceGraphic"/></filter><filter id="e" x="0" y="26.875" width="48.57" height="48.125" filterUnits="userSpaceOnUse"><feOffset dy="5" input="SourceAlpha"/><feGaussianBlur stdDeviation="5" result="f"/><feFlood flood-color="#004cff" flood-opacity="0.302"/><feComposite operator="in" in2="f"/><feComposite in="SourceGraphic"/></filter><filter id="h" x="21.426" y="26.812" width="48.574" height="48.188" filterUnits="userSpaceOnUse"><feOffset dy="5" input="SourceAlpha"/><feGaussianBlur stdDeviation="5" result="i"/><feFlood flood-color="#004cff" flood-opacity="0.302"/><feComposite operator="in" in2="i"/><feComposite in="SourceGraphic"/></filter></defs><g transform="translate(-17.205 10)"><g class="d" transform="matrix(1, 0, 0, 1, 17.2, -10)"><path class="a" d="M111.731,15.8A15.619,15.619,0,1,0,96.112,31.519,15.73,15.73,0,0,0,111.731,15.8ZM94.779,11a1.338,1.338,0,1,1,1.071,1.453A1.341,1.341,0,0,1,94.779,11Zm-3.8.886a1.344,1.344,0,1,1,.717,2.382,1.351,1.351,0,0,1-.717-2.382ZM101.4,19.212a2.952,2.952,0,0,1-3.759,2.853,5.522,5.522,0,0,0-3.054,0,2.951,2.951,0,0,1-3.759-2.853v-.193a5.286,5.286,0,1,1,10.572,0v.193Zm-1-4.934a1.349,1.349,0,0,1-1.035-2.2,1.333,1.333,0,0,1,1.982-.1A1.349,1.349,0,0,1,100.4,14.278Z" transform="translate(-61.16 10)"/></g><g class="c" transform="matrix(1, 0, 0, 1, 17.2, -10)"><path class="a" d="M38.346,310.141,32.39,320.457a1.375,1.375,0,0,0,1.477,2.028l6.108-1.292,1.945,6.115a1.372,1.372,0,0,0,2.5.269l6.357-11.133A18.383,18.383,0,0,1,38.346,310.141Z" transform="translate(-17.2 -273.27)"/></g><g class="b" transform="matrix(1, 0, 0, 1, 17.2, -10)"><path class="a" d="M291.327,319.815l-5.991-10.376a18.385,18.385,0,0,1-12.4,6.359l6.36,11.138a1.372,1.372,0,0,0,2.5-.265l1.946-6.117,6.11,1.292A1.375,1.375,0,0,0,291.327,319.815Z" transform="translate(-236.51 -272.63)"/></g><path class="a" d="M226.366,184.822a.265.265,0,0,0,.239.045,8.28,8.28,0,0,1,4.553,0,.272.272,0,0,0,.348-.263v-.193a2.625,2.625,0,1,0-5.249,0C226.257,184.6,226.234,184.723,226.366,184.822Z" transform="translate(-176.721 -165.834)"/></g></svg>