<svg xmlns="http://www.w3.org/2000/svg" xmlns:xlink="http://www.w3.org/1999/xlink" width="34" height="40" viewBox="0 0 34 40">
  <defs>
    <linearGradient id="linear-gradient" x1="0.5" x2="0.5" y2="1" gradientUnits="objectBoundingBox">
      <stop offset="0" stop-color="#00d4ff"/>
      <stop offset="1" stop-color="#004cff"/>
    </linearGradient>
  </defs>
  <g id="medal" transform="translate(-32.205)">
    <path id="Path_1872" data-name="Path 1872" d="M106.87,13.75C106.87,6.168,100.953,0,93.681,0S80.493,6.168,80.493,13.75a13.2,13.2,0,1,0,26.377,0ZM92.556,9.573A1.138,1.138,0,0,1,93.9,8.539a1.171,1.171,0,0,1,.887,1.378,1.133,1.133,0,0,1-1.329.92A1.169,1.169,0,0,1,92.556,9.573Zm-3.209.771A1.107,1.107,0,0,1,91,10.6a1.171,1.171,0,0,1-1.051,1.817,1.184,1.184,0,0,1-.605-2.073Zm8.8,6.371A2.508,2.508,0,0,1,94.971,19.2a4.53,4.53,0,0,0-2.579,0,2.508,2.508,0,0,1-3.174-2.482v-.168a4.466,4.466,0,1,1,8.927,0v.168ZM97.3,12.422a1.178,1.178,0,0,1-.874-1.915,1.1,1.1,0,0,1,1.674-.086,1.179,1.179,0,0,1-.8,2Z" transform="translate(-44.516)" fill="url(#linear-gradient)"/>
    <path id="Path_1873" data-name="Path 1873" d="M37.548,310.141l-5.182,8.975a1.2,1.2,0,0,0,1.285,1.764l5.314-1.124,1.692,5.32a1.193,1.193,0,0,0,2.173.234l5.531-9.686a15.994,15.994,0,0,1-10.813-5.484Z" transform="translate(0 -285.911)" fill="url(#linear-gradient)"/>
    <path id="Path_1874" data-name="Path 1874" d="M288.937,318.467l-5.212-9.028a16,16,0,0,1-10.785,5.532l5.534,9.691a1.193,1.193,0,0,0,2.173-.231l1.693-5.322,5.316,1.124A1.2,1.2,0,0,0,288.937,318.467Z" transform="translate(-222.895 -285.263)" fill="url(#linear-gradient)"/>
    <path id="Path_1875" data-name="Path 1875" d="M226.352,184.428a.23.23,0,0,0,.208.039,7.2,7.2,0,0,1,3.961,0,.237.237,0,0,0,.3-.229v-.168a2.284,2.284,0,1,0-4.567,0C226.257,184.233,226.237,184.341,226.352,184.428Z" transform="translate(-179.373 -167.585)" fill="url(#linear-gradient)"/>
  </g>
</svg>
