<svg xmlns="http://www.w3.org/2000/svg" width="100" height="17" viewBox="0 0 100 17">
  <g id="paystack-logo-vector" transform="translate(131.2 -222)">
    <path id="Path_6914" data-name="Path 6914" d="M-116.894,232.2h-13.468a.83.83,0,0,0-.838.806v1.437a.83.83,0,0,0,.838.806h13.468a.846.846,0,0,0,.854-.806v-1.422a.837.837,0,0,0-.854-.821Zm0,7.977h-13.468a.809.809,0,0,0-.586.237.754.754,0,0,0-.251.569v1.437a.83.83,0,0,0,.838.806h13.468a.835.835,0,0,0,.854-.806v-1.437a.835.835,0,0,0-.854-.806Zm-5.88,3.981h-7.589a.809.809,0,0,0-.586.237.819.819,0,0,0-.251.569V246.4a.83.83,0,0,0,.838.806h7.572a.817.817,0,0,0,.838-.79v-1.437a.781.781,0,0,0-.821-.821Zm6.734-7.977h-14.323a.809.809,0,0,0-.586.237.819.819,0,0,0-.251.569v1.437a.83.83,0,0,0,.838.806h14.306a.82.82,0,0,0,.838-.806v-1.437a.815.815,0,0,0-.821-.806Zm0,0" transform="translate(0 -8.491)" fill="#00c3f7"/>
    <path id="Path_6915" data-name="Path 6915" d="M9.6,226.866a4.353,4.353,0,0,0-1.448-.954,4.584,4.584,0,0,0-1.731-.334,3.838,3.838,0,0,0-1.681.35,3.13,3.13,0,0,0-.932.652v-.254a.541.541,0,0,0-.133-.35.486.486,0,0,0-.366-.159H1.467a.426.426,0,0,0-.349.159.411.411,0,0,0-.133.35v11.9a.541.541,0,0,0,.133.35.49.49,0,0,0,.349.143h1.9a.49.49,0,0,0,.349-.143.39.39,0,0,0,.15-.35V234.15a2.38,2.38,0,0,0,1,.62,4.656,4.656,0,0,0,3.3-.064,4.423,4.423,0,0,0,1.465-.954,4.6,4.6,0,0,0,1-1.495,4.655,4.655,0,0,0,.366-1.956,5.061,5.061,0,0,0-.366-1.972A5.2,5.2,0,0,0,9.6,226.866Zm-1.7,4.31a2.055,2.055,0,0,1-.449.684,2.085,2.085,0,0,1-1.5.62,1.908,1.908,0,0,1-.832-.175,2.375,2.375,0,0,1-.682-.445A1.907,1.907,0,0,1,4,231.176a2.229,2.229,0,0,1,0-1.67,2.086,2.086,0,0,1,.449-.668,2.427,2.427,0,0,1,.682-.461,2.166,2.166,0,0,1,.832-.175,1.98,1.98,0,0,1,.849.175,2.077,2.077,0,0,1,1.115,1.113,2.446,2.446,0,0,1-.017,1.686Zm13.247-5.343H19.274a.463.463,0,0,0-.349.143.492.492,0,0,0-.15.366v.223a2.455,2.455,0,0,0-.849-.62,3.926,3.926,0,0,0-1.648-.35,4.713,4.713,0,0,0-3.229,1.272,4.44,4.44,0,0,0-1.032,1.495,4.7,4.7,0,0,0-.383,1.972,4.792,4.792,0,0,0,.383,1.972A4.692,4.692,0,0,0,13.05,233.8a4.616,4.616,0,0,0,3.212,1.288,3.7,3.7,0,0,0,1.648-.35,3.021,3.021,0,0,0,.865-.62v.239a.482.482,0,0,0,.15.35.568.568,0,0,0,.349.143h1.881a.463.463,0,0,0,.349-.143.482.482,0,0,0,.15-.35v-8a.541.541,0,0,0-.133-.35.5.5,0,0,0-.366-.175Zm-2.546,5.343a2.055,2.055,0,0,1-.449.684,2.348,2.348,0,0,1-.666.461,2.063,2.063,0,0,1-1.681,0,2.427,2.427,0,0,1-.682-.461,1.907,1.907,0,0,1-.449-.684,2.4,2.4,0,0,1,0-1.67,1.993,1.993,0,0,1,.449-.668,2.211,2.211,0,0,1,.682-.461,2.025,2.025,0,0,1,1.664,0,2.093,2.093,0,0,1,.666.445,2.4,2.4,0,0,1,.449.668,2.193,2.193,0,0,1,.017,1.686Zm21.285-1.081a3.269,3.269,0,0,0-.915-.541,6.643,6.643,0,0,0-1.1-.318l-1.431-.27a1.754,1.754,0,0,1-.766-.27.433.433,0,0,1-.2-.35.454.454,0,0,1,.266-.382,1.544,1.544,0,0,1,.8-.175,3.015,3.015,0,0,1,1.065.207,6.539,6.539,0,0,1,.949.477.747.747,0,0,0,1.032-.079l.682-.747a.711.711,0,0,0,.216-.461.7.7,0,0,0-.266-.477,5.443,5.443,0,0,0-1.365-.747,6.128,6.128,0,0,0-2.313-.382,5.215,5.215,0,0,0-1.648.223,4.635,4.635,0,0,0-1.265.62,2.709,2.709,0,0,0-.815.954,2.6,2.6,0,0,0-.283,1.161,2.377,2.377,0,0,0,.7,1.8,3.552,3.552,0,0,0,1.847.891l1.5.318a3.421,3.421,0,0,1,.949.286.419.419,0,0,1,.266.4.521.521,0,0,1-.266.429,1.578,1.578,0,0,1-.882.207,2.769,2.769,0,0,1-1.182-.254,4.622,4.622,0,0,1-.965-.6,1.86,1.86,0,0,0-.433-.239.677.677,0,0,0-.6.175l-.815.588a.641.641,0,0,0-.283.684,1.466,1.466,0,0,0,.682.827,6.735,6.735,0,0,0,5.226.763,4.429,4.429,0,0,0,1.331-.636,2.655,2.655,0,0,0,.865-.986,2.618,2.618,0,0,0,.3-1.225,2.357,2.357,0,0,0-.233-1.113,3.409,3.409,0,0,0-.649-.747Zm8.221,2.179A.582.582,0,0,0,47.7,232a.856.856,0,0,0-.483.143,1.656,1.656,0,0,1-.766.239,1.521,1.521,0,0,1-.266-.032.465.465,0,0,1-.25-.127,1.046,1.046,0,0,1-.2-.27.969.969,0,0,1-.083-.477v-3.26h2.43a.554.554,0,0,0,.383-.159.473.473,0,0,0,.166-.35v-1.384a.4.4,0,0,0-.166-.35.529.529,0,0,0-.366-.143H45.652v-2.226a.457.457,0,0,0-.15-.35.678.678,0,0,0-.349-.143h-1.9a.529.529,0,0,0-.366.143.5.5,0,0,0-.166.35v2.226H41.641a.482.482,0,0,0-.366.159.541.541,0,0,0-.133.35v1.384a.541.541,0,0,0,.133.35.437.437,0,0,0,.366.159h1.082v3.88a2.847,2.847,0,0,0,.283,1.336,2.8,2.8,0,0,0,.732.906,2.7,2.7,0,0,0,1.032.509,4.247,4.247,0,0,0,1.182.175A5.148,5.148,0,0,0,47.5,234.8a2.931,2.931,0,0,0,1.215-.732.6.6,0,0,0,.067-.779ZM58.4,225.833H56.519a.5.5,0,0,0-.5.509v.223a2.309,2.309,0,0,0-.849-.62,3.926,3.926,0,0,0-1.648-.35,4.713,4.713,0,0,0-3.229,1.272,4.44,4.44,0,0,0-1.032,1.495,4.671,4.671,0,0,0-.383,1.956,4.792,4.792,0,0,0,.383,1.972,4.692,4.692,0,0,0,1.032,1.495,4.586,4.586,0,0,0,3.212,1.288,3.911,3.911,0,0,0,1.648-.334,2.808,2.808,0,0,0,.865-.62v.239a.424.424,0,0,0,.15.334.49.49,0,0,0,.349.143H58.4a.48.48,0,0,0,.5-.477v-8a.541.541,0,0,0-.133-.35.449.449,0,0,0-.366-.175Zm-2.53,5.343a2.055,2.055,0,0,1-.449.684,2.348,2.348,0,0,1-.666.461,2.184,2.184,0,0,1-.849.175,2.1,2.1,0,0,1-.832-.175,2.427,2.427,0,0,1-.682-.461,1.673,1.673,0,0,1-.433-.684,2.4,2.4,0,0,1,0-1.67,2.041,2.041,0,0,1,.433-.668,2.427,2.427,0,0,1,.682-.461,2.166,2.166,0,0,1,.832-.175,2.031,2.031,0,0,1,.849.175,2.3,2.3,0,0,1,.666.445,1.847,1.847,0,0,1,.449.668,2.27,2.27,0,0,1,0,1.686Zm12.848.97-1.082-.8a.58.58,0,0,0-.566-.143,1.343,1.343,0,0,0-.4.27,4.294,4.294,0,0,1-.815.716,1.883,1.883,0,0,1-1.048.239,2.053,2.053,0,0,1-1.182-.35,1.878,1.878,0,0,1-.749-.954,2.327,2.327,0,0,1-.15-.811,2.5,2.5,0,0,1,.15-.843,1.805,1.805,0,0,1,.433-.668,2.017,2.017,0,0,1,.666-.445,2.184,2.184,0,0,1,.849-.175,2,2,0,0,1,1.048.254,3.123,3.123,0,0,1,.815.716,1.092,1.092,0,0,0,.383.27.58.58,0,0,0,.566-.143l1.082-.779a.664.664,0,0,0,.283-.35.49.49,0,0,0-.05-.477,4.611,4.611,0,0,0-1.664-1.495,5.3,5.3,0,0,0-2.513-.588,5.573,5.573,0,0,0-1.964.366,4.883,4.883,0,0,0-1.581,1,4.633,4.633,0,0,0-1.065,5.232,4.381,4.381,0,0,0,1.065,1.495,5.149,5.149,0,0,0,3.545,1.368,5.3,5.3,0,0,0,2.513-.588,4.562,4.562,0,0,0,1.681-1.511.566.566,0,0,0,.05-.461,1,1,0,0,0-.3-.35Zm10.019,1.861-2.979-4.167,2.546-3.212a.547.547,0,0,0,.1-.525c-.05-.127-.166-.254-.483-.254H75.907a.786.786,0,0,0-.333.08.693.693,0,0,0-.3.27l-2.03,2.719h-.483v-6.425a.482.482,0,0,0-.15-.35.49.49,0,0,0-.349-.143H70.382a.529.529,0,0,0-.366.143.457.457,0,0,0-.15.35v11.848a.457.457,0,0,0,.15.35.529.529,0,0,0,.366.143h1.881a.463.463,0,0,0,.349-.143.482.482,0,0,0,.15-.35v-3.133h.533l2.213,3.244a.743.743,0,0,0,.649.382H78.27a.52.52,0,0,0,.516-.27.554.554,0,0,0-.05-.557Zm-46.9-8.174H29.725a.6.6,0,0,0-.433.159.7.7,0,0,0-.2.334l-1.564,5.534h-.383l-1.664-5.534a1.045,1.045,0,0,0-.166-.334.507.507,0,0,0-.383-.175H22.785c-.283,0-.449.08-.533.27a.83.83,0,0,0,0,.493l2.663,7.792a.805.805,0,0,0,.2.318.582.582,0,0,0,.4.143h1.132l-.1.254-.25.716a1.168,1.168,0,0,1-.416.557.989.989,0,0,1-.632.191,1.7,1.7,0,0,1-.566-.111,2.51,2.51,0,0,1-.5-.286.818.818,0,0,0-.483-.143h-.017a.594.594,0,0,0-.483.286l-.666.938c-.266.413-.116.668.05.811a3.427,3.427,0,0,0,1.248.7,4.908,4.908,0,0,0,1.581.254,3.7,3.7,0,0,0,2.38-.747,4.285,4.285,0,0,0,1.348-2.036l3.1-9.637a.676.676,0,0,0,.017-.509c-.017-.111-.133-.239-.416-.239Zm0,0" transform="translate(-110.038 0)" fill="#011b33"/>
  </g>
</svg>
