<svg xmlns="http://www.w3.org/2000/svg" width="16" height="20" viewBox="0 0 16 20">
  <g id="user_new" data-name="user new" transform="translate(0 0)">
    <path id="Path_5857" data-name="Path 5857" d="M91.506,9.634a4.18,4.18,0,0,0,3.164-1.411A4.847,4.847,0,0,0,95.98,4.817a4.848,4.848,0,0,0-1.311-3.406,4.251,4.251,0,0,0-6.327,0,4.847,4.847,0,0,0-1.311,3.406,4.847,4.847,0,0,0,1.311,3.406A4.181,4.181,0,0,0,91.506,9.634Zm0,0" transform="translate(-83.632)" fill="#001243"/>
    <path id="Path_5858" data-name="Path 5858" d="M15.961,253.034a12.383,12.383,0,0,0-.155-1.264,10.312,10.312,0,0,0-.3-1.271,6.416,6.416,0,0,0-.5-1.185,4.455,4.455,0,0,0-.755-1.026,3.314,3.314,0,0,0-1.085-.711,3.613,3.613,0,0,0-1.385-.261,1.374,1.374,0,0,0-.751.332c-.225.153-.488.33-.782.526a4.391,4.391,0,0,1-1.012.465,3.776,3.776,0,0,1-2.475,0,4.382,4.382,0,0,1-1.011-.465c-.291-.194-.554-.371-.783-.526a1.372,1.372,0,0,0-.75-.332,3.609,3.609,0,0,0-1.385.262,3.311,3.311,0,0,0-1.085.711,4.455,4.455,0,0,0-.755,1.026,6.429,6.429,0,0,0-.5,1.185,10.336,10.336,0,0,0-.3,1.27,12.34,12.34,0,0,0-.155,1.264c-.025.383-.038.78-.038,1.181a3.4,3.4,0,0,0,.946,2.512,3.325,3.325,0,0,0,2.437.927h9.234a3.324,3.324,0,0,0,2.437-.927A3.4,3.4,0,0,0,16,254.216c0-.4-.013-.8-.039-1.181Zm0,0" transform="translate(0 -237.655)" fill="#001243"/>
  </g>
</svg>
