<svg xmlns="http://www.w3.org/2000/svg" width="35" height="35" viewBox="0 0 35 35"><defs><style>.a{fill:#fff;}</style></defs><g transform="translate(0 0)"><path class="a" d="M24.227,23.543h-2.1l-1.09-.485V21.735a7.4,7.4,0,0,0,3.346-3.853h.935a4.036,4.036,0,0,0,2.147-7.454v-.46a9.967,9.967,0,0,0-19.934,0v.46A4.036,4.036,0,0,0,9.68,17.882h.935a7.4,7.4,0,0,0,3.346,3.853v1.318l-1.1.49H10.773A10.785,10.785,0,0,0,0,34.316.684.684,0,0,0,.684,35h13.74a.684.684,0,1,0,0-1.367H1.392a9.42,9.42,0,0,1,8.943-8.712c0,.006,0,.011-.006.017a.684.684,0,0,0,.092.572l3.234,4.754a.684.684,0,0,0,.5.3q.032,0,.064,0a.684.684,0,0,0,.483-.2l2.791-2.791,2.791,2.791a.684.684,0,0,0,.483.2l.064,0a.684.684,0,0,0,.5-.3l3.234-4.754a.684.684,0,0,0,.092-.572c0-.006,0-.011-.006-.017a9.419,9.419,0,0,1,8.955,8.712H20.576a.684.684,0,1,0,0,1.367h13.74A.684.684,0,0,0,35,34.316,10.785,10.785,0,0,0,24.227,23.543Zm-.75-12.905A7.9,7.9,0,0,1,19.635,9a.684.684,0,0,0-.84-.006,8.276,8.276,0,0,1-5.08,1.722,8.358,8.358,0,0,1-2.189-.292v-.348a5.975,5.975,0,0,1,11.949,0s0,.543,0,.562Zm1.843,5.877h-.462V11.174h.462a2.67,2.67,0,0,1,0,5.341ZM17.5,1.367a8.609,8.609,0,0,1,8.6,8.516,4.041,4.041,0,0,0-.779-.076h-.484a7.341,7.341,0,0,0-14.673,0H9.68a4.037,4.037,0,0,0-.779.076,8.609,8.609,0,0,1,8.6-8.516ZM10.142,16.515H9.68a2.67,2.67,0,0,1,0-5.341h.462v5.341Zm1.367-1.229V11.831a9.737,9.737,0,0,0,2.206.252,9.623,9.623,0,0,0,5.491-1.7,9.256,9.256,0,0,0,4.286,1.633v3.305a5.966,5.966,0,0,1-.3,1.837H19.926a2.06,2.06,0,0,0-1.939-1.373h-.915a2.056,2.056,0,0,0,0,4.112h.915a2.059,2.059,0,0,0,1.939-1.373h2.611a5.99,5.99,0,0,1-11.028-3.241Zm7.168,2.557a.69.69,0,0,1-.689.689h-.915a.689.689,0,0,1,0-1.378h.915A.69.69,0,0,1,18.677,17.842Zm-1.177,4.8a7.334,7.334,0,0,0,2.172-.327V23.46l-2.178,2.178-2.166-2.166V22.317a7.334,7.334,0,0,0,2.172.327Zm-3.18,6.168-2.309-3.395,2.3-1.025L16.527,26.6Zm6.347,0L18.461,26.6l2.213-2.213,2.3,1.025Z" transform="translate(0 0)"/><path class="a" d="M246.672,492a.673.673,0,1,0,.475.2A.677.677,0,0,0,246.672,492Z" transform="translate(-229.172 -458.344)"/></g></svg>