<svg xmlns="http://www.w3.org/2000/svg" xmlns:xlink="http://www.w3.org/1999/xlink" width="88.813" height="91.849" viewBox="0 0 88.813 91.849"><defs><style>.a{fill:url(#a);}.b{fill:url(#g);}.c{filter:url(#h);}.d{filter:url(#e);}.e{filter:url(#b);}</style><linearGradient id="a" x1="0.5" x2="0.5" y2="1" gradientUnits="objectBoundingBox"><stop offset="0" stop-color="#1ab3ff"/><stop offset="1" stop-color="#0095ff"/></linearGradient><filter id="b" x="0" y="4.899" width="69.798" height="69.798" filterUnits="userSpaceOnUse"><feOffset dx="1" dy="5" input="SourceAlpha"/><feGaussianBlur stdDeviation="10" result="c"/><feFlood flood-color="#004cff" flood-opacity="0.149"/><feComposite operator="in" in2="c"/><feComposite in="SourceGraphic"/></filter><filter id="e" x="6.692" y="0" width="64.899" height="64.899" filterUnits="userSpaceOnUse"><feOffset dx="1" dy="5" input="SourceAlpha"/><feGaussianBlur stdDeviation="10" result="f"/><feFlood flood-color="#004cff" flood-opacity="0.149"/><feComposite operator="in" in2="f"/><feComposite in="SourceGraphic"/></filter><linearGradient id="g" x1="0.5" x2="0.5" y2="1" gradientUnits="objectBoundingBox"><stop offset="0" stop-color="#00d4ff"/><stop offset="1" stop-color="#004cff"/></linearGradient><filter id="h" x="38.813" y="26.849" width="50" height="65" filterUnits="userSpaceOnUse"><feOffset dy="2" input="SourceAlpha"/><feGaussianBlur stdDeviation="2.5" result="i"/><feFlood flood-color="#455a64" flood-opacity="0.149"/><feComposite operator="in" in2="i"/><feComposite in="SourceGraphic"/></filter></defs><g transform="translate(-618.687 -5356.651)"><g transform="matrix(-0.966, 0.259, -0.259, -0.966, 661.348, 5393.243)"><g class="e" transform="matrix(-0.97, -0.26, 0.26, -0.97, 31.74, 46.39)"><circle class="a" cx="4" cy="4" r="4" transform="matrix(-0.97, 0.26, -0.26, -0.97, 38.8, 37.63)"/></g><g class="d" transform="matrix(-0.97, -0.26, 0.26, -0.97, 31.74, 46.39)"><circle class="a" cx="2" cy="2" r="2" transform="matrix(-0.97, 0.26, -0.26, -0.97, 40.59, 28.86)"/></g></g><g transform="translate(664.999 5389)"><g class="c" transform="matrix(1, 0, 0, 1, -46.31, -32.35)"><path class="b" d="M87.025,11.7c.809-.216,1.415-.707.672-1.527a.188.188,0,0,0-.3.04,1.4,1.4,0,0,1-1.272.435.631.631,0,0,0,.4-.3,1.146,1.146,0,0,0-.405-1.425,1.185,1.185,0,0,0-.5-.286,49.987,49.987,0,0,0,3.159-6.868c1.911-5.421-6,3.71-8.734,2.1S78.4-2.8,73.761,2.053c-3.267,3.417,1.811,6.548,5.1,8.1a13.7,13.7,0,0,1-1.988.158c-.739,0-1.476-.024-2.213-.087-.595-.051-2.1-.107-2.387-.828-.091-.234-.459-.132-.366.106.313.8,1.4.948,2.112,1.045a19.469,19.469,0,0,0,2.364.165l-.03,0a34.076,34.076,0,0,0-5.779,1.188c-.667.214-2.357.695-2.225,1.721.033.25.413.253.38,0-.148-1.157,3.171-1.693,3.855-1.847a49.531,49.531,0,0,1,5.817-.911c-5.535,2.843-13.223,11.154-13.223,21.316,0,12.3,7.834,17.815,17.5,17.815s17.5-5.515,17.5-17.815C100.179,22.113,93.653,15.157,87.025,11.7Zm.526-1.076c.315.56-.664.712-1.076.76-.024,0-.043,0-.066,0q-.412-.2-.823-.384A2.514,2.514,0,0,0,87.55,10.623ZM85.4,9.018a1.415,1.415,0,0,1,.142.027q.793.25.523,1.146a1.589,1.589,0,0,1-.689.03,4.588,4.588,0,0,1-.6-.088C84.98,9.781,85.19,9.407,85.4,9.018ZM83.668,30.474l-.433,1.618h-4.6q-.029.423-.029,1.451,0,1.059.029,1.512h4.937l-.434,1.618H78.755q.621,6.06,3.933,6.06,3.383,0,3.861-5.2h2.806Q88.7,44.97,82.689,44.97q-5.872,0-6.753-8.3H74.461V35.053H75.82q-.029-.453-.029-1.512c0-.685.01-1.167.029-1.45H74.461V30.472h1.475q.838-8.419,6.753-8.42a5.942,5.942,0,0,1,4.548,1.829,8.961,8.961,0,0,1,2.118,5.2h-2.8a6.436,6.436,0,0,0-1.222-3.522,3.229,3.229,0,0,0-2.639-1.269q-3.312,0-3.933,6.182h4.912Z" transform="translate(-18.87 32.35)"/></g></g></g></svg>