<svg xmlns="http://www.w3.org/2000/svg" xmlns:xlink="http://www.w3.org/1999/xlink" width="70" height="70" viewBox="0 0 70 70">
  <defs>
    <filter id="Ellipse_297" x="0" y="0" width="70" height="70" filterUnits="userSpaceOnUse">
      <feOffset dy="5" input="SourceAlpha"/>
      <feGaussianBlur stdDeviation="5" result="blur"/>
      <feFlood flood-color="#030b20" flood-opacity="0.102"/>
      <feComposite operator="in" in2="blur"/>
      <feComposite in="SourceGraphic"/>
    </filter>
    <linearGradient id="linear-gradient" x1="0.5" x2="0.5" y2="1" gradientUnits="objectBoundingBox">
      <stop offset="0" stop-color="#00d4ff"/>
      <stop offset="1" stop-color="#004cff"/>
    </linearGradient>
  </defs>
  <g id="Group_896" data-name="Group 896" transform="translate(-465 -826)">
    <g transform="matrix(1, 0, 0, 1, 465, 826)" filter="url(#Ellipse_297)">
      <circle id="Ellipse_297-2" data-name="Ellipse 297" cx="20" cy="20" r="20" transform="translate(15 10)" fill="#fff"/>
    </g>
    <g id="man-user" transform="translate(450.104 846)">
      <path id="Path_4822" data-name="Path 4822" d="M108.45,9.8c2.162,0,3.915-2.193,3.915-4.9S111.79,0,108.45,0s-3.915,2.193-3.915,4.9S106.288,9.8,108.45,9.8Z" transform="translate(-59.055)" fill="url(#linear-gradient)"/>
      <path id="Path_4823" data-name="Path 4823" d="M41.9,300.457c0-.165,0-.047,0,0Z" transform="translate(0 -283.212)" fill="url(#linear-gradient)"/>
      <path id="Path_4824" data-name="Path 4824" d="M308.085,301.636c0-.045,0-.313,0,0Z" transform="translate(-251.191 -284.262)" fill="url(#linear-gradient)"/>
      <path id="Path_4825" data-name="Path 4825" d="M56.9,184.645c-.074-4.712-.679-6.055-5.316-6.9a3.22,3.22,0,0,1-4.348,0c-4.586.841-5.229,2.163-5.314,6.752-.007.375-.01.394-.011.351,0,.081,0,.232,0,.5,0,0,1.1,2.26,7.5,2.26s7.5-2.26,7.5-2.26c0-.169,0-.286,0-.366A3.086,3.086,0,0,1,56.9,184.645Z" transform="translate(-0.012 -167.598)" fill="url(#linear-gradient)"/>
    </g>
  </g>
</svg>
