<svg xmlns="http://www.w3.org/2000/svg" xmlns:xlink="http://www.w3.org/1999/xlink" width="70" height="70" viewBox="0 0 70 70">
  <defs>
    <filter id="Ellipse_298" x="0" y="0" width="70" height="70" filterUnits="userSpaceOnUse">
      <feOffset dy="5" input="SourceAlpha"/>
      <feGaussianBlur stdDeviation="5" result="blur"/>
      <feFlood flood-color="#030b20" flood-opacity="0.102"/>
      <feComposite operator="in" in2="blur"/>
      <feComposite in="SourceGraphic"/>
    </filter>
    <linearGradient id="linear-gradient" x1="0.5" x2="0.5" y2="1" gradientUnits="objectBoundingBox">
      <stop offset="0" stop-color="#00d4ff"/>
      <stop offset="1" stop-color="#004cff"/>
    </linearGradient>
  </defs>
  <g id="Group_895" data-name="Group 895" transform="translate(-458 -891)">
    <g transform="matrix(1, 0, 0, 1, 458, 891)" filter="url(#Ellipse_298)">
      <circle id="Ellipse_298-2" data-name="Ellipse 298" cx="20" cy="20" r="20" transform="translate(15 10)" fill="#fff"/>
    </g>
    <g id="time" transform="translate(397.084 911)">
      <path id="Path_4826" data-name="Path 4826" d="M100.846,3.592a1.335,1.335,0,0,0,1.071-1.321V1.343A1.326,1.326,0,0,0,100.612,0H90.222a1.326,1.326,0,0,0-1.3,1.343v.928a1.335,1.335,0,0,0,1.071,1.321C89.99,3.6,100.844,3.6,100.846,3.592Z" transform="translate(-0.001)" fill="url(#linear-gradient)"/>
      <path id="Path_4827" data-name="Path 4827" d="M175.689,344.818a13.126,13.126,0,0,0-1.214-.825c-.839-.513-1.682-.94-2.075-1.133-.4.194-1.242.623-2.083,1.137a13.1,13.1,0,0,0-1.207.821Z" transform="translate(-76.984 -329.502)" fill="url(#linear-gradient)"/>
      <path id="Path_4828" data-name="Path 4828" d="M130.112,181.341c.774.932,1.54,1.717,2.012,2.182-.472.465-1.238,1.25-2.012,2.182a14.636,14.636,0,0,0-2.068,3.108,9.058,9.058,0,0,1,2.216-1.705c1.227-.739,2.433-1.294,2.484-1.317a.559.559,0,0,1,.467,0c.051.023,1.257.578,2.484,1.317a9.059,9.059,0,0,1,2.216,1.705,14.634,14.634,0,0,0-2.068-3.108c-.774-.932-1.54-1.717-2.012-2.182.472-.465,1.238-1.25,2.012-2.182q.358-.431.666-.841h-7.062Q129.755,180.91,130.112,181.341Z" transform="translate(-37.561 -173.57)" fill="url(#linear-gradient)"/>
      <path id="Path_4829" data-name="Path 4829" d="M126.483,120.5a9.741,9.741,0,0,0,.638,1.2h8.716a9.749,9.749,0,0,0,.638-1.2Z" transform="translate(-36.063 -115.8)" fill="url(#linear-gradient)"/>
      <path id="Path_4830" data-name="Path 4830" d="M90.1,422.032a1.265,1.265,0,0,0-.439.118,1.347,1.347,0,0,0-.746,1.213v.928a1.324,1.324,0,0,0,1.3,1.343h10.39a1.324,1.324,0,0,0,1.3-1.343v-.928a1.347,1.347,0,0,0-.746-1.213,1.265,1.265,0,0,0-.439-.118Z" transform="translate(0 -405.634)" fill="url(#linear-gradient)"/>
    </g>
  </g>
</svg>
