<svg width="907" height="907" viewBox="0 0 907 907" fill="none" xmlns="http://www.w3.org/2000/svg">
<path class="projectBg" opacity="0.35" d="M453.5 0C703.961 0 907 203.039 907 453.5C907 703.961 703.961 907 453.5 907C203.039 907 0 703.961 0 453.5C0 203.039 203.039 0 453.5 0Z" fill="url(#paint0_linear)"/>
<path opacity="0.9" d="M207.971 122C207.971 122 333.765 169.4 461.99 169.4C590.215 169.4 720.87 122 720.87 122C730.54 122 739.815 125.842 746.653 132.679C753.49 139.517 757.332 148.792 757.332 158.462C757.332 158.462 705.07 290.941 705.07 422.2C705.07 553.459 757.332 683.511 757.332 683.511C757.332 693.181 753.49 702.456 746.653 709.294C739.815 716.131 730.54 719.973 720.87 719.973C720.87 719.973 590.215 670.146 461.99 670.146C333.765 670.146 207.971 719.977 207.971 719.977C187.834 719.977 171.509 683.515 171.509 683.515C171.509 683.515 84 546.175 84 414.912C84 283.649 171.509 158.462 171.509 158.462C171.509 158.462 187.834 122 207.971 122Z" fill="#D8F6FF"/>
<path opacity="0.9" d="M251.725 186.416C251.725 186.416 377.519 233.816 505.744 233.816C633.969 233.816 764.624 186.416 764.624 186.416C774.294 186.416 783.568 190.258 790.406 197.095C797.244 203.933 801.086 213.208 801.086 222.878C801.086 222.878 748.824 355.357 748.824 486.616C748.824 617.875 801.086 747.927 801.086 747.927C801.086 757.597 797.244 766.872 790.406 773.71C783.568 780.547 774.294 784.389 764.624 784.389C764.624 784.389 633.969 734.562 505.744 734.562C377.519 734.562 251.725 784.393 251.725 784.393C231.588 784.393 215.263 747.931 215.263 747.931C215.263 747.931 127.754 610.591 127.754 479.328C127.754 348.065 215.263 222.878 215.263 222.878C215.263 222.878 231.588 186.416 251.725 186.416Z" fill="white"/>
<g opacity="0.1">
<path d="M749.529 486.754C667.804 486.332 626.941 386.072 654.275 319.016C663.257 291.439 682.816 268.554 708.658 255.386C734.5 242.219 764.512 239.846 792.102 248.789" fill="#D8F6FF"/>
<path d="M749.529 486.754C667.804 486.332 626.941 386.072 654.275 319.016C663.257 291.439 682.816 268.554 708.658 255.386C734.5 242.219 764.512 239.846 792.102 248.789" stroke="#215C78" stroke-width="70"/>
</g>
<path class="projectTriangle" opacity="0.1" d="M508.041 46.4616C508.66 45.9186 509.402 45.5365 510.204 45.3493C511.005 45.1622 511.84 45.1757 512.635 45.3887C513.43 45.6016 514.16 46.0075 514.76 46.5703C515.361 47.1331 515.813 47.8353 516.077 48.6148L566.891 198.655C567.181 199.512 567.234 200.432 567.042 201.317C566.85 202.202 566.422 203.018 565.803 203.678C565.185 204.338 564.398 204.818 563.528 205.067C562.657 205.315 561.736 205.323 560.861 205.089L391.023 159.58C390.148 159.346 389.354 158.879 388.725 158.229C388.095 157.578 387.654 156.769 387.448 155.888C387.242 155.006 387.279 154.086 387.556 153.224C387.832 152.362 388.338 151.591 389.018 150.994L508.041 46.4616Z" fill="#004CFF"/>
<path d="M222.879 199.908L179.151 225.154C174.368 227.915 172.73 234.031 175.491 238.814L257.861 381.484C260.623 386.267 266.739 387.906 271.522 385.144L315.25 359.898C320.033 357.137 321.672 351.021 318.91 346.238L236.54 203.568C233.778 198.785 227.662 197.146 222.879 199.908Z" fill="#D8F6FF"/>
<path d="M291.507 365.265L279.383 372.265C276.992 373.646 276.172 376.704 277.553 379.095L286.553 394.684C287.934 397.075 290.992 397.894 293.383 396.514L305.507 389.514C307.899 388.133 308.718 385.075 307.338 382.684L298.338 367.095C296.957 364.704 293.899 363.884 291.507 365.265Z" fill="#D8F6FF"/>
<defs>
<linearGradient id="paint0_linear" x1="453.5" y1="0" x2="453.5" y2="907" gradientUnits="userSpaceOnUse">
<stop stop-color="#00FFFF"/>
<stop offset="1" stop-color="#004CFF"/>
</linearGradient>
</defs>
</svg>
