<svg xmlns="http://www.w3.org/2000/svg" xmlns:xlink="http://www.w3.org/1999/xlink" width="70" height="70" viewBox="0 0 70 70">
  <defs>
    <filter id="Ellipse_298" x="0" y="0" width="70" height="70" filterUnits="userSpaceOnUse">
      <feOffset dy="5" input="SourceAlpha"/>
      <feGaussianBlur stdDeviation="5" result="blur"/>
      <feFlood flood-color="#030b20" flood-opacity="0.102"/>
      <feComposite operator="in" in2="blur"/>
      <feComposite in="SourceGraphic"/>
    </filter>
    <linearGradient id="linear-gradient" x1="0.5" x2="0.5" y2="1" gradientUnits="objectBoundingBox">
      <stop offset="0" stop-color="#00d4ff"/>
      <stop offset="0.473" stop-color="#0094ff"/>
      <stop offset="1" stop-color="#004cff"/>
    </linearGradient>
  </defs>
  <g id="Group_911" data-name="Group 911" transform="translate(-871 -815)">
    <g transform="matrix(1, 0, 0, 1, 871, 815)" filter="url(#Ellipse_298)">
      <circle id="Ellipse_298-2" data-name="Ellipse 298" cx="20" cy="20" r="20" transform="translate(15 10)" fill="#fff"/>
    </g>
    <g id="bid" transform="translate(808 835)">
      <path id="Path_4832" data-name="Path 4832" d="M96.909,12.9v1.309a1.756,1.756,0,0,0-1.182,1.65v2.383a1.773,1.773,0,0,0,3.545,0V15.859a1.756,1.756,0,0,0-1.182-1.65V12.9a6.5,6.5,0,1,0-1.182,0Zm-1.6-6.83a.594.594,0,0,1,.836,0l.764.758L98.855,4.9a.594.594,0,0,1,.836,0,.582.582,0,0,1,0,.829L97.327,8.07a.594.594,0,0,1-.836,0L95.31,6.9A.582.582,0,0,1,95.31,6.07Z" transform="translate(0 0)" fill="url(#linear-gradient)"/>
    </g>
  </g>
</svg>
