<svg xmlns="http://www.w3.org/2000/svg" xmlns:xlink="http://www.w3.org/1999/xlink" width="33" height="40" viewBox="0 0 33 40"><defs><style>.a{fill:url(#a);}</style><linearGradient id="a" x1="0.5" x2="0.5" y2="1" gradientUnits="objectBoundingBox"><stop offset="0" stop-color="#00d4ff"/><stop offset="1" stop-color="#004cff"/></linearGradient></defs><g transform="translate(-33.908)"><g transform="translate(33.908 0)"><path class="a" d="M66.866,10.3c-.047-1.052-.047-2.057-.047-3.061A1.4,1.4,0,0,0,65.413,5.8C59.552,5.8,55.1,4.078,51.393.395a1.426,1.426,0,0,0-1.969,0C45.719,4.078,41.265,5.8,35.4,5.8A1.4,1.4,0,0,0,34,7.235c0,1,0,2.009-.047,3.061-.188,10.045-.469,23.821,15.989,29.608l.469.1.469-.1C67.288,34.117,67.054,20.389,66.866,10.3ZM49.283,24.215a1.5,1.5,0,0,1-.985.383h-.047a1.31,1.31,0,0,1-.985-.478l-4.361-4.927,2.11-1.913,3.423,3.874,7.6-7.366,1.922,2.1Z" transform="translate(-33.908 0)"/></g></g></svg>