<svg id="start-up" xmlns="http://www.w3.org/2000/svg" xmlns:xlink="http://www.w3.org/1999/xlink" width="40" height="40" viewBox="0 0 40 40">
  <defs>
    <linearGradient id="linear-gradient" x1="0.5" x2="0.5" y2="1" gradientUnits="objectBoundingBox">
      <stop offset="0" stop-color="#00d4ff"/>
      <stop offset="1" stop-color="#004cff"/>
    </linearGradient>
  </defs>
  <path id="Path_1876" data-name="Path 1876" d="M73.274,285.391a1.173,1.173,0,0,0,.219,1.355l.287.287c.828-.981,1.793-2.046,2.963-3.216.083-.083.168-.123.251-.2l-1.844-1.844C74.077,283.712,73.452,285.036,73.274,285.391Zm0,0" transform="translate(-67.434 -259.76)" fill="url(#linear-gradient)"/>
  <path id="Path_1877" data-name="Path 1877" d="M166.1,389.813c-1.173,1.173-2.235,2.14-3.211,2.968l.388.388a1.171,1.171,0,0,0,1.364.214c.607-.313,1.562-.762,3.588-1.891l-1.931-1.931C166.224,389.645,166.184,389.73,166.1,389.813Zm0,0" transform="translate(-150.165 -359.128)" fill="url(#linear-gradient)"/>
  <path id="Path_1878" data-name="Path 1878" d="M70.245,311.664c-.847-.847-3.228-.088-4.347,1.031a31.165,31.165,0,0,0-6.192,7.963,1.172,1.172,0,0,0,1.567,1.565c1.532-.744,4.153-2.426,7.94-6.213,1.23-1.231,1.837-3.541,1.033-4.345Zm0,0" transform="translate(-54.933 -286.981)" fill="url(#linear-gradient)"/>
  <path id="Path_1879" data-name="Path 1879" d="M3.659,166.59.344,169.9a1.172,1.172,0,0,0,1.132,1.961,9.63,9.63,0,0,1,4.429-.411,62.884,62.884,0,0,1,4.851-7.4c-.994-.637-4.279-.282-7.1,2.537Zm0,0" transform="translate(-0.001 -150.988)" fill="url(#linear-gradient)"/>
  <path id="Path_1880" data-name="Path 1880" d="M246.285,386.953a1.17,1.17,0,0,0,1.355-.218l3.315-3.315c2.566-2.567,3.018-5.879,2.436-6.929a66.883,66.883,0,0,1-7.406,4.814c.163.922.055,1.816-.331,4.429a1.169,1.169,0,0,0,.632,1.218Zm0,0" transform="translate(-226.45 -347.079)" fill="url(#linear-gradient)"/>
  <path id="Path_1881" data-name="Path 1881" d="M285.672,138.337a3.516,3.516,0,1,0,4.972,0A3.52,3.52,0,0,0,285.672,138.337Zm0,0" transform="translate(-262.406 -126.582)" fill="url(#linear-gradient)"/>
  <path id="Path_1882" data-name="Path 1882" d="M397.409,1.144A1.17,1.17,0,0,0,396.328.063a23.167,23.167,0,0,0-8.555,1,9.839,9.839,0,0,0,2.915,5.724,9.807,9.807,0,0,0,5.836,2.91,24.235,24.235,0,0,0,.885-8.55Zm0,0" transform="translate(-357.478 -0.001)" fill="url(#linear-gradient)"/>
  <path id="Path_1883" data-name="Path 1883" d="M136.959,30.562A12.311,12.311,0,0,1,133.436,24c-7.037,2.886-13.774,9.189-19.1,18.042l2.645,2.645c1.807-.734,4-.927,5.392.464s1.2,3.586.462,5.391l2.732,2.732c6.812-4.106,14.743-10.574,18.116-19.179a12.252,12.252,0,0,1-6.726-3.527ZM135.3,40.506a5.859,5.859,0,1,1,0-8.286A5.866,5.866,0,0,1,135.3,40.506Zm0,0" transform="translate(-105.406 -22.122)" fill="url(#linear-gradient)"/>
</svg>
