<svg xmlns="http://www.w3.org/2000/svg" xmlns:xlink="http://www.w3.org/1999/xlink" width="70" height="70" viewBox="0 0 70 70"><defs><style>.a{fill:#fff;}.b{fill:url(#c);}.c{filter:url(#a);}</style><filter id="a" x="0" y="0" width="70" height="70" filterUnits="userSpaceOnUse"><feOffset dy="5" input="SourceAlpha"/><feGaussianBlur stdDeviation="5" result="b"/><feFlood flood-color="#030b20" flood-opacity="0.102"/><feComposite operator="in" in2="b"/><feComposite in="SourceGraphic"/></filter><linearGradient id="c" x1="0.5" x2="0.5" y2="1" gradientUnits="objectBoundingBox"><stop offset="0" stop-color="#00d4ff"/><stop offset="1" stop-color="#004cff"/></linearGradient></defs><g transform="translate(-576 -960)"><g class="c" transform="matrix(1, 0, 0, 1, 576, 960)"><circle class="a" cx="20" cy="20" r="20" transform="translate(15 10)"/></g><g transform="translate(597.853 979.756)"><g transform="translate(2.794 -0.256)"><path class="b" d="M22.455,21.392a.841.841,0,0,0-.683-.564l-5.783-.823L13.4,14.871a.853.853,0,0,0-1.516,0L9.3,20.005l-5.783.823a.841.841,0,0,0-.682.564.817.817,0,0,0,.214.849l4.185,4-.988,5.644a.821.821,0,0,0,.336.81.86.86,0,0,0,.89.063l5.172-2.665,5.172,2.664a.86.86,0,0,0,.89-.063.821.821,0,0,0,.336-.81l-.988-5.643,4.185-4a.817.817,0,0,0,.214-.849Z" transform="translate(-2.794 -12.85)"/><path class="b" d="M163.515,31.136a1.108,1.108,0,0,1-1.106-1.106.286.286,0,1,0-.572,0,1.108,1.108,0,0,1-1.106,1.106.286.286,0,0,0,0,.572,1.108,1.108,0,0,1,1.107,1.106.286.286,0,1,0,.572,0,1.108,1.108,0,0,1,1.107-1.106.286.286,0,0,0,0-.572Z" transform="translate(-143.802 -26.646)"/><path class="b" d="M123.515,1.136A1.108,1.108,0,0,1,122.409.03a.286.286,0,1,0-.572,0,1.108,1.108,0,0,1-1.106,1.106.286.286,0,0,0,0,.572,1.108,1.108,0,0,1,1.107,1.106.286.286,0,1,0,.572,0,1.108,1.108,0,0,1,1.107-1.106.286.286,0,0,0,0-.572Z" transform="translate(-108.025 0.256)"/><path class="b" d="M35.515,26.136a1.108,1.108,0,0,1-1.106-1.106.286.286,0,1,0-.572,0,1.108,1.108,0,0,1-1.106,1.106.286.286,0,1,0,0,.572,1.108,1.108,0,0,1,1.107,1.106.286.286,0,1,0,.572,0,1.108,1.108,0,0,1,1.107-1.106.286.286,0,0,0,0-.572Z" transform="translate(-29.315 -22.085)"/></g></g></g></svg>