<svg width="29" height="29" viewBox="0 0 34 35" fill="none" xmlns="http://www.w3.org/2000/svg">
<g filter="url(#filter0_d)">
<path d="M17 3.5C19.3734 3.5 21.6935 4.20379 23.6668 5.52236C25.6402 6.84094 27.1783 8.71509 28.0866 10.9078C28.9948 13.1005 29.2324 15.5133 28.7694 17.8411C28.3064 20.1689 27.1635 22.3071 25.4853 23.9853C23.8071 25.6635 21.6689 26.8064 19.3411 27.2694C17.0133 27.7324 14.6005 27.4948 12.4078 26.5866C10.2151 25.6783 8.34094 24.1402 7.02236 22.1668C5.70379 20.1935 5 17.8734 5 15.5C5 12.3174 6.26428 9.26516 8.51472 7.01472C10.7652 4.76428 13.8174 3.5 17 3.5V3.5Z" fill="#FF9900"/>
</g>
<path d="M12.4126 20.2656L21.3674 11.3108" stroke="white" stroke-width="1.5" stroke-linecap="round"/>
<path d="M20.8879 16.566L21.8481 10.9926" stroke="white" stroke-width="1.5" stroke-linecap="round"/>
<path d="M15.9382 11.6162L21.8376 11.0074" stroke="white" stroke-width="1.5" stroke-linecap="round"/>
<defs>
<filter id="filter0_d" x="0" y="0.5" width="34" height="34" filterUnits="userSpaceOnUse" color-interpolation-filters="sRGB">
<feFlood flood-opacity="0" result="BackgroundImageFix"/>
<feColorMatrix in="SourceAlpha" type="matrix" values="0 0 0 0 0 0 0 0 0 0 0 0 0 0 0 0 0 0 127 0"/>
<feOffset dy="2"/>
<feGaussianBlur stdDeviation="2.5"/>
<feColorMatrix type="matrix" values="0 0 0 0 0 0 0 0 0 0 0 0 0 0 0 0 0 0 0.102 0"/>
<feBlend mode="normal" in2="BackgroundImageFix" result="effect1_dropShadow"/>
<feBlend mode="normal" in="SourceGraphic" in2="effect1_dropShadow" result="shape"/>
</filter>
</defs>
</svg>
