<svg xmlns="http://www.w3.org/2000/svg" xmlns:xlink="http://www.w3.org/1999/xlink" width="68.625" height="69.312" viewBox="0 0 68.625 69.312">
  <defs>
    <filter id="Rectangle_981" x="0" y="0.688" width="68.625" height="68.625" filterUnits="userSpaceOnUse">
      <feOffset dy="10" input="SourceAlpha"/>
      <feGaussianBlur stdDeviation="5" result="blur"/>
      <feFlood flood-color="#faa515" flood-opacity="0.2"/>
      <feComposite operator="in" in2="blur"/>
      <feComposite in="SourceGraphic"/>
    </filter>
    <filter id="Path_5894" x="11.266" y="8.815" width="37.23" height="44.83" filterUnits="userSpaceOnUse">
      <feOffset dy="5" input="SourceAlpha"/>
      <feGaussianBlur stdDeviation="5" result="blur-2"/>
      <feFlood flood-color="#001243" flood-opacity="0.302"/>
      <feComposite operator="in" in2="blur-2"/>
      <feComposite in="SourceGraphic"/>
    </filter>
  </defs>
  <g id="Group_1269" data-name="Group 1269" transform="translate(-9155.688 -705)">
    <rect id="Rectangle_980" data-name="Rectangle 980" width="50" height="50" rx="25" transform="translate(9165 705)" fill="#faa515" opacity="0.1"/>
    <g transform="matrix(1, 0, 0, 1, 9155.69, 705)" filter="url(#Rectangle_981)">
      <g id="Rectangle_981-2" data-name="Rectangle 981" transform="translate(15 5.69)" fill="#fff" stroke="#faa515" stroke-width="1">
        <rect width="38.625" height="38.625" rx="19.312" stroke="none"/>
        <rect x="0.5" y="0.5" width="37.625" height="37.625" rx="18.812" fill="none"/>
      </g>
    </g>
    <g id="price-tag" transform="translate(9181.954 719.712)">
      <g transform="matrix(1, 0, 0, 1, -26.27, -14.71)" filter="url(#Path_5894)">
        <path id="Path_5894-2" data-name="Path 5894" d="M66.711,104.5l-2.886,1.406a1.249,1.249,0,0,0-.582.613l-3.6,9.024a1.669,1.669,0,0,0,.848,2.2l3.581,1.587h2.659Z" transform="translate(-33.23 -85.69)" fill="#faa515"/>
      </g>
      <path id="Path_5895" data-name="Path 5895" d="M181.826,111.985v1.738a1.8,1.8,0,0,1-1.778,1.778h-7.31A1.762,1.762,0,0,1,171,113.724V103.491a1.279,1.279,0,0,1,.281-.83l2.2-2.663a1.3,1.3,0,0,1,1-.5h3.833a1.3,1.3,0,0,1,1,.5l2.2,2.663a1.317,1.317,0,0,1,.32.83v8.495Z" transform="translate(-167.038 -95.595)" fill="#fad207"/>
      <g id="Group_1292" data-name="Group 1292" transform="translate(6.461 10.278)">
        <path id="Path_5896" data-name="Path 5896" d="M236.546,264.415h0l-.01-.01-.016-.016-.409-.409-.058.115a1.279,1.279,0,0,0-.433-.075h-.04a1.283,1.283,0,0,0-1.214,1.7l-.12.062.423.424.005.005.006.006h0a1.28,1.28,0,0,0,.9.368h.04a1.283,1.283,0,0,0,.926-2.173Zm-.926,1.58h-.04a.691.691,0,1,1,0-1.383h.04a.691.691,0,1,1,0,1.383Z" transform="translate(-234.247 -263.751)" fill="#f8c201" fill-rule="evenodd"/>
        <path id="Path_5897" data-name="Path 5897" d="M243.568,258.592l-.4-.4-5.477,5.476.4.4a.3.3,0,0,0,.419,0l5.057-5.057A.3.3,0,0,0,243.568,258.592Z" transform="translate(-237.56 -258.197)" fill="#f8c201" fill-rule="evenodd"/>
        <path id="Path_5898" data-name="Path 5898" d="M334.763,343.9h0l-.327-.331.021.134a1.276,1.276,0,0,0-.535-.117h-.039a1.283,1.283,0,0,0-1.176,1.8l-.145-.021.393.393.043.043.009.009h0a1.279,1.279,0,0,0,.876.346h.039a1.283,1.283,0,0,0,.84-2.254Zm-.84,1.661h-.039a.691.691,0,1,1,0-1.383h.039a.691.691,0,1,1,0,1.383Z" transform="translate(-328.677 -340.194)" fill="#f8c201" fill-rule="evenodd"/>
      </g>
      <g id="Group_1293" data-name="Group 1293" transform="translate(6.115 10.16)">
        <path id="Path_5899" data-name="Path 5899" d="M235.8,261.65a.3.3,0,0,1-.21-.506l5.057-5.057a.3.3,0,0,1,.419.419l-5.057,5.057A.3.3,0,0,1,235.8,261.65Z" transform="translate(-235.104 -255.961)" fill="#f5f5f5"/>
        <path id="Path_5900" data-name="Path 5900" d="M226.824,257.568h-.04a1.284,1.284,0,1,1,0-2.568h.04a1.284,1.284,0,1,1,0,2.568Zm-.04-1.976a.691.691,0,0,0,0,1.383h.04a.691.691,0,0,0,0-1.383Z" transform="translate(-225.5 -255)" fill="#f5f5f5"/>
        <path id="Path_5901" data-name="Path 5901" d="M324.824,336.568h-.039a1.284,1.284,0,1,1,0-2.568h.039a1.284,1.284,0,1,1,0,2.568Zm-.039-1.976a.691.691,0,0,0,0,1.383h.039a.691.691,0,1,0,0-1.383Z" transform="translate(-319.628 -330.879)" fill="#f5f5f5"/>
      </g>
      <path id="Path_5902" data-name="Path 5902" d="M316.6,6.34a.3.3,0,0,1-.082-.581l.1-.032a2.232,2.232,0,0,0,1.511-2.113V.3a.3.3,0,0,1,.593,0V3.614a2.825,2.825,0,0,1-1.912,2.674c-.042.014-.085.028-.127.04A.3.3,0,0,1,316.6,6.34Z" transform="translate(-306.797 0.001)" fill="#e0a446"/>
      <path id="Path_5903" data-name="Path 5903" d="M285.428,133.857a.929.929,0,1,1,.928-.928A.93.93,0,0,1,285.428,133.857Z" transform="translate(-275.905 -126.541)" fill="#f5f5f5"/>
    </g>
  </g>
</svg>
