<svg width="35" height="24" viewBox="0 0 35 24" fill="none" xmlns="http://www.w3.org/2000/svg">
<path d="M34 5H1C0.447715 5 0 5.44772 0 6V7C0 7.55228 0.447715 8 1 8H34C34.5523 8 35 7.55228 35 7V6C35 5.44772 34.5523 5 34 5Z" fill="#051F64"/>
<path d="M1 20L34 20C34.5523 20 35 19.5523 35 19V18C35 17.4477 34.5523 17 34 17L1 17C0.447716 17 0 17.4477 0 18V19C0 19.5523 0.447716 20 1 20Z" fill="#051F64"/>
<path d="M10 12C13.3137 12 16 9.31371 16 6C16 2.68629 13.3137 0 10 0C6.68629 0 4 2.68629 4 6C4 9.31371 6.68629 12 10 12Z" fill="white"/>
<path d="M10 11C12.7614 11 15 8.76142 15 6C15 3.23858 12.7614 1 10 1C7.23858 1 5 3.23858 5 6C5 8.76142 7.23858 11 10 11Z" stroke="#051F64" stroke-width="2"/>
<path d="M25 12C21.6863 12 19 14.6863 19 18C19 21.3137 21.6863 24 25 24C28.3137 24 31 21.3137 31 18C31 14.6863 28.3137 12 25 12Z" fill="white"/>
<path d="M25 13C22.2386 13 20 15.2386 20 18C20 20.7614 22.2386 23 25 23C27.7614 23 30 20.7614 30 18C30 15.2386 27.7614 13 25 13Z" stroke="#051F64" stroke-width="2"/>
</svg>
