<svg width="36" height="32" viewBox="0 0 36 32" fill="none" xmlns="http://www.w3.org/2000/svg">
<path d="M0.999969 31L0.999969 1.15698" stroke="#051F64" stroke-linecap="round"/>
<path d="M7.99997 18.101L18 7.10098" stroke="#00CA4E" stroke-linecap="round"/>
<path d="M18 7.11398L23 12.114" stroke="#00CA4E" stroke-linecap="round"/>
<path d="M23 12.114L28 7.11398" stroke="#00CA4E" stroke-linecap="round"/>
<path d="M0.999969 25L35 25" stroke="#051F64" stroke-linecap="round"/>
<path d="M5.49997 29.5H11.5V24.5H5.49997L5.49997 29.5Z" fill="#051F64"/>
<path d="M16.5 24.499H22.5V17.537H16.5V24.499Z" fill="#051F64"/>
<path d="M27.5 25.541H33.5V15.541H27.5V25.541Z" fill="#051F64"/>
<path d="M30.4978 3.37076C30.6515 3.34881 30.8081 3.36293 30.9554 3.41203C31.1027 3.46112 31.2365 3.54383 31.3463 3.6536C31.4561 3.76338 31.5388 3.8972 31.5879 4.04448C31.637 4.19176 31.6511 4.34845 31.6291 4.50213L31.0401 8.62669C31.0139 8.81053 30.9369 8.98343 30.8179 9.12601C30.6989 9.26859 30.5426 9.37522 30.3664 9.43395C30.1902 9.49268 30.0012 9.50118 29.8204 9.45851C29.6397 9.41585 29.4744 9.32369 29.3431 9.19237L25.8075 5.65684C25.6762 5.52552 25.5841 5.36023 25.5414 5.17948C25.4987 4.99874 25.5072 4.80968 25.566 4.6335C25.6247 4.45732 25.7313 4.30097 25.8739 4.18198C26.0165 4.06298 26.1894 3.98604 26.3732 3.95978L30.4978 3.37076Z" fill="#00CA4E"/>
</svg>
