<svg width="165" height="12" viewBox="0 0 165 12" fill="none" xmlns="http://www.w3.org/2000/svg">
<path d="M7 9.292L3.292 11L4 7.382L1 4.82L5.146 4.292L7 1L8.854 4.292L13 4.82L10 7.382L10.708 11L7 9.292Z" fill="white" stroke="white" stroke-width="2" stroke-linecap="round" stroke-linejoin="round"/>
<path d="M26 9.292L22.292 11L23 7.382L20 4.82L24.146 4.292L26 1L27.854 4.292L32 4.82L29 7.382L29.708 11L26 9.292Z" fill="white" stroke="white" stroke-width="2" stroke-linecap="round" stroke-linejoin="round"/>
<path d="M45 9.292L41.292 11L42 7.382L39 4.82L43.146 4.292L45 1L46.854 4.292L51 4.82L48 7.382L48.708 11L45 9.292Z" fill="white" stroke="white" stroke-width="2" stroke-linecap="round" stroke-linejoin="round"/>
<path d="M64 9.292L60.292 11L61 7.382L58 4.82L62.146 4.292L64 1L65.854 4.292L70 4.82L67 7.382L67.708 11L64 9.292Z" fill="white" stroke="white" stroke-width="2" stroke-linecap="round" stroke-linejoin="round"/>
<path d="M101 9.292L97.292 11L98 7.382L95 4.82L99.146 4.292L101 1L102.854 4.292L107 4.82L104 7.382L104.708 11L101 9.292Z" fill="white" stroke="white" stroke-width="2" stroke-linecap="round" stroke-linejoin="round"/>
<path d="M120 9.292L116.292 11L117 7.382L114 4.82L118.146 4.292L120 1L121.854 4.292L126 4.82L123 7.382L123.708 11L120 9.292Z" fill="white" stroke="white" stroke-width="2" stroke-linecap="round" stroke-linejoin="round"/>
<path d="M139 9.292L135.292 11L136 7.382L133 4.82L137.146 4.292L139 1L140.854 4.292L145 4.82L142 7.382L142.708 11L139 9.292Z" fill="white" stroke="white" stroke-width="2" stroke-linecap="round" stroke-linejoin="round"/>
<path d="M158 9.292L154.292 11L155 7.382L152 4.82L156.146 4.292L158 1L159.854 4.292L164 4.82L161 7.382L161.708 11L158 9.292Z" fill="white" stroke="white" stroke-width="2" stroke-linecap="round" stroke-linejoin="round"/>
</svg>
