<svg width="147" height="14" viewBox="0 0 147 14" fill="black" xmlns="http://www.w3.org/2000/svg">
<path d="M5.27539 7.60059L0.851562 6.28223L1.52539 4.07031L5.94922 5.71094L5.81738 0.671875H8.05859L7.91211 5.78418L12.2627 4.17285L12.9365 6.39941L8.43945 7.73242L11.3398 11.7021L9.52344 13.0791L6.79883 8.86035L4.16211 12.9766L2.33105 11.6436L5.27539 7.60059ZM33.0781 7.60059L28.6543 6.28223L29.3281 4.07031L33.752 5.71094L33.6201 0.671875H35.8613L35.7148 5.78418L40.0654 4.17285L40.7393 6.39941L36.2422 7.73242L39.1426 11.7021L37.3262 13.0791L34.6016 8.86035L31.9648 12.9766L30.1338 11.6436L33.0781 7.60059ZM45.998 7.60059L41.5742 6.28223L42.248 4.07031L46.6719 5.71094L46.54 0.671875H48.7812L48.6348 5.78418L52.9854 4.17285L53.6592 6.39941L49.1621 7.73242L52.0625 11.7021L50.2461 13.0791L47.5215 8.86035L44.8848 12.9766L43.0537 11.6436L45.998 7.60059ZM58.918 7.60059L54.4941 6.28223L55.168 4.07031L59.5918 5.71094L59.46 0.671875H61.7012L61.5547 5.78418L65.9053 4.17285L66.5791 6.39941L62.082 7.73242L64.9824 11.7021L63.166 13.0791L60.4414 8.86035L57.8047 12.9766L55.9736 11.6436L58.918 7.60059ZM79.2793 7.60059L74.8555 6.28223L75.5293 4.07031L79.9531 5.71094L79.8213 0.671875H82.0625L81.916 5.78418L86.2666 4.17285L86.9404 6.39941L82.4434 7.73242L85.3438 11.7021L83.5273 13.0791L80.8027 8.86035L78.166 12.9766L76.335 11.6436L79.2793 7.60059ZM92.1992 7.60059L87.7754 6.28223L88.4492 4.07031L92.873 5.71094L92.7412 0.671875H94.9824L94.8359 5.78418L99.1865 4.17285L99.8604 6.39941L95.3633 7.73242L98.2637 11.7021L96.4473 13.0791L93.7227 8.86035L91.0859 12.9766L89.2549 11.6436L92.1992 7.60059ZM105.119 7.60059L100.695 6.28223L101.369 4.07031L105.793 5.71094L105.661 0.671875H107.902L107.756 5.78418L112.106 4.17285L112.78 6.39941L108.283 7.73242L111.184 11.7021L109.367 13.0791L106.643 8.86035L104.006 12.9766L102.175 11.6436L105.119 7.60059ZM125.48 7.60059L121.057 6.28223L121.73 4.07031L126.154 5.71094L126.022 0.671875H128.264L128.117 5.78418L132.468 4.17285L133.142 6.39941L128.645 7.73242L131.545 11.7021L129.729 13.0791L127.004 8.86035L124.367 12.9766L122.536 11.6436L125.48 7.60059ZM138.4 7.60059L133.977 6.28223L134.65 4.07031L139.074 5.71094L138.942 0.671875H141.184L141.037 5.78418L145.388 4.17285L146.062 6.39941L141.564 7.73242L144.465 11.7021L142.648 13.0791L139.924 8.86035L137.287 12.9766L135.456 11.6436L138.4 7.60059Z" fill="white"/>
</svg>
