<svg xmlns="http://www.w3.org/2000/svg" xmlns:xlink="http://www.w3.org/1999/xlink" width="42" height="42" viewBox="0 0 42 42">
  <defs>
    <linearGradient id="linear-gradient" x1="-0.548" y1="-1.19" x2="1.591" y2="1.19" gradientUnits="objectBoundingBox">
      <stop offset="0" stop-color="#6213ff"/>
      <stop offset="0.721" stop-color="#8013fd"/>
      <stop offset="1" stop-color="#9b13fc"/>
    </linearGradient>
  </defs>
  <g id="business-and-trade" transform="translate(0 -0.178)">
    <path id="Path_7048" data-name="Path 7048" d="M22.973,3.161,3.6.217A3.125,3.125,0,0,0,1.093.9,3.153,3.153,0,0,0,0,3.267V40.415a1.768,1.768,0,0,0,1.763,1.763h5.73V32.922a3.078,3.078,0,0,1,3.085-3.085h4.408a3.078,3.078,0,0,1,3.085,3.085v9.256h7.493V6.211a3.087,3.087,0,0,0-2.592-3.05ZM9.7,25.87H7.052a1.322,1.322,0,0,1,0-2.645H9.7a1.322,1.322,0,1,1,0,2.645Zm0-5.289H7.052a1.322,1.322,0,0,1,0-2.645H9.7a1.322,1.322,0,1,1,0,2.645Zm0-5.289H7.052a1.322,1.322,0,0,1,0-2.645H9.7a1.322,1.322,0,1,1,0,2.645ZM9.7,10H7.052a1.322,1.322,0,0,1,0-2.645H9.7A1.322,1.322,0,1,1,9.7,10ZM18.512,25.87H15.868a1.322,1.322,0,0,1,0-2.645h2.645a1.322,1.322,0,0,1,0,2.645Zm0-5.289H15.868a1.322,1.322,0,0,1,0-2.645h2.645a1.322,1.322,0,0,1,0,2.645Zm0-5.289H15.868a1.322,1.322,0,0,1,0-2.645h2.645a1.322,1.322,0,0,1,0,2.645Zm0-5.289H15.868a1.322,1.322,0,0,1,0-2.645h2.645a1.322,1.322,0,0,1,0,2.645Z" transform="translate(0 0)" fill="url(#linear-gradient)"/>
    <path id="Path_7049" data-name="Path 7049" d="M28.053,11.98,15.5,9.351V35.178H27.4a3.089,3.089,0,0,0,3.085-3.085v-17.1A3.07,3.07,0,0,0,28.053,11.98ZM23.875,29.889H21.23a1.322,1.322,0,0,1,0-2.645h2.645a1.322,1.322,0,0,1,0,2.645Zm0-5.289H21.23a1.322,1.322,0,1,1,0-2.645h2.645a1.322,1.322,0,1,1,0,2.645Zm0-5.289H21.23a1.322,1.322,0,1,1,0-2.645h2.645a1.322,1.322,0,1,1,0,2.645Z" transform="translate(11.514 7)" fill="url(#linear-gradient)"/>
  </g>
</svg>
