<svg id="cloud-computing" xmlns="http://www.w3.org/2000/svg" width="59" height="53" viewBox="0 0 59 53">
  <path id="Path_1698" data-name="Path 1698" d="M47.647,14.663a18.507,18.507,0,0,0-36.2-.011,12.747,12.747,0,0,0,1.488,25.426h9.23a1.822,1.822,0,1,0,0-3.644h-9.23a9.112,9.112,0,1,1,.109-18.222,1.837,1.837,0,0,0,1.835-1.621,14.791,14.791,0,0,1,29.339,0,1.949,1.949,0,0,0,1.944,1.621,9.112,9.112,0,1,1,0,18.222h-9.23a1.822,1.822,0,1,0,0,3.644h9.23a12.746,12.746,0,0,0,1.49-25.415Zm0,0" transform="translate(0.001 0)" fill="#004cff"/>
  <path id="Path_1699" data-name="Path 1699" d="M188.448,203.139a1.846,1.846,0,0,0,2.656-2.564l-.045-.045L183.23,192.7a1.846,1.846,0,0,0-2.611,0l0,0-7.829,7.831a1.846,1.846,0,1,0,2.565,2.655l.045-.045,4.68-4.681v23.233a1.846,1.846,0,1,0,3.692,0V198.457Zm0,0" transform="translate(-152.378 -170.537)" fill="#004cff"/>
</svg>
