<svg xmlns="http://www.w3.org/2000/svg" xmlns:xlink="http://www.w3.org/1999/xlink" width="200" height="200" viewBox="0 0 200 200">
  <defs>
    <filter id="Ellipse_452" x="0" y="0" width="200" height="200" filterUnits="userSpaceOnUse">
      <feOffset dy="10" input="SourceAlpha"/>
      <feGaussianBlur stdDeviation="15" result="blur"/>
      <feFlood flood-color="#051f64" flood-opacity="0.051"/>
      <feComposite operator="in" in2="blur"/>
      <feComposite in="SourceGraphic"/>
    </filter>
  </defs>
  <g id="Group_1858" data-name="Group 1858" transform="translate(-1215 -567)">
    <g transform="matrix(1, 0, 0, 1, 1215, 567)" filter="url(#Ellipse_452)">
      <g id="Ellipse_452-2" data-name="Ellipse 452" transform="translate(45 35)" fill="#fff" stroke="#eba12a" stroke-width="1">
        <circle cx="55" cy="55" r="55" stroke="none"/>
        <circle cx="55" cy="55" r="54.5" fill="none"/>
      </g>
    </g>
    <g id="flutterwave-logo-vector" transform="translate(1396.275 430.228)">
      <path id="Path_6916" data-name="Path 6916" d="M22.7,244.4h.034a.3.3,0,0,1,.32.321v8.232a.321.321,0,0,1-.639,0V244.69A.286.286,0,0,1,22.7,244.4Zm-8.627.428h5.936a.329.329,0,0,1,.32.321.3.3,0,0,1-.32.29H14.389v3.437h5.078a.292.292,0,1,1,0,.58H14.44V253a.4.4,0,0,1-.387.321A.33.33,0,0,1,13.7,253v-7.835h.034A.319.319,0,0,1,14.07,244.828Zm17.237,2.551a.321.321,0,0,0-.639,0v3.437a2.182,2.182,0,0,1-2.354,2.062,1.962,1.962,0,0,1-2.169-2.092v-3.406a.3.3,0,0,0-.32-.29.329.329,0,0,0-.32.29v3.513a2.476,2.476,0,0,0,2.707,2.52,2.737,2.737,0,0,0,2.472-1.283v.886a.321.321,0,0,0,.639,0H31.29v-5.636Zm5.97.046c0,.137-.151.244-.32.244H34.787v3.941c0,.886.555,1.207,1.379,1.207a2.657,2.657,0,0,0,.79-.107.254.254,0,0,1,.269.244.266.266,0,0,1-.2.244,3.141,3.141,0,0,1-.975.137,1.666,1.666,0,0,1-1.883-1.665v-4h-.74a.329.329,0,0,1-.32-.29c0-.137.151-.244.32-.244h.74v-1.7a.294.294,0,0,1,.269-.29h.034a.329.329,0,0,1,.32.29v1.7h2.169A.317.317,0,0,1,37.276,247.424Zm5.045.244c.151,0,.32-.107.32-.244a.329.329,0,0,0-.32-.29H40.152v-1.7a.329.329,0,0,0-.32-.29H39.8a.283.283,0,0,0-.269.29v1.7h-.74c-.151,0-.32.107-.32.244a.329.329,0,0,0,.32.29h.74v4a1.666,1.666,0,0,0,1.883,1.665,3.008,3.008,0,0,0,.975-.137.266.266,0,0,0,.2-.244.254.254,0,0,0-.269-.244,2.583,2.583,0,0,1-.79.107c-.824,0-1.379-.321-1.379-1.207v-3.941Zm1.5,2.52a3.17,3.17,0,0,1,3.229-3.223,3.053,3.053,0,0,1,3.145,3.223.329.329,0,0,1-.32.29H44.524a2.587,2.587,0,0,0,2.674,2.413,3.236,3.236,0,0,0,2.2-.855.338.338,0,0,1,.2-.076.329.329,0,0,1,.32.29.28.28,0,0,1-.118.214,3.587,3.587,0,0,1-2.64.993,3.206,3.206,0,0,1-3.346-3.223Zm8.929-1.283a3.167,3.167,0,0,1,2.707-1.848.336.336,0,0,1,.353.351.329.329,0,0,1-.32.321h-.034a2.847,2.847,0,0,0-2.707,3.085v2.276a.34.34,0,0,1-.673,0v-5.682a.34.34,0,0,1,.673,0Zm13.436-2.169a.991.991,0,0,0-.975.7l-1.143,3.3-1.144-3.3a1.086,1.086,0,0,0-1.059-.748h-.118a1.05,1.05,0,0,0-1.059.748l-1.143,3.269-1.093-3.3a1.009,1.009,0,0,0-.975-.7h-.034a.89.89,0,0,0-.908.855,1.288,1.288,0,0,0,.084.428h0l1.766,4.582a1.148,1.148,0,0,0,1.093.81h.084a1.147,1.147,0,0,0,1.093-.779l1.143-3.269,1.143,3.269a1.116,1.116,0,0,0,1.093.779h.084a1.125,1.125,0,0,0,1.143-.81l1.766-4.613a1.336,1.336,0,0,0,.084-.351v-.031A.883.883,0,0,0,66.183,246.737Zm2.758.321a7.185,7.185,0,0,1,2.287-.321,3.875,3.875,0,0,1,2.472.748,2.757,2.757,0,0,1,.79,2.062v2.9a.989.989,0,0,1-1.951.107,2.921,2.921,0,0,1-2.169.81c-1.295,0-2.438-.7-2.438-1.986,0-1.42,1.177-2.092,2.876-2.092a6,6,0,0,1,1.732.244v-.107c0-.779-.5-1.176-1.53-1.176a4.494,4.494,0,0,0-1.413.183.862.862,0,0,1-.269.031.758.758,0,0,1-.858-.7A.666.666,0,0,1,68.941,247.058Zm11.6.29a.947.947,0,0,1,.942-.642.92.92,0,0,1,.975.855v.031a.823.823,0,0,1-.118.428L80.225,252.6a1.366,1.366,0,0,1-1.177.779H78.93a1.249,1.249,0,0,1-1.143-.81l-2.2-4.582a.823.823,0,0,1-.118-.428.943.943,0,0,1,.975-.855,1,1,0,0,1,.975.672l1.53,3.727Zm2.724,2.978A3.423,3.423,0,0,0,87,253.381a4.031,4.031,0,0,0,2.472-.779.6.6,0,0,0,.269-.535v-.031a.816.816,0,0,0-1.261-.565,2.4,2.4,0,0,1-1.463.428,1.623,1.623,0,0,1-1.732-1.283h4.053a.857.857,0,0,0,.858-.886v-.137a3.159,3.159,0,0,0-3.414-2.9,3.4,3.4,0,0,0-3.548,3.375v.26Z" transform="translate(-121.477 -22.982)" fill="#10112b"/>
      <path id="Path_6917" data-name="Path 6917" d="M196.7,267.423a2.666,2.666,0,0,1,2.522-2.623,2.515,2.515,0,0,1,2.438,2.623Zm28.083,1.177c0,.774-.673,1.244-1.614,1.211-.622,0-1.093-.319-1.093-.858v-.034c0-.589.555-.975,1.413-.975a3.71,3.71,0,0,1,1.295.269Zm14.243-3.094c-.824,0-1.379.589-1.53,1.53h3.027A1.551,1.551,0,0,0,239.026,265.506Z" transform="translate(-273.703 -40.447)" fill="#fff"/>
      <path id="Path_6918" data-name="Path 6918" d="M-117.053,216.921c8.845-1.267,3.178,5.92.437,7.942a13.21,13.21,0,0,1,4.641,5.519c1.53,4.027-2.237,4.621-5.078,3.61a15.687,15.687,0,0,1-7.668-5.888,6.068,6.068,0,0,1-1.581-.225,17.416,17.416,0,0,1,1.177,7.893c0-4.653-2.321-9.273-5.667-13.124-1.177-1.348.034-2.342,1.093-1.043a28.254,28.254,0,0,1,1.967,2.936C-126.571,220.756-120.921,217.451-117.053,216.921Zm-1.261,6.851c1.732-1.011,7-6.4,2.085-5.92-2.825.3-6.256,2.792-7.668,4.4A9.473,9.473,0,0,1-118.315,223.772Zm-4.877,4.187a13.393,13.393,0,0,0,6.054,3.915c1.345.337,2.825.193,2.287-1.636a10.085,10.085,0,0,0-3.346-4.284,7.376,7.376,0,0,1-1.261.706A12.553,12.553,0,0,1-123.191,227.959Z" transform="translate(0 0)" fill="#eba12a"/>
      <path id="Path_6919" data-name="Path 6919" d="M-93.254,258.236a6.739,6.739,0,0,1,3.9,1.295,9.251,9.251,0,0,1-3.464.891C-94.616,260.439-94.986,258.4-93.254,258.236Z" transform="translate(-30.694 -34.84)" fill="#fff"/>
    </g>
  </g>
</svg>
