<svg xmlns="http://www.w3.org/2000/svg" xmlns:xlink="http://www.w3.org/1999/xlink" width="364" height="227.29" viewBox="0 0 364 227.29"><defs><style>.a{fill:#00c3f7;}.b,.c{fill:none;stroke-width:15px;}.b{stroke:#5f6064;stroke-linecap:square;stroke-linejoin:bevel;}.c{stroke:#fff;stroke-linecap:round;}.d{fill:#fff;}.e{fill:#011b33;}.f{filter:url(#a);}</style><filter id="a" x="82" y="22.712" width="194" height="194" filterUnits="userSpaceOnUse"><feOffset dy="10" input="SourceAlpha"/><feGaussianBlur stdDeviation="15" result="b"/><feFlood flood-color="#051f64" flood-opacity="0.051"/><feComposite operator="in" in2="b"/><feComposite in="SourceGraphic"/></filter></defs><g transform="translate(-288 -458.21)"><rect class="a" width="364" height="211.832" rx="30" transform="translate(288 466)"/><path class="b" d="M20.5,25.5c.036,13.487,2.1,48.082-3.9,62.666s-22.25,22.084-38.25,22.584-49.75.5-62.25-3.5" transform="translate(591.153 448.5)"/><path class="b" d="M101.8,0C101.593,17.73,61.56,31.667,61.56,31.667S13.75,51.791,0,62" transform="translate(427.805 670.154) rotate(180)"/><path class="c" d="M-66.4-13.5c.447,11.326-2.235,45.693,2.235,52.939s10.53,10.229,19.179,9.4S-26.266,36.25-26.266,36.25" transform="translate(614.516 479.5)"/><path class="c" d="M.039,0H3.8" transform="translate(343.323 674.203) rotate(90)"/><path class="c" d="M.039,0H3.8" transform="translate(571.323 493.438) rotate(90)"/><g transform="translate(415 515.922)"><g class="f" transform="matrix(1, 0, 0, 1, -127, -57.71)"><circle class="d" cx="52" cy="52" r="52" transform="translate(127 57.71)"/></g><g transform="translate(4.705 43.096)"><path class="a" d="M-117.739,232.2h-12.673a.781.781,0,0,0-.788.758v1.353a.781.781,0,0,0,.788.758h12.673a.8.8,0,0,0,.8-.758v-1.338a.788.788,0,0,0-.8-.773Zm0,7.506h-12.673a.761.761,0,0,0-.552.223.71.71,0,0,0-.236.535v1.353a.781.781,0,0,0,.788.758h12.673a.785.785,0,0,0,.8-.758v-1.353a.785.785,0,0,0-.8-.758Zm-5.532,3.745h-7.14a.761.761,0,0,0-.552.223.771.771,0,0,0-.236.535v1.353a.781.781,0,0,0,.788.758h7.124a.769.769,0,0,0,.788-.743v-1.353a.735.735,0,0,0-.772-.773Zm6.336-7.506h-13.476a.761.761,0,0,0-.552.223.771.771,0,0,0-.236.535v1.353a.781.781,0,0,0,.788.758h13.461a.771.771,0,0,0,.788-.758V236.7a.767.767,0,0,0-.772-.758Zm0,0" transform="translate(131.2 -230.592)"/><path class="e" d="M9.1,226.579a4.1,4.1,0,0,0-1.362-.9,4.313,4.313,0,0,0-1.629-.314,3.612,3.612,0,0,0-1.582.329,2.946,2.946,0,0,0-.877.613v-.239a.509.509,0,0,0-.125-.329.458.458,0,0,0-.344-.15H1.438a.4.4,0,0,0-.329.15.387.387,0,0,0-.125.329v11.192a.509.509,0,0,0,.125.329.461.461,0,0,0,.329.135H3.223a.461.461,0,0,0,.329-.135.367.367,0,0,0,.141-.329v-3.831a2.239,2.239,0,0,0,.94.584,4.381,4.381,0,0,0,3.1-.06,4.161,4.161,0,0,0,1.378-.9,4.323,4.323,0,0,0,.94-1.407,4.38,4.38,0,0,0,.344-1.84,4.762,4.762,0,0,0-.344-1.855,4.892,4.892,0,0,0-.955-1.377Zm-1.6,4.055a1.934,1.934,0,0,1-.423.643,1.962,1.962,0,0,1-1.409.584,1.8,1.8,0,0,1-.783-.165,2.235,2.235,0,0,1-.642-.419,1.8,1.8,0,0,1-.423-.643,2.1,2.1,0,0,1,0-1.571,1.962,1.962,0,0,1,.423-.628A2.284,2.284,0,0,1,4.883,228a2.038,2.038,0,0,1,.783-.165,1.863,1.863,0,0,1,.8.165,1.954,1.954,0,0,1,1.049,1.047,2.3,2.3,0,0,1-.016,1.586Zm12.464-5.028H18.193a.436.436,0,0,0-.329.135.463.463,0,0,0-.141.344v.209a2.31,2.31,0,0,0-.8-.584,3.694,3.694,0,0,0-1.55-.329,4.434,4.434,0,0,0-3.038,1.2,4.177,4.177,0,0,0-.971,1.407,4.417,4.417,0,0,0-.36,1.855,4.509,4.509,0,0,0,.36,1.855,4.415,4.415,0,0,0,.971,1.407,4.343,4.343,0,0,0,3.022,1.212,3.478,3.478,0,0,0,1.55-.329,2.843,2.843,0,0,0,.814-.584v.224a.454.454,0,0,0,.141.329.534.534,0,0,0,.329.135h1.769a.436.436,0,0,0,.329-.135.454.454,0,0,0,.141-.329V226.1a.509.509,0,0,0-.125-.329.47.47,0,0,0-.344-.165Zm-2.4,5.028a1.934,1.934,0,0,1-.423.643,2.209,2.209,0,0,1-.626.434,1.941,1.941,0,0,1-1.582,0,2.283,2.283,0,0,1-.642-.434,1.8,1.8,0,0,1-.423-.643,2.26,2.26,0,0,1,0-1.571,1.875,1.875,0,0,1,.423-.628,2.08,2.08,0,0,1,.642-.434,1.9,1.9,0,0,1,1.566,0,1.969,1.969,0,0,1,.626.419,2.255,2.255,0,0,1,.423.628,2.063,2.063,0,0,1,.016,1.586Zm20.028-1.017a3.075,3.075,0,0,0-.861-.509,6.25,6.25,0,0,0-1.033-.3l-1.347-.254a1.65,1.65,0,0,1-.72-.254.407.407,0,0,1-.188-.329.428.428,0,0,1,.251-.359,1.453,1.453,0,0,1,.752-.165,2.837,2.837,0,0,1,1,.194,6.153,6.153,0,0,1,.893.449.7.7,0,0,0,.971-.075l.642-.7a.669.669,0,0,0,.2-.434.662.662,0,0,0-.251-.449,5.122,5.122,0,0,0-1.284-.7,5.766,5.766,0,0,0-2.177-.359,4.907,4.907,0,0,0-1.55.21,4.361,4.361,0,0,0-1.19.584,2.549,2.549,0,0,0-.767.9,2.448,2.448,0,0,0-.266,1.092,2.236,2.236,0,0,0,.658,1.691,3.342,3.342,0,0,0,1.738.838l1.409.3a3.218,3.218,0,0,1,.893.269.394.394,0,0,1,.251.374.491.491,0,0,1-.251.4,1.484,1.484,0,0,1-.83.195,2.6,2.6,0,0,1-1.112-.239,4.349,4.349,0,0,1-.908-.569,1.75,1.75,0,0,0-.407-.224.637.637,0,0,0-.564.165l-.767.554a.6.6,0,0,0-.266.643,1.38,1.38,0,0,0,.642.778,6.337,6.337,0,0,0,4.917.718,4.167,4.167,0,0,0,1.253-.6,2.5,2.5,0,0,0,.814-.928,2.464,2.464,0,0,0,.282-1.152,2.217,2.217,0,0,0-.219-1.047,3.208,3.208,0,0,0-.611-.7Zm7.735,2.05a.548.548,0,0,0-.391-.254.805.805,0,0,0-.454.135,1.558,1.558,0,0,1-.72.224,1.431,1.431,0,0,1-.251-.03.437.437,0,0,1-.235-.12.984.984,0,0,1-.188-.254.911.911,0,0,1-.078-.449v-3.067H45.3a.521.521,0,0,0,.36-.15.445.445,0,0,0,.157-.329v-1.3a.379.379,0,0,0-.157-.329.5.5,0,0,0-.344-.135h-2.3v-2.095a.43.43,0,0,0-.141-.329.638.638,0,0,0-.329-.135H40.757a.5.5,0,0,0-.344.135.471.471,0,0,0-.157.329v2.095H39.238a.453.453,0,0,0-.344.15.509.509,0,0,0-.125.329v1.3a.509.509,0,0,0,.125.329.411.411,0,0,0,.344.15h1.018v3.651a2.679,2.679,0,0,0,.266,1.257,2.633,2.633,0,0,0,.689.853,2.542,2.542,0,0,0,.971.479,4,4,0,0,0,1.112.165,4.844,4.844,0,0,0,1.456-.224,2.758,2.758,0,0,0,1.143-.688.567.567,0,0,0,.063-.733Zm9.677-6.06H53.237a.471.471,0,0,0-.47.479v.209a2.173,2.173,0,0,0-.8-.584,3.694,3.694,0,0,0-1.55-.329,4.434,4.434,0,0,0-3.038,1.2,4.178,4.178,0,0,0-.971,1.407,4.395,4.395,0,0,0-.36,1.84,4.509,4.509,0,0,0,.36,1.855,4.415,4.415,0,0,0,.971,1.407A4.315,4.315,0,0,0,50.4,234.3a3.68,3.68,0,0,0,1.55-.314,2.643,2.643,0,0,0,.814-.584v.224a.4.4,0,0,0,.141.314.461.461,0,0,0,.329.135h1.769a.451.451,0,0,0,.47-.449V226.1a.509.509,0,0,0-.125-.329.423.423,0,0,0-.344-.165Zm-2.38,5.028a1.934,1.934,0,0,1-.423.643,2.209,2.209,0,0,1-.626.434,2.055,2.055,0,0,1-.8.165,1.979,1.979,0,0,1-.783-.165,2.283,2.283,0,0,1-.642-.434,1.574,1.574,0,0,1-.407-.643,2.26,2.26,0,0,1,0-1.571,1.92,1.92,0,0,1,.407-.628A2.284,2.284,0,0,1,50,228a2.038,2.038,0,0,1,.783-.165,1.911,1.911,0,0,1,.8.165,2.16,2.16,0,0,1,.626.419,1.738,1.738,0,0,1,.423.628,2.136,2.136,0,0,1,0,1.586Zm12.089.913L63.7,230.8a.546.546,0,0,0-.532-.135,1.264,1.264,0,0,0-.376.254,4.04,4.04,0,0,1-.767.673,1.772,1.772,0,0,1-.986.224,1.932,1.932,0,0,1-1.112-.329,1.767,1.767,0,0,1-.7-.9,2.189,2.189,0,0,1-.141-.763,2.355,2.355,0,0,1,.141-.793,1.7,1.7,0,0,1,.407-.628,1.9,1.9,0,0,1,.626-.419,2.055,2.055,0,0,1,.8-.165,1.886,1.886,0,0,1,.987.239,2.938,2.938,0,0,1,.767.673,1.027,1.027,0,0,0,.36.254.546.546,0,0,0,.532-.135l1.018-.733a.625.625,0,0,0,.266-.329.461.461,0,0,0-.047-.449,4.338,4.338,0,0,0-1.566-1.407A4.986,4.986,0,0,0,61,225.382a5.244,5.244,0,0,0-1.848.344,4.6,4.6,0,0,0-1.488.943,4.359,4.359,0,0,0-1,4.923,4.122,4.122,0,0,0,1,1.407A4.845,4.845,0,0,0,61,234.285a4.986,4.986,0,0,0,2.364-.554,4.293,4.293,0,0,0,1.582-1.421.533.533,0,0,0,.047-.434.945.945,0,0,0-.282-.329Zm9.427,1.751-2.8-3.92,2.4-3.023a.515.515,0,0,0,.094-.494c-.047-.12-.157-.239-.454-.239H71.48a.739.739,0,0,0-.313.075.652.652,0,0,0-.282.254l-1.91,2.559H68.52v-6.045a.454.454,0,0,0-.141-.329.461.461,0,0,0-.329-.135H66.281a.5.5,0,0,0-.344.135.43.43,0,0,0-.141.329v11.147a.43.43,0,0,0,.141.329.5.5,0,0,0,.344.135h1.769a.436.436,0,0,0,.329-.135.454.454,0,0,0,.141-.329v-2.948h.5l2.083,3.052a.7.7,0,0,0,.611.359H73.7a.489.489,0,0,0,.485-.254.521.521,0,0,0-.047-.524Zm-44.126-7.691H28.027a.569.569,0,0,0-.407.15.659.659,0,0,0-.188.314l-1.472,5.207H25.6l-1.566-5.207a.983.983,0,0,0-.157-.314.477.477,0,0,0-.36-.165H21.5c-.266,0-.423.075-.5.254a.781.781,0,0,0,0,.464l2.505,7.332a.758.758,0,0,0,.188.3.548.548,0,0,0,.376.135H25.13l-.094.239-.235.673a1.1,1.1,0,0,1-.391.524.93.93,0,0,1-.6.18,1.6,1.6,0,0,1-.532-.1,2.362,2.362,0,0,1-.47-.269.77.77,0,0,0-.454-.135h-.016a.559.559,0,0,0-.454.269l-.626.883c-.251.389-.11.628.047.763a3.224,3.224,0,0,0,1.174.658,4.618,4.618,0,0,0,1.488.239,3.485,3.485,0,0,0,2.239-.7,4.032,4.032,0,0,0,1.268-1.915l2.913-9.068a.636.636,0,0,0,.016-.479c-.016-.1-.125-.224-.391-.224Zm0,0" transform="translate(19.853 -222)"/></g></g></g></svg>