<svg width="25" height="35" viewBox="0 0 25 35" fill="none" xmlns="http://www.w3.org/2000/svg">
<path d="M4.99512 28H2.28516V12.1504H4.99512V28ZM2.06543 7.94629C2.06543 7.50684 2.19727 7.13574 2.46094 6.83301C2.73438 6.53027 3.13477 6.37891 3.66211 6.37891C4.18945 6.37891 4.58984 6.53027 4.86328 6.83301C5.13672 7.13574 5.27344 7.50684 5.27344 7.94629C5.27344 8.38574 5.13672 8.75195 4.86328 9.04492C4.58984 9.33789 4.18945 9.48438 3.66211 9.48438C3.13477 9.48438 2.73438 9.33789 2.46094 9.04492C2.19727 8.75195 2.06543 8.38574 2.06543 7.94629ZM24.5068 8.98633H17.6514V28H14.8535V8.98633H8.0127V6.67188H24.5068V8.98633Z" fill="#051F64"/>
<path d="M3.5 11C5.433 11 7 9.433 7 7.5C7 5.567 5.433 4 3.5 4C1.567 4 0 5.567 0 7.5C0 9.433 1.567 11 3.5 11Z" fill="url(#paint0_linear)"/>
<defs>
<linearGradient id="paint0_linear" x1="3.5" y1="4" x2="3.5" y2="11" gradientUnits="userSpaceOnUse">
<stop stop-color="#00D4FF"/>
<stop offset="1" stop-color="#004CFF"/>
</linearGradient>
</defs>
</svg>
