<svg xmlns="http://www.w3.org/2000/svg" xmlns:xlink="http://www.w3.org/1999/xlink" width="14" height="20" viewBox="0 0 14 20">
  <defs>
    <linearGradient id="linear-gradient" x1="0.5" x2="0.5" y2="1" gradientUnits="objectBoundingBox">
      <stop offset="0" stop-color="#001243"/>
      <stop offset="1" stop-color="#001243"/>
    </linearGradient>
  </defs>
  <g id="pin" transform="translate(-79.968 0)">
    <path className="blackColor" id="Path_5850" data-name="Path 5850" d="M93,3.424A6.93,6.93,0,0,0,87.124,0c-.1,0-.209,0-.313,0A6.93,6.93,0,0,0,80.94,3.424a6.856,6.856,0,0,0-.092,6.88L85.9,19.382l.007.012a1.238,1.238,0,0,0,2.129,0l.007-.012L93.088,10.3A6.856,6.856,0,0,0,93,3.424ZM86.968,9.062A2.813,2.813,0,1,1,89.831,6.25,2.841,2.841,0,0,1,86.968,9.062Z" transform="translate(0 0)" fill="url(#linear-gradient)"/>
  </g>
</svg>
