<svg xmlns="http://www.w3.org/2000/svg" xmlns:xlink="http://www.w3.org/1999/xlink" width="40" height="40" viewBox="0 0 40 40"><defs><style>.a{fill:url(#a);}.b{fill:#fff;}</style><linearGradient id="a" x1="0.5" x2="0.5" y2="1" gradientUnits="objectBoundingBox"><stop offset="0" stop-color="#00d4ff"/><stop offset="1" stop-color="#004cff"/></linearGradient></defs><g transform="translate(-498 -5258)"><g transform="translate(498 5257.998)"><g transform="translate(0 0.002)"><path class="a" d="M35.714,0H4.286A4.286,4.286,0,0,0,0,4.288V27.145a4.286,4.286,0,0,0,4.286,4.286H9.357L8.58,38.417a1.429,1.429,0,0,0,2.376,1.219l9.117-8.2H35.714A4.286,4.286,0,0,0,40,27.145V4.288A4.286,4.286,0,0,0,35.714,0Z" transform="translate(0 -0.002)"/></g></g><rect class="b" width="24" height="4" rx="2" transform="translate(506 5268)"/><rect class="b" width="15" height="4" rx="2" transform="translate(506 5274)"/></g></svg>