<svg xmlns="http://www.w3.org/2000/svg" xmlns:xlink="http://www.w3.org/1999/xlink" width="34" height="42" viewBox="0 0 34 42">
  <defs>
    <linearGradient id="linear-gradient" x1="0.5" x2="0.5" y2="1" gradientUnits="objectBoundingBox">
      <stop offset="0" stop-color="#ff8229"/>
      <stop offset="1" stop-color="#ff9529"/>
    </linearGradient>
  </defs>
  <g id="money-bag" transform="translate(-48.032)">
    <path id="Path_7043" data-name="Path 7043" d="M341.168,121.933a24.286,24.286,0,0,1,4.5-.356V119a25.192,25.192,0,0,0-6.324.686Z" transform="translate(-267.496 -109.146)" fill="url(#linear-gradient)"/>
    <path id="Path_7044" data-name="Path 7044" d="M99.291,119.686A25.191,25.191,0,0,0,92.967,119v2.577a24.286,24.286,0,0,1,4.5.356Z" transform="translate(-41.075 -109.146)" fill="url(#linear-gradient)"/>
    <path id="Path_7045" data-name="Path 7045" d="M138.814,11.94A20.6,20.6,0,0,0,145,11.12c.267-.071.535-.142.812-.211L148.881,2.9l-.89-.568a19.219,19.219,0,0,0-18.353,0l-.89.568,3.067,8.008c.276.07.545.141.812.211A20.6,20.6,0,0,0,138.814,11.94Z" transform="translate(-73.782)" fill="url(#linear-gradient)"/>
    <path id="Path_7046" data-name="Path 7046" d="M79.334,161.919a31.966,31.966,0,0,0-5.375-8.775c-.718.129-1.346.284-1.988.442a25.017,25.017,0,0,1-6.938.854,25.012,25.012,0,0,1-6.938-.854c-.642-.158-1.27-.313-1.988-.442a32.03,32.03,0,0,0-5.4,8.843,31.521,31.521,0,0,0-2.67,11.528c0,2.792.7,4.821,2.13,6.2,2.514,2.425,6.741,2.334,11.634,2.229,1.047-.022,2.13-.046,3.235-.046s2.188.023,3.235.046c.975.021,1.923.041,2.837.041,3.673,0,6.784-.329,8.8-2.27,1.434-1.382,2.13-3.412,2.13-6.2A31.566,31.566,0,0,0,79.334,161.919ZM63.7,164.5a11.731,11.731,0,0,0,2.957,1.353c4.064,1.4,3.434,6.9-.453,8V175.7H63.714v-1.733a7.88,7.88,0,0,1-3.565-1.639l1.362-2.053,1.041.671a3.377,3.377,0,0,0,2.4.619c1.823.069,2.983-2.65.876-3.4a12.827,12.827,0,0,1-3.663-1.736c-2.234-1.752-1.056-5.442,1.551-6.232v-1.748H66.2v1.57a9.9,9.9,0,0,1,3.362,1.351l-1.181,2.159-1.1-.582c-.868-.512-3.392-1.2-3.8.791A.839.839,0,0,0,63.7,164.5Z" transform="translate(0 -139.989)" fill="url(#linear-gradient)"/>
  </g>
</svg>
