<svg id="design" xmlns="http://www.w3.org/2000/svg" width="16" height="16" viewBox="0 0 16 16">
  <path id="Path_1738" data-name="Path 1738" d="M283.791,1.8,282.414.427a1.463,1.463,0,0,0-2.065,0l-.329.329,1.721,1.721a.487.487,0,0,1-.688.688l-1.721-1.721-.688.689,1.033,1.033a.487.487,0,0,1-.688.688l-1.033-1.033L276.578,4.2l3.442,3.442,3.772-3.771a1.464,1.464,0,0,0,0-2.065Zm0,0" transform="translate(-268.218 -0.001)" fill="#455a64"/>
  <path id="Path_1739" data-name="Path 1739" d="M1.8,285.008a1.461,1.461,0,0,0,2.065,0l3.73-3.729-3.442-3.442L2.78,279.213l1.033,1.033a.487.487,0,0,1-.688.688L2.091,279.9l-.688.689,1.721,1.721a.487.487,0,0,1-.688.688L.714,281.278l-.288.287a1.462,1.462,0,0,0,0,2.065Zm0,0" transform="translate(0 -269.435)" fill="#455a64"/>
  <path id="Path_1740" data-name="Path 1740" d="M.034.66,1.87,5.108l3.2-3.2L.662.031A.487.487,0,0,0,.034.66Zm0,0" transform="translate(-0.001 0.001)" fill="#455a64"/>
  <path id="Path_1741" data-name="Path 1741" d="M147.617,86.583l1.377-1.377-8.922-8.882L138.7,77.7Zm0,0" transform="translate(-134.81 -73.847)" fill="#455a64"/>
  <path id="Path_1742" data-name="Path 1742" d="M85.361,148.839l-8.922-8.882-1.377,1.377,8.922,8.883Zm0,0" transform="translate(-72.626 -136.031)" fill="#455a64"/>
  <path id="Path_1743" data-name="Path 1743" d="M375.334,371.942l-.7-.7-3.442,3.442.7.7a1.464,1.464,0,0,0,2.065,0h0l1.377-1.377A1.46,1.46,0,0,0,375.334,371.942Zm0,0" transform="translate(-359.762 -359.81)" fill="#455a64"/>
</svg>
