<svg width="158" height="158" viewBox="0 0 158 158" fill="none" xmlns="http://www.w3.org/2000/svg">
<path d="M111.917 31.6C111.568 31.6 111.233 31.7388 110.986 31.9857C110.739 32.2327 110.6 32.5677 110.6 32.917V46.083C110.6 46.4323 110.739 46.7673 110.986 47.0143C111.233 47.2612 111.568 47.4 111.917 47.4H125.083C125.432 47.4 125.767 47.2612 126.014 47.0143C126.261 46.7673 126.4 46.4323 126.4 46.083V32.917C126.4 32.5677 126.261 32.2327 126.014 31.9857C125.767 31.7388 125.432 31.6 125.083 31.6H111.917ZM110.6 126.4V122.45C110.6 121.402 111.016 120.398 111.757 119.657C112.498 118.916 113.502 118.5 114.55 118.5C115.598 118.5 116.602 118.916 117.343 119.657C118.084 120.398 118.5 121.402 118.5 122.45V126.4H126.4V122.45C126.4 121.402 126.816 120.398 127.557 119.657C128.298 118.916 129.302 118.5 130.35 118.5C131.398 118.5 132.402 118.916 133.143 119.657C133.884 120.398 134.3 121.402 134.3 122.45V130.35C134.3 131.398 133.884 132.402 133.143 133.143C132.402 133.884 131.398 134.3 130.35 134.3H98.75C97.7024 134.3 96.6977 133.884 95.9569 133.143C95.2162 132.402 94.8 131.398 94.8 130.35V122.45C94.8 121.402 95.2162 120.398 95.9569 119.657C96.6977 118.916 97.7024 118.5 98.75 118.5C99.7976 118.5 100.802 118.916 101.543 119.657C102.284 120.398 102.7 121.402 102.7 122.45V126.4H110.6ZM86.9 71.1H90.85C91.8976 71.1 92.9023 71.5162 93.6431 72.2569C94.3838 72.9977 94.8 74.0024 94.8 75.05C94.8 76.0976 94.3838 77.1023 93.6431 77.8431C92.9023 78.5838 91.8976 79 90.85 79H75.05C74.0024 79 72.9977 78.5838 72.2569 77.8431C71.5162 77.1023 71.1 76.0976 71.1 75.05C71.1 74.0024 71.5162 72.9977 72.2569 72.2569C72.9977 71.5162 74.0024 71.1 75.05 71.1H79V63.2H67.15C66.1024 63.2 65.0977 62.7838 64.3569 62.0431C63.6162 61.3023 63.2 60.2976 63.2 59.25C63.2 58.2024 63.6162 57.1977 64.3569 56.4569C65.0977 55.7162 66.1024 55.3 67.15 55.3H90.85C91.8976 55.3 92.9023 55.7162 93.6431 56.4569C94.3838 57.1977 94.8 58.2024 94.8 59.25C94.8 60.2976 94.3838 61.3023 93.6431 62.0431C92.9023 62.7838 91.8976 63.2 90.85 63.2H86.9V71.1ZM126.4 79H122.45C121.402 79 120.398 78.5838 119.657 77.8431C118.916 77.1023 118.5 76.0976 118.5 75.05C118.5 74.0024 118.916 72.9977 119.657 72.2569C120.398 71.5162 121.402 71.1 122.45 71.1H126.4V67.15C126.4 66.1024 126.816 65.0977 127.557 64.3569C128.298 63.6162 129.302 63.2 130.35 63.2C131.398 63.2 132.402 63.6162 133.143 64.3569C133.884 65.0977 134.3 66.1024 134.3 67.15V82.95C134.3 83.9976 133.884 85.0023 133.143 85.7431C132.402 86.4838 131.398 86.9 130.35 86.9C129.302 86.9 128.298 86.4838 127.557 85.7431C126.816 85.0023 126.4 83.9976 126.4 82.95V79ZM86.9 94.8H82.95C81.9024 94.8 80.8977 94.3838 80.1569 93.6431C79.4162 92.9023 79 91.8976 79 90.85C79 89.8024 79.4162 88.7977 80.1569 88.0569C80.8977 87.3162 81.9024 86.9 82.95 86.9H90.85C91.8976 86.9 92.9023 87.3162 93.6431 88.0569C94.3838 88.7977 94.8 89.8024 94.8 90.85V106.65C94.8 107.169 94.6978 107.682 94.4993 108.162C94.3008 108.641 94.0099 109.076 93.6431 109.443C93.2763 109.81 92.8408 110.101 92.3616 110.299C91.8824 110.498 91.3687 110.6 90.85 110.6H67.15C66.1024 110.6 65.0977 110.184 64.3569 109.443C63.6162 108.702 63.2 107.698 63.2 106.65C63.2 105.602 63.6162 104.598 64.3569 103.857C65.0977 103.116 66.1024 102.7 67.15 102.7H86.9V94.8ZM111.917 23.7H125.083C127.528 23.7 129.872 24.6711 131.6 26.3996C133.329 28.1281 134.3 30.4725 134.3 32.917V46.083C134.3 48.5275 133.329 50.8719 131.6 52.6004C129.872 54.3289 127.528 55.3 125.083 55.3H111.917C109.472 55.3 107.128 54.3289 105.4 52.6004C103.671 50.8719 102.7 48.5275 102.7 46.083V32.917C102.7 30.4725 103.671 28.1281 105.4 26.3996C107.128 24.6711 109.472 23.7 111.917 23.7V23.7ZM32.917 23.7H46.083C48.5275 23.7 50.8719 24.6711 52.6004 26.3996C54.3289 28.1281 55.3 30.4725 55.3 32.917V46.083C55.3 48.5275 54.3289 50.8719 52.6004 52.6004C50.8719 54.3289 48.5275 55.3 46.083 55.3H32.917C30.4725 55.3 28.1281 54.3289 26.3996 52.6004C24.6711 50.8719 23.7 48.5275 23.7 46.083V32.917C23.7 30.4725 24.6711 28.1281 26.3996 26.3996C28.1281 24.6711 30.4725 23.7 32.917 23.7V23.7ZM32.917 31.6C32.5677 31.6 32.2327 31.7388 31.9857 31.9857C31.7388 32.2327 31.6 32.5677 31.6 32.917V46.083C31.6 46.4323 31.7388 46.7673 31.9857 47.0143C32.2327 47.2612 32.5677 47.4 32.917 47.4H46.083C46.4323 47.4 46.7673 47.2612 47.0143 47.0143C47.2612 46.7673 47.4 46.4323 47.4 46.083V32.917C47.4 32.5677 47.2612 32.2327 47.0143 31.9857C46.7673 31.7388 46.4323 31.6 46.083 31.6H32.917ZM32.917 102.7H46.083C48.5275 102.7 50.8719 103.671 52.6004 105.4C54.3289 107.128 55.3 109.472 55.3 111.917V125.083C55.3 127.528 54.3289 129.872 52.6004 131.6C50.8719 133.329 48.5275 134.3 46.083 134.3H32.917C30.4725 134.3 28.1281 133.329 26.3996 131.6C24.6711 129.872 23.7 127.528 23.7 125.083V111.917C23.7 109.472 24.6711 107.128 26.3996 105.4C28.1281 103.671 30.4725 102.7 32.917 102.7V102.7ZM32.917 110.6C32.5677 110.6 32.2327 110.739 31.9857 110.986C31.7388 111.233 31.6 111.568 31.6 111.917V125.083C31.6 125.432 31.7388 125.767 31.9857 126.014C32.2327 126.261 32.5677 126.4 32.917 126.4H46.083C46.4323 126.4 46.7673 126.261 47.0143 126.014C47.2612 125.767 47.4 125.432 47.4 125.083V111.917C47.4 111.568 47.2612 111.233 47.0143 110.986C46.7673 110.739 46.4323 110.6 46.083 110.6H32.917ZM86.9 31.6H67.15C66.1024 31.6 65.0977 31.1838 64.3569 30.4431C63.6162 29.7023 63.2 28.6976 63.2 27.65C63.2 26.6024 63.6162 25.5977 64.3569 24.8569C65.0977 24.1162 66.1024 23.7 67.15 23.7H90.85C91.8976 23.7 92.9023 24.1162 93.6431 24.8569C94.3838 25.5977 94.8 26.6024 94.8 27.65V43.45C94.8 44.4976 94.3838 45.5023 93.6431 46.2431C92.9023 46.9838 91.8976 47.4 90.85 47.4C89.8024 47.4 88.7977 46.9838 88.0569 46.2431C87.3162 45.5023 86.9 44.4976 86.9 43.45V31.6ZM67.15 47.4C66.1024 47.4 65.0977 46.9838 64.3569 46.2431C63.6162 45.5023 63.2 44.4976 63.2 43.45C63.2 42.4024 63.6162 41.3977 64.3569 40.6569C65.0977 39.9162 66.1024 39.5 67.15 39.5H75.05C75.5687 39.5 76.0824 39.6022 76.5616 39.8007C77.0408 39.9992 77.4763 40.2901 77.8431 40.6569C78.2099 41.0237 78.5008 41.4592 78.6993 41.9384C78.8978 42.4176 79 42.9313 79 43.45C79 43.9687 78.8978 44.4824 78.6993 44.9616C78.5008 45.4408 78.2099 45.8763 77.8431 46.2431C77.4763 46.6099 77.0408 46.9008 76.5616 47.0993C76.0824 47.2978 75.5687 47.4 75.05 47.4H67.15ZM27.65 94.8C26.6024 94.8 25.5977 94.3838 24.8569 93.6431C24.1162 92.9023 23.7 91.8976 23.7 90.85C23.7 89.8024 24.1162 88.7977 24.8569 88.0569C25.5977 87.3162 26.6024 86.9 27.65 86.9H43.45C44.4976 86.9 45.5023 87.3162 46.2431 88.0569C46.9838 88.7977 47.4 89.8024 47.4 90.85C47.4 91.8976 46.9838 92.9023 46.2431 93.6431C45.5023 94.3838 44.4976 94.8 43.45 94.8H27.65ZM59.25 94.8C58.2024 94.8 57.1977 94.3838 56.4569 93.6431C55.7162 92.9023 55.3 91.8976 55.3 90.85C55.3 89.8024 55.7162 88.7977 56.4569 88.0569C57.1977 87.3162 58.2024 86.9 59.25 86.9H67.15C68.1976 86.9 69.2023 87.3162 69.9431 88.0569C70.6838 88.7977 71.1 89.8024 71.1 90.85C71.1 91.8976 70.6838 92.9023 69.9431 93.6431C69.2023 94.3838 68.1976 94.8 67.15 94.8H59.25ZM71.1 126.4V130.35C71.1 131.398 70.6838 132.402 69.9431 133.143C69.2023 133.884 68.1976 134.3 67.15 134.3C66.1024 134.3 65.0977 133.884 64.3569 133.143C63.6162 132.402 63.2 131.398 63.2 130.35V122.45C63.2 121.402 63.6162 120.398 64.3569 119.657C65.0977 118.916 66.1024 118.5 67.15 118.5H82.95C83.4687 118.5 83.9824 118.602 84.4616 118.801C84.9408 118.999 85.3763 119.29 85.7431 119.657C86.1099 120.024 86.4008 120.459 86.5993 120.938C86.7978 121.418 86.9 121.931 86.9 122.45C86.9 122.969 86.7978 123.482 86.5993 123.962C86.4008 124.441 86.1099 124.876 85.7431 125.243C85.3763 125.61 84.9408 125.901 84.4616 126.099C83.9824 126.298 83.4687 126.4 82.95 126.4H71.1ZM55.3 71.1H59.25C60.2976 71.1 61.3023 71.5162 62.0431 72.2569C62.7838 72.9977 63.2 74.0024 63.2 75.05C63.2 76.0976 62.7838 77.1023 62.0431 77.8431C61.3023 78.5838 60.2976 79 59.25 79H51.35C50.3024 79 49.2977 78.5838 48.5569 77.8431C47.8162 77.1023 47.4 76.0976 47.4 75.05V71.1H43.45C42.4024 71.1 41.3977 70.6838 40.6569 69.9431C39.9162 69.2023 39.5 68.1976 39.5 67.15C39.5 66.1024 39.9162 65.0977 40.6569 64.3569C41.3977 63.6162 42.4024 63.2 43.45 63.2H51.35C52.3976 63.2 53.4023 63.6162 54.1431 64.3569C54.8838 65.0977 55.3 66.1024 55.3 67.15V71.1ZM23.7 67.15C23.7 66.1024 24.1162 65.0977 24.8569 64.3569C25.5977 63.6162 26.6024 63.2 27.65 63.2C28.6976 63.2 29.7023 63.6162 30.4431 64.3569C31.1838 65.0977 31.6 66.1024 31.6 67.15V75.05C31.6 75.5687 31.4978 76.0824 31.2993 76.5616C31.1008 77.0408 30.8099 77.4763 30.4431 77.8431C30.0763 78.2099 29.6408 78.5008 29.1616 78.6993C28.6824 78.8978 28.1687 79 27.65 79C27.1313 79 26.6176 78.8978 26.1384 78.6993C25.6592 78.5008 25.2237 78.2099 24.8569 77.8431C24.4901 77.4763 24.1992 77.0408 24.0007 76.5616C23.8022 76.0824 23.7 75.5687 23.7 75.05V67.15ZM102.7 67.15C102.7 66.1024 103.116 65.0977 103.857 64.3569C104.598 63.6162 105.602 63.2 106.65 63.2C107.698 63.2 108.702 63.6162 109.443 64.3569C110.184 65.0977 110.6 66.1024 110.6 67.15V82.95C110.6 83.9976 110.184 85.0023 109.443 85.7431C108.702 86.4838 107.698 86.9 106.65 86.9C105.602 86.9 104.598 86.4838 103.857 85.7431C103.116 85.0023 102.7 83.9976 102.7 82.95V67.15ZM118.5 102.7V98.75C118.5 97.7024 118.916 96.6977 119.657 95.9569C120.398 95.2162 121.402 94.8 122.45 94.8H130.35C131.398 94.8 132.402 95.2162 133.143 95.9569C133.884 96.6977 134.3 97.7024 134.3 98.75C134.3 99.7976 133.884 100.802 133.143 101.543C132.402 102.284 131.398 102.7 130.35 102.7H126.4V106.65C126.4 107.698 125.984 108.702 125.243 109.443C124.502 110.184 123.498 110.6 122.45 110.6H106.65C105.602 110.6 104.598 110.184 103.857 109.443C103.116 108.702 102.7 107.698 102.7 106.65V98.75C102.7 97.7024 103.116 96.6977 103.857 95.9569C104.598 95.2162 105.602 94.8 106.65 94.8C107.698 94.8 108.702 95.2162 109.443 95.9569C110.184 96.6977 110.6 97.7024 110.6 98.75V102.7H118.5ZM7.9 35.55C7.9 36.0687 7.79783 36.5824 7.59932 37.0616C7.40082 37.5408 7.10986 37.9763 6.74307 38.3431C6.37628 38.7099 5.94084 39.0008 5.4616 39.1993C4.98236 39.3978 4.46872 39.5 3.95 39.5C3.43128 39.5 2.91764 39.3978 2.4384 39.1993C1.95916 39.0008 1.52372 38.7099 1.15693 38.3431C0.790137 37.9763 0.499182 37.5408 0.300676 37.0616C0.10217 36.5824 -1.09312e-08 36.0687 0 35.55V19.75C0 14.512 2.0808 9.48848 5.78464 5.78464C9.48848 2.0808 14.512 0 19.75 0H35.55C36.0687 -1.09312e-08 36.5824 0.10217 37.0616 0.300676C37.5408 0.499182 37.9763 0.790137 38.3431 1.15693C38.7099 1.52372 39.0008 1.95916 39.1993 2.4384C39.3978 2.91764 39.5 3.43128 39.5 3.95C39.5 4.46872 39.3978 4.98236 39.1993 5.4616C39.0008 5.94084 38.7099 6.37628 38.3431 6.74307C37.9763 7.10986 37.5408 7.40082 37.0616 7.59932C36.5824 7.79783 36.0687 7.9 35.55 7.9H19.75C16.6072 7.9 13.5931 9.14848 11.3708 11.3708C9.14848 13.5931 7.9 16.6072 7.9 19.75V35.55ZM122.45 7.9C121.402 7.9 120.398 7.48384 119.657 6.74307C118.916 6.0023 118.5 4.9976 118.5 3.95C118.5 2.90239 118.916 1.8977 119.657 1.15693C120.398 0.41616 121.402 2.20766e-08 122.45 0H138.25C140.844 0 143.412 0.510849 145.808 1.50338C148.204 2.49591 150.381 3.95068 152.215 5.78464C154.049 7.6186 155.504 9.79582 156.497 12.192C157.489 14.5882 158 17.1564 158 19.75V35.55C158 36.5976 157.584 37.6023 156.843 38.3431C156.102 39.0838 155.098 39.5 154.05 39.5C153.002 39.5 151.998 39.0838 151.257 38.3431C150.516 37.6023 150.1 36.5976 150.1 35.55V19.75C150.1 16.6072 148.852 13.5931 146.629 11.3708C144.407 9.14848 141.393 7.9 138.25 7.9H122.45ZM35.55 150.1C36.5976 150.1 37.6023 150.516 38.3431 151.257C39.0838 151.998 39.5 153.002 39.5 154.05C39.5 155.098 39.0838 156.102 38.3431 156.843C37.6023 157.584 36.5976 158 35.55 158H19.75C17.1564 158 14.5882 157.489 12.192 156.497C9.79582 155.504 7.6186 154.049 5.78464 152.215C3.95068 150.381 2.49591 148.204 1.50338 145.808C0.510849 143.412 0 140.844 0 138.25V122.45C2.20766e-08 121.402 0.41616 120.398 1.15693 119.657C1.8977 118.916 2.90239 118.5 3.95 118.5C4.9976 118.5 6.0023 118.916 6.74307 119.657C7.48384 120.398 7.9 121.402 7.9 122.45V138.25C7.9 141.393 9.14848 144.407 11.3708 146.629C13.5931 148.852 16.6072 150.1 19.75 150.1H35.55ZM150.1 122.45C150.1 121.402 150.516 120.398 151.257 119.657C151.998 118.916 153.002 118.5 154.05 118.5C155.098 118.5 156.102 118.916 156.843 119.657C157.584 120.398 158 121.402 158 122.45V138.25C158 140.844 157.489 143.412 156.497 145.808C155.504 148.204 154.049 150.381 152.215 152.215C150.381 154.049 148.204 155.504 145.808 156.497C143.412 157.489 140.844 158 138.25 158H122.45C121.402 158 120.398 157.584 119.657 156.843C118.916 156.102 118.5 155.098 118.5 154.05C118.5 153.002 118.916 151.998 119.657 151.257C120.398 150.516 121.402 150.1 122.45 150.1H138.25C141.393 150.1 144.407 148.852 146.629 146.629C148.852 144.407 150.1 141.393 150.1 138.25V122.45Z" fill="#051F64"/>
</svg>
